<svg width="137" height="137" viewBox="0 0 137 137" fill="none" xmlns="http://www.w3.org/2000/svg">
<path d="M68.5 137C106.332 137 137 106.332 137 68.5C137 30.6685 106.332 0 68.5 0C30.6685 0 0 30.6685 0 68.5C0 106.332 30.6685 137 68.5 137Z" fill="#E5E5E5"/>
<path d="M54.1669 69.9623C53.6164 70.2997 52.9815 70.4742 52.3359 70.4653C51.6343 70.4771 50.9415 70.3085 50.3238 69.9757C49.6954 69.6312 49.1487 69.1553 48.7207 68.5806L44.1465 72.8396C44.947 73.8848 45.9714 74.7374 47.1446 75.3347C48.3405 75.9186 49.6571 76.2127 50.9878 76.1932C52.81 76.2142 54.6069 75.7661 56.2059 74.892C57.8182 73.9947 59.2092 72.748 60.2771 71.2433C61.4615 69.5876 62.3531 67.7409 62.9131 65.7837C63.5542 63.5879 63.8727 61.3105 63.8588 59.0229C63.8588 56.3401 63.2819 54.2162 62.1283 52.6512C60.9814 51.1085 59.2845 50.3372 57.051 50.3372C55.6334 50.3334 54.2298 50.6187 52.9261 51.1756C51.6386 51.7219 50.4578 52.4916 49.4384 53.4493C48.4296 54.387 47.6099 55.5095 47.0238 56.7559C46.4455 57.9995 46.1478 59.3551 46.1519 60.7265C46.1307 61.9393 46.4193 63.1374 46.9903 64.2076C47.5379 65.2177 48.3552 66.0559 49.3512 66.6288C50.4402 67.244 51.6757 67.5523 52.9261 67.5209C53.3761 67.5239 53.8253 67.4834 54.2676 67.4002C54.6717 67.3147 55.0637 67.1795 55.4346 66.9977C55.8149 66.805 56.1784 66.5807 56.5212 66.327C56.3254 67.0944 56.0133 67.8273 55.5956 68.5001C55.239 69.0915 54.7499 69.5921 54.1669 69.9623ZM55.7767 62.0344C55.4029 62.226 54.9894 62.327 54.5694 62.3296C54.1941 62.3373 53.8265 62.2219 53.5231 62.0009C53.2252 61.7702 52.9938 61.4647 52.8523 61.1156C52.6801 60.7226 52.5954 60.297 52.6042 59.868C52.6038 59.3565 52.7064 58.8501 52.906 58.379C53.0916 57.916 53.3572 57.4891 53.6907 57.1181C53.9937 56.765 54.3543 56.4656 54.7572 56.2328C55.0988 56.0239 55.4903 55.9104 55.8907 55.9041C56.2666 55.8962 56.6321 56.0276 56.9169 56.273C57.2206 56.5339 57.4517 56.8689 57.5876 57.2455C57.753 57.6732 57.835 58.1285 57.829 58.587C57.8306 59.083 57.7372 59.5747 57.554 60.0357C57.3751 60.4713 57.1258 60.8746 56.8163 61.2296C56.5246 61.5621 56.1716 61.8353 55.7767 62.0344Z" fill="#272727"/>
<path d="M81.5656 64.8446H77.3401L80.3047 50.8401H73.5305C73.2302 51.2268 72.8647 51.5582 72.4506 51.8193C71.914 52.1882 71.3238 52.5571 70.6665 52.9193C70.07 53.2557 69.4516 53.5515 68.8153 53.8046C68.3929 54.0019 67.9386 54.1223 67.4739 54.1601L66.1794 60.2301C66.6756 60.2202 67.1688 60.1504 67.6483 60.0222C68.2303 59.8753 68.8017 59.6893 69.3586 59.4655C69.8983 59.2513 70.4227 59.0003 70.9281 58.7143C71.3257 58.4951 71.6894 58.2195 72.0079 57.896L70.5458 64.8446H65.8508L64.5898 70.7804H80.3047L81.5656 64.8446Z" fill="#272727"/>
<path d="M83.9399 64.8446L82.679 70.7804H98.4005L99.6547 64.8446H95.4292L98.4005 50.8401H91.6196C91.321 51.2284 90.9553 51.5601 90.5397 51.8193C90.0031 52.1882 89.4129 52.5571 88.7556 52.9193C88.1592 53.2557 87.5407 53.5515 86.9045 53.8046C86.482 54.0019 86.0277 54.1223 85.563 54.1601L84.2686 60.2301C84.7648 60.2202 85.258 60.1504 85.7374 60.0222C86.3194 59.8753 86.8908 59.6893 87.4477 59.4655C87.9875 59.2513 88.5118 59.0003 89.0172 58.7143C89.4148 58.4951 89.7786 58.2195 90.097 57.896L88.6349 64.8446H83.9399Z" fill="#272727"/>
<path d="M68.5 5.24512C55.9891 5.24379 43.7587 8.9525 33.3556 15.9022C22.9525 22.852 14.8439 32.7306 10.0552 44.2888C5.26658 55.8471 4.01297 68.5657 6.45292 80.8364C8.89287 93.1072 14.9168 104.379 23.7629 113.226C32.609 122.073 43.88 128.098 56.1504 130.539C68.4209 132.98 81.1397 131.728 92.6984 126.941C104.257 122.153 114.137 114.046 121.087 103.643C128.038 93.241 131.748 81.0111 131.748 68.5001C131.729 51.731 125.059 35.6542 113.202 23.796C101.345 11.9378 85.2691 5.26642 68.5 5.24512ZM68.5 129.736C56.3868 129.738 44.5452 126.147 34.4728 119.418C24.4004 112.689 16.5497 103.124 11.9136 91.9332C7.2774 80.7422 6.06403 68.4278 8.42689 56.5472C10.7897 44.6666 16.6227 33.7535 25.1881 25.1882C33.7534 16.6228 44.6665 10.7898 56.5471 8.42699C68.4277 6.06413 80.7421 7.2775 91.933 11.9137C103.124 16.5498 112.689 24.4005 119.418 34.4729C126.147 44.5453 129.738 56.3869 129.736 68.5001C129.717 84.735 123.259 100.299 111.779 111.779C100.299 123.259 84.7349 129.717 68.5 129.736Z" fill="#272727"/>
<path d="M111.204 39.8875C104.268 29.4932 93.7832 21.9815 81.7103 18.7571C69.6374 15.5327 56.8034 16.8165 45.6085 22.3684C42.8406 23.7668 40.1954 25.3957 37.7008 27.2378C35.2126 29.0947 32.8961 31.1711 30.779 33.4419C30.5174 33.7236 30.2424 33.9986 29.9808 34.287L29.2296 35.1791C28.74 35.7827 28.2169 36.3595 27.7474 36.9766C26.8285 38.2241 25.8761 39.4515 25.0645 40.7862C24.6554 41.4569 24.206 42.0606 23.8237 42.7984C23.4414 43.5361 23.0993 44.2002 22.7841 44.9379C22.1393 46.4066 21.671 47.9466 21.389 49.5256C20.9491 51.9433 21.0917 54.4311 21.8048 56.7827C21.9121 57.0913 22.006 57.3998 22.1201 57.715C20.9796 59.081 20.2783 60.7595 20.1079 62.5308C19.9335 66.3002 22.7908 69.5129 26.1913 70.3714C26.1862 71.0467 26.2491 71.7208 26.3791 72.3836C26.5617 73.2991 26.8243 74.1968 27.1638 75.0664H26.8285C26.6041 75.0669 26.38 75.0826 26.1578 75.1133C25.5534 75.202 24.9724 75.4089 24.4481 75.7222C23.9237 76.0355 23.4662 76.4491 23.1018 76.9393C22.7374 77.4296 22.4732 77.9868 22.3243 78.5792C22.1754 79.1717 22.1448 79.7876 22.2341 80.3919C23.3759 89.6147 27.5554 98.195 34.1133 104.78C40.6712 111.364 49.2345 115.579 58.4526 116.758C58.6924 116.794 58.9347 116.809 59.177 116.805C59.7874 116.799 60.3906 116.672 60.9522 116.433C61.5138 116.194 62.0227 115.846 62.45 115.41C62.8772 114.974 63.2144 114.459 63.4423 113.892C63.6702 113.326 63.7843 112.72 63.7781 112.11V102.995C63.7803 102.421 63.5708 101.866 63.1897 101.437C62.8086 101.007 62.2826 100.734 61.7123 100.668C58.6636 100.441 55.6828 99.6542 52.9192 98.3469C52.3977 98.088 51.7978 98.0346 51.2387 98.1973C50.6796 98.3601 50.2021 98.7271 49.901 99.2255L48.7608 101.238C48.7139 101.318 48.6669 101.399 48.6133 101.472C48.2528 101.973 47.7084 102.31 47.0998 102.409C46.4911 102.508 45.8679 102.362 45.367 102.002C41.9956 99.7029 39.0839 96.7934 36.7819 93.4238C36.7282 93.3434 36.6813 93.2696 36.6343 93.1824C36.4875 92.9151 36.3948 92.6215 36.3616 92.3184C36.3283 92.0153 36.3551 91.7085 36.4404 91.4158C36.5258 91.123 36.668 90.8499 36.8589 90.6122C37.0498 90.3744 37.2858 90.1766 37.5532 90.03L39.5653 88.8898C40.0578 88.6046 40.4291 88.1493 40.6095 87.6096C40.7898 87.0698 40.7667 86.4827 40.5446 85.9588C39.2359 83.1977 38.447 80.2193 38.2172 77.1724C38.1542 76.6004 37.8814 76.0719 37.4516 75.6891C37.0218 75.3064 36.4654 75.0965 35.8898 75.0999H30.1217C29.6317 74.0906 29.2668 73.0252 29.0351 71.9275C28.9534 71.5252 28.904 71.117 28.8876 70.7068C29.7488 70.7024 30.6065 70.5966 31.443 70.3915C32.3019 70.1848 33.1265 69.8549 33.8911 69.4123C34.3098 69.1698 34.6972 68.877 35.0447 68.5404C35.461 68.1407 35.7819 67.6524 35.9837 67.1117C36.1065 66.7651 36.1545 66.3964 36.1244 66.03C36.0943 65.6635 35.987 65.3075 35.8093 64.9856C35.4472 64.3819 34.8772 63.9312 34.2063 63.7179C33.2345 63.4058 32.193 63.3825 31.2082 63.6509C30.2827 63.8801 29.419 64.3102 28.6783 64.9106C27.9377 65.5111 27.3382 66.2671 26.9224 67.1252C26.7995 67.3915 26.692 67.6647 26.6004 67.9434C25.4635 67.6246 24.4505 66.9672 23.6962 66.0587C22.8765 65.1185 22.4386 63.9053 22.4688 62.6582C22.5519 61.666 22.8791 60.7098 23.4213 59.8747C23.8449 60.3459 24.352 60.7347 24.9169 61.0217C25.7784 61.4352 26.7347 61.6112 27.687 61.5314C29.5026 61.3793 31.1949 60.5511 32.4289 59.2107C32.766 58.8408 33.0422 58.4197 33.2472 57.9632C33.4966 57.4108 33.5715 56.7954 33.4618 56.1992C33.4216 56.045 33.3746 55.8773 33.321 55.7297L33.1399 55.3675C33.013 55.1263 32.8576 54.9011 32.6771 54.6968C32.2997 54.2763 31.8221 53.9579 31.2887 53.7712C30.3626 53.4588 29.3661 53.4192 28.4181 53.6572C27.5726 53.8451 26.7561 54.1451 25.9901 54.5493C25.1983 54.9716 24.4541 55.4775 23.77 56.0584C23.5758 55.4192 23.4279 54.767 23.3274 54.1066C23.1227 52.6971 23.1431 51.2641 23.3877 49.861C23.628 48.4327 24.0402 47.0386 24.6151 45.7093C24.8901 45.0385 25.2188 44.3678 25.5541 43.7307C25.8895 43.0935 26.3187 42.4697 26.701 41.8325C27.4657 40.5448 28.3778 39.3576 29.2498 38.1436C29.6991 37.54 30.1955 36.9833 30.665 36.3998L31.3759 35.5345C31.6241 35.2528 31.8857 34.9845 32.1405 34.7096C34.1607 32.502 36.3764 30.4816 38.7605 28.6731C41.1577 26.8713 43.7019 25.2738 46.3664 23.8977C54.4898 19.8097 63.572 18.0076 72.6409 18.6842C81.7098 19.3608 90.4239 22.4908 97.8508 27.739C105.278 32.9872 111.138 40.1561 114.804 48.4786C118.47 56.801 119.804 65.9637 118.663 74.9859C117.927 81.0198 116.095 86.8684 113.257 92.2434C110.408 97.6218 106.619 102.447 102.069 106.489C97.5157 110.548 92.2609 113.744 86.5622 115.92C80.8536 118.093 74.8026 119.229 68.6944 119.273C74.8181 119.272 80.8922 118.175 86.6293 116.034C92.3748 113.9 97.684 110.739 102.297 106.704C106.92 102.668 110.782 97.8365 113.699 92.4379C116.623 87.0289 118.53 81.1297 119.327 75.0329C120.977 62.7201 118.09 50.2275 111.204 39.8875ZM31.8454 66.1258C32.3395 65.9918 32.8604 65.9918 33.3545 66.1258C33.4324 66.1504 33.5052 66.189 33.5692 66.2398C33.5736 66.2687 33.5736 66.2981 33.5692 66.327C33.3467 66.7403 33.0025 67.0752 32.5832 67.2861C32.0278 67.6085 31.4293 67.8502 30.8058 68.0038C30.3129 68.126 29.8101 68.2045 29.3034 68.2385C29.5483 67.7229 29.9025 67.2668 30.3415 66.902C30.7805 66.5371 31.2937 66.2722 31.8454 66.1258ZM27.0565 56.5413C27.6369 56.2232 28.2572 55.9841 28.901 55.8303C29.4335 55.6773 29.9983 55.6773 30.5308 55.8303C30.7224 55.8914 30.8954 55.9998 31.0339 56.1456C31.1026 56.2228 31.1612 56.3084 31.2082 56.4004L31.2887 56.548C31.284 56.5724 31.284 56.5974 31.2887 56.6218C31.2875 56.8352 31.2421 57.046 31.1556 57.2411C31.069 57.4361 30.9431 57.6112 30.7857 57.7553C29.9295 58.679 28.7657 59.2585 27.5126 59.3851C26.9923 59.4473 26.4647 59.3723 25.9823 59.1675C25.4999 58.9628 25.0795 58.6355 24.7627 58.2181C25.4434 57.5525 26.2158 56.9879 27.0565 56.5413Z" fill="#272727"/>
<path d="M90.8616 90.6403C90.853 91.0763 90.6754 91.492 90.3664 91.7998C90.0574 92.1075 89.641 92.2834 89.2049 92.2902H85.1002C84.6602 92.2902 84.2381 92.4646 83.9264 92.7751C83.6146 93.0856 83.4386 93.5069 83.4368 93.9469V98.0852C83.4359 98.3053 83.3914 98.5231 83.3057 98.7259C83.2201 98.9287 83.095 99.1125 82.9378 99.2666C82.7806 99.4207 82.5943 99.5421 82.3898 99.6237C82.1854 99.7052 81.9667 99.7454 81.7466 99.7419H78.99C78.7716 99.7436 78.5551 99.7021 78.3529 99.6195C78.1507 99.537 77.9669 99.4151 77.8122 99.261C77.6575 99.1069 77.5349 98.9236 77.4515 98.7218C77.3682 98.52 77.3257 98.3036 77.3266 98.0852V93.9469C77.3196 93.5039 77.1382 93.0816 76.8217 92.7714C76.5053 92.4613 76.0794 92.2884 75.6364 92.2902H71.5383C71.0959 92.2938 70.67 92.1224 70.3534 91.8134C70.0368 91.5043 69.8552 91.0827 69.8481 90.6403V87.8635C69.8552 87.4205 70.0366 86.9982 70.353 86.6881C70.6694 86.3779 71.0953 86.205 71.5383 86.2069H75.6364C75.856 86.2104 76.074 86.1705 76.2781 86.0893C76.4821 86.0081 76.6681 85.8874 76.8252 85.734C76.9823 85.5806 77.1075 85.3976 77.1936 85.1956C77.2797 84.9936 77.3249 84.7765 77.3266 84.5569V80.4186C77.3257 80.1999 77.3681 79.9832 77.4514 79.781C77.5347 79.5788 77.6572 79.3951 77.8118 79.2405C77.9664 79.0858 78.1502 78.9633 78.3524 78.88C78.5546 78.7968 78.7713 78.7544 78.99 78.7552H81.7466C81.967 78.7526 82.1858 78.7936 82.3903 78.8759C82.5949 78.9582 82.7811 79.0802 82.9382 79.2349C83.0953 79.3895 83.2203 79.5737 83.3058 79.7769C83.3914 79.98 83.4359 80.1981 83.4368 80.4186V84.51C83.4359 84.728 83.4784 84.9441 83.5618 85.1456C83.6453 85.347 83.768 85.5299 83.9228 85.6834C84.0776 85.837 84.2614 85.9582 84.4636 86.04C84.6657 86.1218 84.8821 86.1626 85.1002 86.1599H89.2049C89.6463 86.1616 90.0695 86.3358 90.3841 86.6454C90.6987 86.955 90.8797 87.3753 90.8884 87.8166L90.8616 90.6403Z" fill="#FFC035"/>
</svg>
