<svg width="115" height="118" viewBox="0 0 115 118" fill="none" xmlns="http://www.w3.org/2000/svg">
<path d="M92.4065 0.23291H0.883545C1.43212 44.1126 18.8253 86.1027 49.4653 117.518L114.175 52.8078C100.706 38.5529 92.9565 19.8373 92.4065 0.23291Z" fill="#E6EBED"/>
<path d="M70.2377 42.8962C70.8746 42.8789 71.4922 42.6742 72.0134 42.3078C72.5346 41.9413 72.9362 41.4294 73.168 40.8359C73.3998 40.2425 73.4516 39.5938 73.3167 38.9711C73.1819 38.3484 72.8665 37.7793 72.41 37.3349C71.9535 36.8904 71.3761 36.5904 70.75 36.4724C70.1239 36.3543 69.4769 36.4234 68.8899 36.6711C68.3029 36.9187 67.8019 37.3339 67.4495 37.8648C67.0972 38.3956 66.9092 39.0185 66.9089 39.6556C66.9214 40.5265 67.279 41.3569 67.903 41.9644C68.5271 42.572 69.3668 42.9071 70.2377 42.8962ZM69.4445 38.0692C69.5197 38.0165 69.6103 37.9902 69.7021 37.9947H71.9054C71.9994 37.9892 72.0925 38.0155 72.1698 38.0692C72.1977 38.0953 72.22 38.1267 72.2352 38.1617C72.2505 38.1967 72.2583 38.2345 72.2583 38.2726C72.2583 38.3108 72.2505 38.3486 72.2352 38.3835C72.22 38.4185 72.1977 38.45 72.1698 38.476C72.0925 38.5298 71.9994 38.556 71.9054 38.5506H71.1461V40.9641C71.1521 41.0187 71.1468 41.074 71.1304 41.1265C71.1141 41.179 71.0871 41.2276 71.0512 41.2692C71.0205 41.303 70.9827 41.3296 70.9405 41.3472C70.8983 41.3647 70.8528 41.3728 70.8071 41.3709C70.7605 41.3729 70.7139 41.3649 70.6706 41.3473C70.6274 41.3298 70.5884 41.3031 70.5563 41.2692C70.521 41.2271 70.4945 41.1785 70.4782 41.1262C70.4619 41.0738 70.4562 41.0187 70.4614 40.9641V38.5506H69.7021C69.6101 38.5573 69.5187 38.5308 69.4445 38.476C69.4156 38.4508 69.3926 38.4195 69.3774 38.3843C69.3622 38.3491 69.355 38.3109 69.3563 38.2726C69.3545 38.2342 69.3614 38.1959 69.3767 38.1607C69.392 38.1254 69.4152 38.0941 69.4445 38.0692ZM68.2242 38.3472C68.219 38.2926 68.2247 38.2375 68.241 38.1851C68.2573 38.1328 68.2838 38.0841 68.3191 38.0421C68.3498 38.0083 68.3876 37.9817 68.4298 37.9641C68.472 37.9466 68.5175 37.9385 68.5631 37.9404C68.6098 37.9384 68.6563 37.9464 68.6996 37.964C68.7429 37.9815 68.7819 38.0082 68.814 38.0421C68.8504 38.0836 68.8782 38.132 68.8957 38.1844C68.9132 38.2368 68.9199 38.2921 68.9157 38.3472V40.9641C68.9199 41.0191 68.9132 41.0745 68.8957 41.1269C68.8782 41.1793 68.8504 41.2277 68.814 41.2692C68.7819 41.3031 68.7429 41.3298 68.6996 41.3473C68.6563 41.3649 68.6098 41.3729 68.5631 41.3709C68.5175 41.3728 68.472 41.3647 68.4298 41.3472C68.3876 41.3296 68.3498 41.303 68.3191 41.2692C68.2838 41.2271 68.2573 41.1785 68.241 41.1262C68.2247 41.0738 68.219 41.0187 68.2242 40.9641V38.3472Z" fill="#272727"/>
<path d="M75.5255 58.8821C75.2314 58.7526 74.9574 58.5813 74.712 58.3737C74.5609 58.2497 74.4224 58.1112 74.2985 57.9601C74.0924 57.7087 73.9256 57.4275 73.8035 57.1262C73.742 56.989 73.6943 56.8459 73.6612 56.6991V56.611C73.6126 56.3883 73.5876 56.161 73.5866 55.9331V46.1299H66.9088V47.4316L66.1699 46.1299L59.187 33.9404L57.5192 30.9913L54.1973 25.1746L50.8686 30.9913L42.2383 46.1299L45.1941 52.6043L48.889 46.1299L54.2108 36.8217L55.8854 39.764L59.526 46.1299H52.238L48.5364 52.6043H63.214L66.9088 59.0787H76.1357C75.9256 59.0362 75.7209 58.9703 75.5255 58.8821Z" fill="#272727"/>
<path d="M42.6249 69.831C42.3331 69.8337 42.0441 69.7736 41.7775 69.6547C41.5214 69.5446 41.2906 69.3831 41.0995 69.1801C40.9115 68.9837 40.762 68.7538 40.6589 68.5022C40.5346 68.1915 40.4804 67.8572 40.5004 67.5232C40.5203 67.1892 40.6138 66.8637 40.7741 66.57C40.954 66.2299 41.2267 65.9478 41.5606 65.7565C41.8876 65.5594 42.2635 65.4584 42.6453 65.465C43.0328 65.4535 43.415 65.5574 43.7435 65.7633C44.0518 65.9573 44.3042 66.2283 44.4757 66.5497C44.6579 66.877 44.7514 67.2462 44.7469 67.6208V67.7429C44.7511 67.7744 44.7511 67.8063 44.7469 67.8378H41.0792C41.0995 68.1224 41.1854 68.3986 41.3301 68.6445C41.4711 68.8716 41.664 69.0621 41.8928 69.2004C42.1199 69.3374 42.38 69.41 42.6453 69.4106C42.9221 69.41 43.1937 69.3351 43.4317 69.1937C43.6604 69.0739 43.842 68.8804 43.9469 68.6445L44.4283 68.7734C44.337 68.9817 44.2004 69.167 44.0283 69.3157C43.8458 69.4833 43.6313 69.6125 43.3978 69.6954C43.1502 69.7859 42.8885 69.8318 42.6249 69.831ZM41.0589 67.4378H44.191C44.1761 67.1531 44.0923 66.8763 43.9469 66.631C43.8054 66.4079 43.6124 66.2219 43.3842 66.0887C43.1522 65.9589 42.8907 65.8912 42.6249 65.8921C42.359 65.8903 42.0973 65.9581 41.8656 66.0887C41.6376 66.2227 41.4466 66.4114 41.3097 66.6378C41.163 66.8804 41.0769 67.1548 41.0589 67.4378Z" fill="#272727"/>
<path d="M47.289 63.9736H47.7703L50.1703 69.7498H49.5669L48.8483 67.9464H46.2043L45.4856 69.7498H44.8755L47.289 63.9736ZM48.6449 67.499L47.4991 64.638L46.3602 67.499H48.6449Z" fill="#272727"/>
<path d="M52.15 69.8312C51.8193 69.8343 51.4907 69.7769 51.1806 69.6617C50.8868 69.5484 50.6225 69.3699 50.4077 69.1397L50.6382 68.7465C50.8463 68.9513 51.0897 69.1167 51.3568 69.2346C51.5994 69.3359 51.8601 69.3867 52.1229 69.3838C52.405 69.3955 52.6846 69.3274 52.9297 69.1871C53.0251 69.1259 53.1037 69.0417 53.1582 68.9422C53.2127 68.8427 53.2413 68.7311 53.2415 68.6177C53.2457 68.5457 53.2338 68.4738 53.2069 68.407C53.1799 68.3402 53.1385 68.2802 53.0856 68.2312C52.9611 68.1282 52.8152 68.0541 52.6585 68.0143L51.9806 67.8313C51.7286 67.7654 51.4816 67.6815 51.2416 67.5804C51.0661 67.5073 50.9121 67.3906 50.7941 67.2414C50.6879 67.0812 50.6356 66.8912 50.645 66.6991C50.637 66.4559 50.7111 66.2172 50.8552 66.0211C51.0017 65.8334 51.1995 65.6922 51.4246 65.6144C51.682 65.5159 51.9559 65.4676 52.2314 65.472C52.5253 65.4655 52.8177 65.5162 53.0924 65.6211C53.3266 65.7166 53.5355 65.8651 53.7025 66.055L53.4381 66.4279C53.2879 66.2609 53.1027 66.129 52.8958 66.0415C52.6791 65.9601 52.4493 65.9187 52.2178 65.9194C52.0504 65.9177 51.8837 65.9405 51.7229 65.9872C51.5775 66.0285 51.4447 66.1054 51.3365 66.211C51.2316 66.3303 51.178 66.4862 51.1874 66.6448C51.1823 66.7083 51.1899 66.7721 51.2097 66.8327C51.2294 66.8932 51.261 66.9492 51.3026 66.9974C51.3992 67.091 51.5148 67.1627 51.6416 67.2076L52.2043 67.3906C52.4866 67.4618 52.7649 67.5478 53.0381 67.6482C53.2478 67.7187 53.4381 67.8371 53.5941 67.994C53.732 68.1586 53.8022 68.3694 53.7907 68.5838C53.7985 68.7625 53.7616 68.9404 53.6835 69.1013C53.6054 69.2623 53.4885 69.4013 53.3432 69.5058C52.9923 69.743 52.5728 69.8574 52.15 69.8312Z" fill="#272727"/>
<path d="M55.9938 69.8311C55.6652 69.8351 55.3387 69.7776 55.0312 69.6616C54.7374 69.5483 54.4731 69.3698 54.2583 69.1396L54.482 68.7464C54.6913 68.9498 54.9345 69.115 55.2006 69.2345C55.4457 69.3353 55.7085 69.386 55.9735 69.3837C56.2555 69.3947 56.535 69.3266 56.7803 69.1871C56.8773 69.1279 56.9567 69.044 57.0103 68.9439C57.064 68.8437 57.0899 68.7311 57.0853 68.6176C57.0908 68.5461 57.0803 68.4744 57.0545 68.4075C57.0287 68.3406 56.9883 68.2804 56.9362 68.2311C56.8091 68.1281 56.661 68.0541 56.5023 68.0142L55.8244 67.8312C55.5843 67.7708 55.3487 67.6937 55.1193 67.6007C54.9438 67.5275 54.7898 67.4109 54.6718 67.2617C54.5656 67.1014 54.5133 66.9114 54.5227 66.7193C54.5158 66.4774 54.5871 66.2396 54.7261 66.0414C54.8755 65.8566 55.0723 65.716 55.2956 65.6346C55.5555 65.5369 55.8314 65.4886 56.1091 65.4923C56.403 65.4858 56.6955 65.5364 56.9701 65.6414C57.2043 65.7368 57.4132 65.8854 57.5802 66.0753L57.3091 66.4481C57.1602 66.2796 56.9747 66.1474 56.7667 66.0617C56.5502 65.9794 56.3203 65.9381 56.0888 65.9397C55.9213 65.9375 55.7545 65.9604 55.5939 66.0075C55.4471 66.0455 55.3135 66.1229 55.2074 66.2312C55.1007 66.3499 55.0447 66.5056 55.0515 66.6651C55.0448 66.7928 55.0859 66.9185 55.1667 67.0176C55.2649 67.1126 55.383 67.1844 55.5125 67.2278L56.0684 67.4108C56.3532 67.4811 56.6338 67.5671 56.9091 67.6685C57.1171 67.7423 57.3068 67.8602 57.465 68.0142C57.6005 68.1798 57.6683 68.3905 57.6548 68.604C57.6521 68.7831 57.6049 68.9587 57.5173 69.115C57.4297 69.2712 57.3045 69.4032 57.1531 69.4989C56.8125 69.7314 56.4059 69.8479 55.9938 69.8311Z" fill="#272727"/>
<path d="M58.4548 64.6243V63.8108H59.004V64.6243H58.4548ZM58.4548 69.7496V65.5124H59.004V69.7496H58.4548Z" fill="#272727"/>
<path d="M61.5395 69.831C61.1977 69.8303 60.8593 69.7635 60.5429 69.6344C60.2491 69.5211 59.9848 69.3426 59.77 69.1123L59.9937 68.7191C60.2054 68.9227 60.4508 69.0879 60.7191 69.2072C60.9617 69.3086 61.2224 69.3593 61.4852 69.3564C61.7672 69.3674 62.0467 69.2993 62.292 69.1598C62.389 69.1007 62.4684 69.0167 62.522 68.9166C62.5757 68.8165 62.6016 68.7038 62.5971 68.5903C62.6025 68.5189 62.592 68.4471 62.5662 68.3802C62.5404 68.3134 62.5 68.2531 62.4479 68.2039C62.3224 68.1023 62.1769 68.0284 62.0208 67.9869L61.3429 67.8039C61.0906 67.7391 60.8435 67.6552 60.6039 67.5531C60.4284 67.4799 60.2744 67.3633 60.1564 67.2141C60.0502 67.0538 59.9979 66.8638 60.0073 66.6717C60.0004 66.4298 60.0717 66.192 60.2107 65.9938C60.3601 65.809 60.5569 65.6684 60.7802 65.587C61.0401 65.4893 61.316 65.441 61.5937 65.4446C61.8876 65.4382 62.1801 65.4888 62.4547 65.5938C62.6889 65.6892 62.8978 65.8378 63.0648 66.0277L62.7937 66.4006C62.646 66.2337 62.463 66.1017 62.2581 66.0141C62.0414 65.9327 61.8116 65.8914 61.5801 65.8921C61.4127 65.8899 61.2459 65.9128 61.0852 65.9599C60.9398 66.0011 60.807 66.078 60.6988 66.1836C60.5939 66.303 60.5403 66.4589 60.5497 66.6175C60.5404 66.7444 60.5791 66.8702 60.6581 66.97C60.7574 67.0635 60.8752 67.135 61.0039 67.1802L61.5666 67.3632C61.8489 67.4344 62.1272 67.5204 62.4005 67.6209C62.6094 67.6929 62.7994 67.8111 62.9564 67.9666C63.0943 68.1312 63.1645 68.342 63.153 68.5564C63.1608 68.7352 63.124 68.913 63.0458 69.074C62.9677 69.235 62.8508 69.3739 62.7055 69.4784C62.3655 69.7195 61.9561 69.8433 61.5395 69.831Z" fill="#272727"/>
<path d="M66.0275 69.5803L65.8241 69.6684C65.7165 69.7151 65.6054 69.7536 65.492 69.7837C65.3522 69.8177 65.2087 69.8337 65.0648 69.8312C64.9134 69.8335 64.7631 69.8034 64.6242 69.743C64.4882 69.6856 64.3725 69.5888 64.292 69.4651C64.2072 69.3316 64.1647 69.1756 64.17 69.0176V65.9668H63.5869V65.5262H64.17V64.0957H64.7259V65.5262H65.7021V65.9668H64.7259V68.8617C64.7284 68.928 64.7448 68.993 64.774 69.0525C64.8032 69.1121 64.8445 69.1648 64.8954 69.2074C64.9948 69.2822 65.1168 69.3205 65.2411 69.3159C65.3826 69.3193 65.5233 69.294 65.6547 69.2413C65.7317 69.2106 65.8065 69.1744 65.8784 69.1329L66.0275 69.5803Z" fill="#272727"/>
</svg>
