<svg width="118" height="114" viewBox="0 0 118 114" fill="none" xmlns="http://www.w3.org/2000/svg">
<path d="M64.7823 113.292C79.0417 99.8207 97.762 92.0715 117.371 91.523V0C73.4912 0.549266 31.5013 17.9423 0.0856934 48.5818L64.7823 113.292Z" fill="#E6EBED"/>
<path d="M51.4743 63.9102C51.6912 64.2627 51.9149 64.5881 52.1522 64.9474L52.2946 65.144C52.6486 64.6779 52.9746 64.1912 53.2708 63.6864C53.5586 63.3105 53.7369 62.8624 53.7861 62.3916C53.7861 62.0014 53.6311 61.6272 53.3552 61.3513C53.0793 61.0754 52.7051 60.9204 52.3149 60.9204C51.9247 60.9204 51.5506 61.0754 51.2747 61.3513C50.9988 61.6272 50.8438 62.0014 50.8438 62.3916C50.8376 62.4456 50.8376 62.5002 50.8438 62.5543C50.9715 63.0402 51.185 63.4994 51.4743 63.9102Z" fill="#272727"/>
<path d="M83.1003 65.7202C83.1003 64.9894 82.8836 64.2751 82.4776 63.6675C82.0717 63.0599 81.4946 62.5863 80.8195 62.3066C80.1443 62.027 79.4014 61.9538 78.6847 62.0964C77.968 62.239 77.3096 62.5908 76.7929 63.1076C76.2762 63.6243 75.9243 64.2827 75.7817 64.9994C75.6391 65.7161 75.7123 66.459 75.992 67.1342C76.2716 67.8093 76.7452 68.3863 77.3528 68.7923C77.9604 69.1983 78.6748 69.415 79.4055 69.415C80.3849 69.4132 81.3236 69.0234 82.0162 68.3309C82.7087 67.6383 83.0985 66.6996 83.1003 65.7202ZM79.4055 67.0761C79.1373 67.0761 78.8752 66.9966 78.6522 66.8476C78.4292 66.6986 78.2555 66.4868 78.1528 66.2391C78.0502 65.9913 78.0234 65.7187 78.0757 65.4557C78.128 65.1927 78.2571 64.9511 78.4468 64.7614C78.6364 64.5718 78.878 64.4427 79.141 64.3904C79.404 64.3381 79.6766 64.3649 79.9244 64.4675C80.1722 64.5701 80.3839 64.7439 80.5329 64.9669C80.6819 65.1899 80.7614 65.452 80.7614 65.7202C80.7669 65.9017 80.7358 66.0824 80.6701 66.2516C80.6044 66.4208 80.5054 66.5751 80.379 66.7054C80.2525 66.8356 80.1012 66.9392 79.934 67.0098C79.7668 67.0805 79.5871 67.1169 79.4055 67.1168V67.0761Z" fill="#272727"/>
<path d="M54.4435 62.6965C54.2748 63.1749 54.047 63.6304 53.7656 64.0524C53.5757 64.3688 53.3791 64.6807 53.1757 64.988C53.3642 65.1959 53.4681 65.4667 53.4673 65.7473C53.4794 65.9056 53.4588 66.0648 53.4065 66.2147C53.3543 66.3647 53.2716 66.5022 53.1637 66.6187C53.0559 66.7352 52.925 66.8282 52.7795 66.8918C52.634 66.9553 52.4769 66.9881 52.3181 66.9881C52.1593 66.9881 52.0023 66.9553 51.8567 66.8918C51.7112 66.8282 51.5804 66.7352 51.4725 66.6187C51.3646 66.5022 51.282 66.3647 51.2298 66.2147C51.1775 66.0648 51.1568 65.9056 51.169 65.7473C51.1694 65.482 51.263 65.2252 51.4334 65.0219C51.2978 64.8117 51.1622 64.6016 51.0334 64.3846C50.6909 63.8668 50.4132 63.309 50.2063 62.7236C49.5617 63.1737 49.0775 63.8177 48.824 64.5619C48.5705 65.3061 48.5611 66.1118 48.797 66.8618C49.0329 67.6118 49.5019 68.2669 50.1357 68.732C50.7696 69.1971 51.5353 69.4479 52.3215 69.4479C53.1077 69.4479 53.8734 69.1971 54.5073 68.732C55.1412 68.2669 55.6102 67.6118 55.8461 66.8618C56.082 66.1118 56.0725 65.3061 55.8191 64.5619C55.5656 63.8177 55.0814 63.1737 54.4367 62.7236L54.4435 62.6965Z" fill="#272727"/>
<path d="M79.4056 61.6187C80.0765 61.6227 80.7363 61.7911 81.3272 62.109C81.9181 62.4269 82.4222 62.8847 82.7953 63.4424L84.3003 63.0288C83.7974 61.8481 82.8967 60.8809 81.7549 60.2951C80.613 59.7094 79.3021 59.542 78.0497 59.8221C76.748 60.1119 75.5881 60.8467 74.7701 61.8998C73.9521 62.953 73.5271 64.2586 73.5684 65.5915H75.2904C75.324 64.5238 75.7727 63.5113 76.5412 62.7694C77.3097 62.0275 78.3374 61.6146 79.4056 61.6187Z" fill="#272727"/>
<path d="M77.3242 59.5171C77.9378 59.3284 78.574 59.2235 79.2157 59.2052C79.2157 58.073 78.8564 55.1375 76.3276 51.4834C76.0289 51.0494 75.8822 50.5287 75.9104 50.0026C75.9386 49.4765 76.1402 48.9746 76.4836 48.575C76.4986 48.5515 76.5199 48.5327 76.545 48.5207C76.5702 48.5087 76.5982 48.5041 76.6259 48.5072C76.9807 48.4922 77.317 48.3446 77.5681 48.0934C77.8192 47.8423 77.9668 47.5061 77.9818 47.1513V45.7954C77.9653 45.4411 77.8172 45.1057 77.5664 44.8549C77.3156 44.6042 76.9802 44.456 76.6259 44.4395H76.4632C73.9141 44.1412 72.9243 45.1174 72.5582 45.6666H72.0362C71.8025 45.6666 71.5783 45.7594 71.413 45.9247C71.2477 46.09 71.1549 46.3142 71.1549 46.5479C71.1549 46.7817 71.2477 47.0058 71.413 47.1711C71.5783 47.3364 71.8025 47.4293 72.0362 47.4293H72.3209C72.3629 47.8088 72.498 48.1721 72.7142 48.4868C73.2972 50.3919 74.009 63.2051 68.8092 63.2051C65.1483 63.2051 61.7043 62.1543 60.4433 58.7239C59.9145 57.2934 59.8331 54.8663 60.1518 54.2562C60.6196 53.3545 60.1518 49.6258 60.1518 49.6258C60.152 49.4517 60.0852 49.2842 59.9654 49.158C59.8455 49.0318 59.6816 48.9566 59.5077 48.9479H57.3044C56.8687 48.9239 56.4354 49.0263 56.0565 49.2428C55.6776 49.4593 55.3694 49.7806 55.1689 50.1682C54.6437 51.3532 54.1909 52.5689 53.813 53.8087V53.9308C53.4934 55.1158 53.2668 56.324 53.135 57.5442C53.138 57.5962 53.138 57.6482 53.135 57.7002C53.135 57.951 53.0944 58.2425 53.0944 58.2425C53.0469 58.8256 53.0198 59.4154 53.0198 60.0187C53.4822 60.1706 53.8832 60.4677 54.163 60.866C54.4428 61.2643 54.5863 61.7423 54.5723 62.2289V62.2967C55.1203 62.6588 55.5737 63.1469 55.8945 63.7201C56.2153 64.2933 56.3942 64.935 56.4163 65.5915H73.0803C73.0387 64.2569 73.4294 62.9446 74.1942 61.85C74.9589 60.7554 76.0568 59.9372 77.3242 59.5171Z" fill="#272727"/>
<path d="M99.4185 55.0968C99.466 55.3409 99.5134 55.585 99.5541 55.8358C99.5651 55.8945 99.5961 55.9475 99.6419 55.9858C99.6876 56.0241 99.7453 56.0454 99.805 56.046H99.8524C99.8849 56.0402 99.916 56.0281 99.9439 56.0104C99.9717 55.9926 99.9958 55.9695 100.015 55.9424C100.034 55.9154 100.047 55.8848 100.054 55.8525C100.061 55.8203 100.062 55.7869 100.056 55.7544C100.011 55.4968 99.9631 55.246 99.9134 55.0019C99.907 54.9686 99.8939 54.9369 99.875 54.9088C99.856 54.8807 99.8315 54.8567 99.803 54.8383C99.7744 54.82 99.7425 54.8076 99.709 54.8019C99.6756 54.7962 99.6413 54.7974 99.6083 54.8053C99.5766 54.8118 99.5465 54.8244 99.5197 54.8426C99.4929 54.8608 99.4701 54.8842 99.4524 54.9113C99.4347 54.9384 99.4226 54.9688 99.4168 55.0007C99.411 55.0325 99.4116 55.0652 99.4185 55.0968Z" fill="#272727"/>
<path d="M55.7656 46.8123C55.8075 46.8122 55.8486 46.8016 55.8853 46.7814C55.922 46.7613 55.9531 46.7323 55.9758 46.6971C56.2537 46.2903 56.5452 45.8835 56.8368 45.4903C56.8578 45.4645 56.8733 45.4346 56.8823 45.4025C56.8914 45.3704 56.8937 45.3368 56.8893 45.3038C56.8848 45.2708 56.8737 45.239 56.8565 45.2105C56.8393 45.1819 56.8164 45.1572 56.7893 45.1378C56.7357 45.0989 56.6692 45.0821 56.6035 45.0909C56.5379 45.0998 56.4782 45.1335 56.4368 45.1853C56.1317 45.5853 55.8402 45.9988 55.5554 46.4191C55.5187 46.4752 55.5052 46.5433 55.5178 46.6091C55.5305 46.675 55.5683 46.7333 55.6232 46.7717C55.6663 46.7975 55.7154 46.8116 55.7656 46.8123Z" fill="#272727"/>
<path d="M57.5824 44.4328C57.6548 44.4292 57.7229 44.3976 57.7723 44.3446C58.0909 43.9718 58.4502 43.6057 58.7756 43.2531C58.7988 43.2291 58.817 43.2007 58.8292 43.1697C58.8413 43.1386 58.8473 43.1054 58.8467 43.0721C58.846 43.0387 58.8388 43.0058 58.8255 42.9752C58.8121 42.9446 58.7929 42.917 58.7689 42.8938C58.7448 42.8707 58.7165 42.8525 58.6854 42.8403C58.6543 42.8281 58.6212 42.8222 58.5878 42.8228C58.5544 42.8234 58.5215 42.8306 58.4909 42.844C58.4603 42.8573 58.4327 42.8766 58.4095 42.9006C58.0638 43.2599 57.7316 43.6328 57.3858 44.0124C57.3406 44.0613 57.3154 44.1255 57.3154 44.1921C57.3154 44.2587 57.3406 44.3229 57.3858 44.3717C57.4127 44.3949 57.444 44.4123 57.4778 44.4227C57.5116 44.4332 57.5472 44.4367 57.5824 44.4328Z" fill="#272727"/>
<path d="M64.5586 38.8532C64.5988 38.8627 64.6405 38.8627 64.6807 38.8532C65.1146 38.6227 65.562 38.399 66.0366 38.1752C66.0977 38.1474 66.1452 38.0963 66.1688 38.0334C66.1923 37.9705 66.1898 37.9008 66.162 37.8396C66.1341 37.7785 66.0831 37.731 66.0202 37.7074C65.9572 37.6839 65.8875 37.6864 65.8264 37.7142C65.3722 37.9244 64.9112 38.1481 64.4705 38.3922C64.4122 38.4238 64.3687 38.4771 64.3497 38.5407C64.3306 38.6042 64.3375 38.6727 64.3688 38.7311C64.3891 38.7646 64.4168 38.7929 64.4497 38.8141C64.4825 38.8352 64.5198 38.8486 64.5586 38.8532Z" fill="#272727"/>
<path d="M70.1651 36.7176H70.2261C70.7006 36.6023 71.1888 36.5006 71.6701 36.4125C71.7362 36.4009 71.7952 36.3639 71.8344 36.3094C71.8737 36.255 71.8901 36.1874 71.8803 36.121C71.8746 36.0878 71.8623 36.056 71.8441 36.0277C71.8259 35.9993 71.8022 35.9749 71.7743 35.9559C71.7465 35.937 71.7151 35.9238 71.682 35.9172C71.649 35.9106 71.615 35.9107 71.582 35.9176C71.0871 36.0057 70.5922 36.1074 70.104 36.2295C70.0719 36.2374 70.0417 36.2516 70.0151 36.2712C69.9885 36.2909 69.9661 36.3156 69.9491 36.3439C69.9321 36.3723 69.9208 36.4037 69.916 36.4364C69.9112 36.4691 69.9129 36.5025 69.921 36.5345C69.9348 36.5882 69.9665 36.6356 70.0109 36.6689C70.0553 36.7022 70.1096 36.7193 70.1651 36.7176Z" fill="#272727"/>
<path d="M76.0701 36.0261C76.565 36.0261 77.0599 36.0261 77.5548 36.0804C77.6197 36.0806 77.6823 36.0562 77.7301 36.0122C77.7779 35.9682 77.8073 35.9078 77.8124 35.8431C77.8144 35.7763 77.7911 35.7111 77.7471 35.6608C77.7031 35.6105 77.6416 35.5787 77.5751 35.5719C77.0734 35.5719 76.565 35.5244 76.0633 35.5177C76.0298 35.5168 75.9964 35.5226 75.9652 35.5348C75.934 35.547 75.9055 35.5653 75.8815 35.5887C75.8575 35.6121 75.8384 35.64 75.8254 35.6709C75.8124 35.7018 75.8057 35.735 75.8057 35.7685C75.8057 35.8029 75.8125 35.837 75.8259 35.8687C75.8393 35.9004 75.8589 35.9291 75.8835 35.9531C75.9081 35.9771 75.9373 35.996 75.9694 36.0085C76.0014 36.021 76.0357 36.027 76.0701 36.0261Z" fill="#272727"/>
<path d="M59.6706 42.2903C59.7019 42.2908 59.733 42.285 59.7621 42.2734C59.7912 42.2618 59.8177 42.2445 59.8401 42.2226C60.2061 41.8971 60.5858 41.5446 60.9722 41.2666C61.0163 41.2218 61.0424 41.1623 61.0456 41.0995C61.0488 41.0367 61.029 40.9749 60.9898 40.9257C60.9506 40.8765 60.8948 40.8434 60.8329 40.8325C60.771 40.8216 60.7072 40.8338 60.6536 40.8667C60.2604 41.1853 59.874 41.5107 59.5011 41.8497C59.4558 41.8986 59.4307 41.9627 59.4307 42.0293C59.4307 42.096 59.4558 42.1601 59.5011 42.209C59.5457 42.256 59.606 42.2849 59.6706 42.2903Z" fill="#272727"/>
<path d="M79.0259 36.2228C79.514 36.2838 80.0089 36.3652 80.4903 36.4601H80.5377C80.5968 36.4611 80.6544 36.4413 80.7002 36.4041C80.7461 36.3669 80.7774 36.3147 80.7886 36.2567C80.8005 36.1902 80.7859 36.1217 80.7479 36.0659C80.7098 36.0102 80.6514 35.9715 80.5852 35.9584C80.0903 35.8635 79.5886 35.7889 79.0937 35.7211C79.0277 35.715 78.9618 35.7339 78.909 35.7741C78.8563 35.8142 78.8206 35.8728 78.809 35.938C78.8042 35.971 78.8061 36.0046 78.8144 36.0369C78.8228 36.0691 78.8375 36.0994 78.8577 36.1259C78.8779 36.1524 78.9032 36.1747 78.9321 36.1913C78.9609 36.2079 78.9929 36.2186 79.0259 36.2228Z" fill="#272727"/>
<path d="M67.284 37.6125H67.3789C67.8332 37.4362 68.301 37.2735 68.7755 37.1243C68.8399 37.104 68.8937 37.0592 68.9254 36.9997C68.9571 36.9401 68.9641 36.8704 68.945 36.8057C68.9233 36.7426 68.878 36.6904 68.8185 36.66C68.7591 36.6297 68.6902 36.6236 68.6264 36.643C68.145 36.7921 67.6637 36.9616 67.1959 37.1379C67.1391 37.1573 67.0912 37.1964 67.0607 37.2481C67.0303 37.2999 67.0195 37.3608 67.0301 37.4199C67.0408 37.4789 67.0723 37.5322 67.1189 37.57C67.1654 37.6078 67.224 37.6277 67.284 37.626V37.6125Z" fill="#272727"/>
<path d="M62.0297 40.4193C62.0801 40.4196 62.1295 40.4055 62.1721 40.3787C62.5721 40.0939 62.9924 39.8227 63.4127 39.5583C63.4408 39.541 63.4652 39.5183 63.4845 39.4915C63.5038 39.4648 63.5176 39.4345 63.5251 39.4023C63.5327 39.3702 63.5338 39.3369 63.5285 39.3044C63.5232 39.2718 63.5115 39.2406 63.4941 39.2126C63.4768 39.1845 63.4541 39.1601 63.4273 39.1408C63.4005 39.1216 63.3702 39.1077 63.3381 39.1002C63.306 39.0926 63.2727 39.0915 63.2401 39.0968C63.2076 39.1021 63.1764 39.1138 63.1483 39.1312C62.7144 39.3956 62.2941 39.6736 61.8806 39.9583C61.853 39.9779 61.8295 40.0027 61.8115 40.0314C61.7935 40.0601 61.7813 40.092 61.7756 40.1253C61.7699 40.1587 61.7709 40.1929 61.7784 40.2259C61.786 40.2589 61.8 40.2901 61.8196 40.3176C61.8445 40.3496 61.8764 40.3753 61.9128 40.3929C61.9492 40.4106 61.9892 40.4196 62.0297 40.4193Z" fill="#272727"/>
<path d="M54.1452 49.3681C54.1831 49.3768 54.2225 49.3768 54.2604 49.3681C54.3081 49.3674 54.3547 49.3538 54.3953 49.3287C54.4359 49.3037 54.4689 49.2681 54.4909 49.2258C54.7079 48.7919 54.9451 48.3512 55.1689 47.9241C55.2021 47.8657 55.2108 47.7964 55.193 47.7316C55.1752 47.6667 55.1324 47.6116 55.0739 47.5784C55.0155 47.5451 54.9463 47.5364 54.8814 47.5542C54.8166 47.572 54.7615 47.6148 54.7282 47.6733C54.4773 48.1072 54.2333 48.5546 54.0096 49.0292C53.9961 49.0603 53.989 49.0938 53.9885 49.1277C53.9881 49.1617 53.9944 49.1953 54.007 49.2268C54.0195 49.2583 54.0382 49.287 54.062 49.3113C54.0857 49.3355 54.1139 49.3548 54.1452 49.3681Z" fill="#272727"/>
<path d="M73.087 36.1888H73.1209C73.609 36.1346 74.1039 36.0871 74.5921 36.06C74.6586 36.06 74.7224 36.0336 74.7694 35.9866C74.8165 35.9395 74.8429 35.8757 74.8429 35.8092C74.8429 35.7427 74.8165 35.6789 74.7694 35.6318C74.7224 35.5848 74.6586 35.5583 74.5921 35.5583C74.0904 35.5583 73.5887 35.6261 73.087 35.6872C73.0205 35.6872 72.9567 35.7136 72.9096 35.7606C72.8626 35.8077 72.8362 35.8715 72.8362 35.938C72.8362 36.0045 72.8626 36.0683 72.9096 36.1154C72.9567 36.1624 73.0205 36.1888 73.087 36.1888Z" fill="#272727"/>
<path d="M95.1883 45.7073C95.2121 45.7387 95.2429 45.7642 95.2781 45.7818C95.3134 45.7995 95.3522 45.8088 95.3917 45.809C95.4454 45.8111 95.4981 45.7943 95.5408 45.7616C95.5676 45.7421 95.5904 45.7175 95.6077 45.6892C95.625 45.6609 95.6365 45.6294 95.6415 45.5966C95.6465 45.5638 95.645 45.5304 95.637 45.4982C95.6291 45.466 95.6148 45.4357 95.595 45.409C95.2967 45.0091 94.9849 44.6091 94.6595 44.2226C94.6114 44.1758 94.5469 44.1497 94.4798 44.1497C94.4127 44.1497 94.3482 44.1758 94.3002 44.2226C94.2762 44.246 94.2571 44.2739 94.2441 44.3048C94.2311 44.3357 94.2244 44.3688 94.2244 44.4023C94.2244 44.4358 94.2311 44.4689 94.2441 44.4998C94.2571 44.5306 94.2762 44.5586 94.3002 44.582C94.5713 44.9277 94.9035 45.3209 95.1883 45.7073Z" fill="#272727"/>
<path d="M53.0062 52.1274H53.0875C53.1403 52.1296 53.1923 52.1141 53.2353 52.0834C53.2782 52.0527 53.3097 52.0085 53.3248 51.9579C53.4943 51.4969 53.6705 51.0359 53.8672 50.602C53.8801 50.5713 53.8868 50.5383 53.887 50.505C53.8871 50.4717 53.8807 50.4387 53.8682 50.4078C53.8556 50.377 53.837 50.3489 53.8136 50.3252C53.7901 50.3016 53.7623 50.2827 53.7316 50.2698C53.7008 50.2569 53.6679 50.2502 53.6346 50.25C53.6013 50.2498 53.5682 50.2562 53.5374 50.2688C53.5065 50.2814 53.4785 50.2999 53.4548 50.3234C53.4311 50.3468 53.4123 50.3747 53.3994 50.4054C53.2005 50.8574 53.0175 51.3252 52.8502 51.8088C52.8287 51.8717 52.833 51.9406 52.8622 52.0004C52.8914 52.0601 52.9432 52.1058 53.0062 52.1274Z" fill="#272727"/>
<path d="M93.2765 43.443C93.3244 43.493 93.3902 43.5222 93.4595 43.5243C93.4924 43.5244 93.525 43.5178 93.5553 43.505C93.5855 43.4922 93.6129 43.4734 93.6358 43.4497C93.6596 43.4269 93.6785 43.3996 93.6914 43.3693C93.7044 43.339 93.711 43.3064 93.711 43.2735C93.711 43.2405 93.7044 43.2079 93.6914 43.1776C93.6785 43.1473 93.6596 43.12 93.6358 43.0972C93.2968 42.7379 92.9578 42.3786 92.5578 42.0328C92.5109 41.9865 92.4476 41.9604 92.3816 41.9604C92.3156 41.9604 92.2523 41.9865 92.2053 42.0328C92.1585 42.0809 92.1323 42.1454 92.1323 42.2125C92.1323 42.2796 92.1585 42.344 92.2053 42.3921C92.5917 42.7447 92.9443 43.0904 93.2765 43.443Z" fill="#272727"/>
<path d="M98.1102 50.8462C98.1289 50.8921 98.1608 50.9313 98.2018 50.9591C98.2428 50.9868 98.2911 51.0018 98.3407 51.0021C98.3719 51.0092 98.4043 51.0092 98.4356 51.0021C98.497 50.9752 98.5459 50.9259 98.5724 50.8642C98.5988 50.8025 98.6008 50.733 98.5779 50.6699C98.3813 50.2089 98.1712 49.7412 97.9542 49.3141C97.9249 49.2534 97.873 49.2067 97.8096 49.1839C97.7463 49.1611 97.6765 49.164 97.6153 49.192C97.5852 49.2065 97.5584 49.2268 97.5362 49.2517C97.5141 49.2767 97.4972 49.3058 97.4865 49.3373C97.4758 49.3689 97.4714 49.4023 97.4738 49.4355C97.4761 49.4688 97.485 49.5012 97.5 49.531C97.7169 49.9445 97.9203 50.3988 98.1102 50.8462Z" fill="#272727"/>
<path d="M99.0661 53.6528C99.0808 53.7066 99.1125 53.7542 99.1565 53.7884C99.2005 53.8226 99.2544 53.8417 99.3102 53.8426H99.378C99.4099 53.8348 99.44 53.8206 99.4663 53.8008C99.4926 53.7811 99.5147 53.7562 99.5312 53.7277C99.5476 53.6992 99.5582 53.6676 99.5621 53.635C99.5661 53.6023 99.5634 53.5692 99.5542 53.5376C99.4254 53.0494 99.2763 52.5681 99.1136 52.0867C99.0905 52.0233 99.0436 51.9714 98.9827 51.9423C98.9219 51.9131 98.852 51.909 98.7881 51.9308C98.7252 51.9524 98.6734 51.9981 98.6442 52.0578C98.6149 52.1176 98.6106 52.1865 98.6322 52.2494C98.7881 52.7037 98.9373 53.1782 99.0661 53.6528Z" fill="#272727"/>
<path d="M91.107 41.4361C91.1541 41.4709 91.2111 41.4899 91.2697 41.4904C91.3073 41.489 91.3441 41.4799 91.378 41.4636C91.4118 41.4472 91.4419 41.424 91.4663 41.3955C91.506 41.3427 91.5239 41.2767 91.5163 41.2111C91.5088 41.1455 91.4763 41.0853 91.4256 41.0429C91.0392 40.7243 90.6324 40.4124 90.2256 40.1209C90.1708 40.0823 90.1029 40.067 90.0367 40.0784C89.9706 40.0899 89.9118 40.1271 89.8731 40.1819C89.8345 40.2368 89.8192 40.3047 89.8306 40.3708C89.8421 40.4369 89.8793 40.4958 89.9341 40.5345C90.3273 40.8192 90.7273 41.1243 91.107 41.4361Z" fill="#272727"/>
<path d="M96.8086 48.1886C96.8302 48.2273 96.8616 48.2596 96.8997 48.2822C96.9378 48.3049 96.9812 48.317 97.0256 48.3174C97.0679 48.3275 97.112 48.3275 97.1544 48.3174C97.1836 48.3012 97.2092 48.2793 97.2299 48.2531C97.2505 48.2268 97.2657 48.1967 97.2745 48.1645C97.2834 48.1323 97.2857 48.0986 97.2814 48.0655C97.277 48.0324 97.2661 48.0005 97.2493 47.9716C96.9984 47.5378 96.734 47.1039 96.4629 46.6835C96.445 46.6551 96.4216 46.6305 96.394 46.6113C96.3664 46.592 96.3353 46.5785 96.3024 46.5716C96.2695 46.5646 96.2356 46.5644 96.2026 46.5708C96.1696 46.5772 96.1382 46.5902 96.1103 46.609C96.0547 46.6451 96.0157 46.7017 96.0017 46.7665C95.9878 46.8312 96 46.8989 96.0358 46.9547C96.3069 47.3344 96.5646 47.7615 96.8086 48.1886Z" fill="#272727"/>
<path d="M52.2064 55.0088H52.2606C52.3184 55.0089 52.3746 54.9896 52.4201 54.9539C52.4656 54.9182 52.4978 54.8683 52.5115 54.8122C52.62 54.3308 52.742 53.8495 52.8776 53.3749C52.8944 53.3102 52.8854 53.2415 52.8525 53.1833C52.8196 53.1251 52.7654 53.082 52.7013 53.063C52.6693 53.0538 52.6357 53.051 52.6025 53.0549C52.5694 53.0588 52.5374 53.0693 52.5084 53.0857C52.4793 53.1021 52.4538 53.1241 52.4334 53.1505C52.413 53.1769 52.3981 53.2071 52.3894 53.2393C52.2471 53.7207 52.125 54.2088 52.0166 54.7037C52.0086 54.7362 52.0071 54.77 52.0124 54.8031C52.0176 54.8361 52.0294 54.8678 52.0471 54.8963C52.0648 54.9247 52.088 54.9493 52.1154 54.9686C52.1427 54.9879 52.1737 55.0016 52.2064 55.0088Z" fill="#272727"/>
<path d="M51.7792 57.9714C51.8428 57.9733 51.9046 57.9502 51.9515 57.9072C51.9983 57.8641 52.0265 57.8045 52.03 57.7409C52.0775 57.2528 52.1385 56.7579 52.2131 56.2766C52.2193 56.2437 52.2188 56.2099 52.2118 56.1773C52.2047 56.1446 52.1912 56.1136 52.1721 56.0862C52.1529 56.0588 52.1284 56.0356 52.1001 56.0178C52.0718 56 52.0402 55.988 52.0072 55.9826C51.9742 55.9771 51.9405 55.9784 51.908 55.9862C51.8755 55.994 51.8449 56.0082 51.8179 56.028C51.791 56.0478 51.7683 56.0728 51.7512 56.1015C51.734 56.1302 51.7228 56.1621 51.7181 56.1952C51.6368 56.6901 51.5758 57.1918 51.5283 57.6935C51.5245 57.7286 51.5282 57.7642 51.539 57.7978C51.5499 57.8314 51.5678 57.8624 51.5915 57.8886C51.6152 57.9149 51.6441 57.9358 51.6765 57.9501C51.7088 57.9644 51.7438 57.9716 51.7792 57.9714Z" fill="#272727"/>
<path d="M84.748 37.7008C85.209 37.877 85.6632 38.0736 86.1039 38.2838C86.1375 38.2899 86.1719 38.2899 86.2056 38.2838C86.2631 38.2824 86.3184 38.2617 86.3628 38.2252C86.4072 38.1886 86.4382 38.1383 86.4506 38.0821C86.4631 38.026 86.4564 37.9673 86.4317 37.9154C86.4069 37.8635 86.3655 37.8213 86.314 37.7957C85.8598 37.5855 85.392 37.3821 84.9581 37.1991C84.8952 37.1745 84.825 37.1756 84.7629 37.2022C84.7007 37.2289 84.6516 37.2789 84.6259 37.3414C84.6098 37.3729 84.6002 37.4074 84.5976 37.4427C84.5951 37.4779 84.5996 37.5134 84.611 37.5469C84.6223 37.5804 84.6403 37.6113 84.6639 37.6377C84.6874 37.6641 84.716 37.6856 84.748 37.7008Z" fill="#272727"/>
<path d="M87.4259 38.9548C87.853 39.1853 88.2869 39.4362 88.7072 39.7074C88.7497 39.7165 88.7936 39.7165 88.836 39.7074C88.892 39.7096 88.9472 39.693 88.9927 39.6602C89.0381 39.6275 89.0713 39.5804 89.0869 39.5266C89.1026 39.4727 89.0997 39.4152 89.0788 39.3632C89.0579 39.3112 89.0201 39.2677 88.9716 39.2396C88.5445 38.9752 88.1038 38.7108 87.6699 38.4735C87.6105 38.4419 87.5409 38.4348 87.4763 38.4538C87.4117 38.4728 87.3571 38.5164 87.3242 38.5752C87.304 38.6063 87.2906 38.6412 87.2848 38.6779C87.279 38.7145 87.2809 38.7519 87.2905 38.7877C87.3001 38.8235 87.3171 38.8568 87.3404 38.8856C87.3637 38.9144 87.3929 38.938 87.4259 38.9548Z" fill="#272727"/>
<path d="M81.9343 36.7856C82.4156 36.9077 82.8902 37.0433 83.358 37.1992H83.4325C83.4857 37.1996 83.5378 37.1835 83.5815 37.1532C83.6252 37.1228 83.6584 37.0797 83.6766 37.0297C83.6871 36.9981 83.6913 36.9647 83.6888 36.9315C83.6863 36.8983 83.6772 36.8659 83.662 36.8363C83.6469 36.8066 83.626 36.7803 83.6006 36.7588C83.5751 36.7373 83.5457 36.7211 83.5139 36.7111C83.0393 36.5551 82.5512 36.4128 82.0631 36.284C81.9975 36.2674 81.928 36.2773 81.8696 36.3116C81.8113 36.3458 81.7687 36.4016 81.7512 36.467C81.742 36.4999 81.7394 36.5344 81.7437 36.5683C81.7479 36.6023 81.7589 36.635 81.7759 36.6647C81.793 36.6944 81.8158 36.7203 81.8429 36.7411C81.8701 36.7619 81.9012 36.777 81.9343 36.7856Z" fill="#272727"/>
<path d="M51.6911 60.2629C51.7247 60.2638 51.758 60.258 51.7892 60.2458C51.8204 60.2336 51.8489 60.2153 51.8729 60.1919C51.8969 60.1685 51.916 60.1406 51.929 60.1097C51.9421 60.0788 51.9488 60.0456 51.9488 60.0121V59.7002C51.9488 59.5579 51.9488 59.4087 51.9488 59.2596C51.9497 59.2266 51.9441 59.1938 51.9323 59.1631C51.9205 59.1323 51.9028 59.1041 51.8801 59.0802C51.8575 59.0563 51.8303 59.037 51.8002 59.0236C51.7701 59.0102 51.7376 59.0028 51.7047 59.002C51.6393 59.0019 51.5765 59.0274 51.5297 59.073C51.4828 59.1186 51.4556 59.1807 51.4539 59.246C51.4539 59.3952 51.4539 59.5443 51.4539 59.6935V60.0121C51.4538 60.0763 51.4783 60.1382 51.5225 60.1848C51.5666 60.2315 51.627 60.2595 51.6911 60.2629Z" fill="#272727"/>
<path d="M98.7069 63.1847C99.1407 63.9034 99.595 64.6017 100.063 65.2864L100.347 65.6864C101.064 64.7424 101.725 63.7578 102.327 62.7373C102.911 61.975 103.277 61.068 103.385 60.1136C103.385 59.3243 103.071 58.5673 102.513 58.0092C101.955 57.451 101.198 57.1375 100.409 57.1375C99.6192 57.1375 98.8622 57.451 98.304 58.0092C97.7459 58.5673 97.4323 59.3243 97.4323 60.1136C97.4233 60.2265 97.4233 60.3398 97.4323 60.4526C97.6888 61.4328 98.1206 62.3584 98.7069 63.1847Z" fill="#272727"/>
<path d="M63.2297 83.5233C62.9378 83.5261 62.6488 83.4659 62.3822 83.3471C62.1255 83.235 61.8947 83.0711 61.7043 82.8657C61.5157 82.6698 61.3661 82.4397 61.2636 82.1878C61.1538 81.9165 61.0986 81.6262 61.1009 81.3336C61.0979 80.9561 61.1937 80.5845 61.3789 80.2556C61.5536 79.93 61.8137 79.6581 62.1314 79.4692C62.4621 79.2742 62.839 79.1714 63.2229 79.1714C63.6068 79.1714 63.9837 79.2742 64.3144 79.4692C64.6213 79.6649 64.8733 79.9355 65.0466 80.2556C65.2279 80.5833 65.3213 80.9523 65.3177 81.3268V81.4556C65.3216 81.4871 65.3216 81.519 65.3177 81.5505H61.6907C61.7111 81.833 61.7969 82.1069 61.9416 82.3505C62.0824 82.5796 62.2752 82.7723 62.5042 82.9132C62.732 83.048 62.9921 83.1183 63.2568 83.1166C63.533 83.1184 63.8047 83.0458 64.0432 82.9064C64.2724 82.7841 64.4538 82.5883 64.5584 82.3505L65.0398 82.4861C64.9468 82.6934 64.8104 82.8784 64.6398 83.0284C64.4573 83.1961 64.2428 83.3252 64.0093 83.4081C63.7583 83.4925 63.4943 83.5315 63.2297 83.5233ZM61.6636 81.1302H64.7957C64.7819 80.8453 64.6981 80.5682 64.5517 80.3234C64.412 80.0987 64.2186 79.9123 63.989 79.7811C63.7582 79.6483 63.4958 79.5804 63.2297 79.5844C62.9633 79.5794 62.7007 79.6474 62.4703 79.7811C62.2395 79.9114 62.0476 80.101 61.9144 80.3302C61.7659 80.572 61.6798 80.8469 61.6636 81.1302Z" fill="#272727"/>
<path d="M66.1653 83.442V77.6659H68.1313C68.6684 77.6465 69.1999 77.7805 69.6635 78.0523C70.0665 78.2994 70.3874 78.6604 70.5855 79.0896C70.8 79.5576 70.911 80.0663 70.911 80.5811C70.911 81.0959 70.8 81.6046 70.5855 82.0726C70.3729 82.4958 70.0404 82.8471 69.6296 83.0827C69.1791 83.3291 68.6718 83.453 68.1584 83.442H66.1653ZM70.3211 80.5404C70.3279 80.1173 70.2399 79.698 70.0635 79.3133C69.9027 78.9661 69.6433 78.6738 69.3177 78.4727C68.9572 78.2593 68.5432 78.1534 68.1246 78.1676H66.7348V82.9132H68.1313C68.5563 82.9296 68.9765 82.8186 69.3381 82.5946C69.6601 82.3853 69.9163 82.0892 70.077 81.7404C70.2451 81.363 70.3284 80.9534 70.3211 80.5404Z" fill="#272727"/>
<path d="M73.6158 83.5234C73.3292 83.5238 73.0458 83.4636 72.7841 83.3467C72.5224 83.2299 72.2883 83.0591 72.0972 82.8454C71.9087 82.6481 71.7571 82.4185 71.6498 82.1675C71.5454 81.8948 71.4925 81.6052 71.4939 81.3133C71.4885 80.9364 71.582 80.5648 71.765 80.2353C71.9422 79.9115 72.2018 79.6402 72.5176 79.4489C72.8459 79.2482 73.2243 79.1448 73.6091 79.1506C73.9938 79.1448 74.3723 79.2482 74.7006 79.4489C75.0131 79.6465 75.2695 79.9212 75.4452 80.2465C75.6209 80.5718 75.71 80.9368 75.7039 81.3065V81.4353C75.7078 81.4668 75.7078 81.4987 75.7039 81.5302H72.0769C72.0996 81.8133 72.1878 82.0871 72.3345 82.3302C72.4735 82.5608 72.6667 82.7539 72.8972 82.8929C73.1249 83.0277 73.3851 83.0981 73.6497 83.0963C73.9237 83.0972 74.193 83.0246 74.4294 82.8861C74.6601 82.7637 74.8437 82.5682 74.9514 82.3302L75.426 82.4658C75.3355 82.6728 75.2014 82.8578 75.0328 83.0081C74.8482 83.173 74.6343 83.3018 74.4023 83.3878C74.1502 83.4791 73.8839 83.525 73.6158 83.5234ZM72.0566 81.1302H75.1887C75.1694 80.8454 75.0834 80.5691 74.9378 80.3235C74.8001 80.0973 74.6063 79.9105 74.3752 79.7811C74.1428 79.6523 73.8815 79.5847 73.6158 79.5847C73.3502 79.5847 73.0889 79.6523 72.8565 79.7811C72.6271 79.9133 72.4356 80.1024 72.3006 80.3303C72.1542 80.5726 72.0704 80.8475 72.0566 81.1302Z" fill="#272727"/>
<path d="M76.5041 77.5032H77.06V82.5064C77.0393 82.6554 77.0783 82.8065 77.1685 82.9268C77.2461 82.9919 77.3452 83.0258 77.4465 83.0217C77.5434 83.0321 77.6411 83.0321 77.738 83.0217L77.9956 82.9539L78.0905 83.4013C77.9679 83.45 77.8407 83.4863 77.7109 83.5098C77.5835 83.5347 77.4542 83.5483 77.3244 83.5505C77.215 83.556 77.1055 83.539 77.0029 83.5006C76.9003 83.4621 76.8066 83.4029 76.7278 83.3267C76.6518 83.2464 76.5928 83.1516 76.5543 83.0479C76.5159 82.9442 76.4988 82.8338 76.5041 82.7234V77.5032Z" fill="#272727"/>
<path d="M78.6123 78.3167V77.5032H79.1614V78.3167H78.6123ZM78.6123 83.442V79.198H79.1614V83.442H78.6123Z" fill="#272727"/>
<path d="M81.5614 83.4419L79.8462 79.2183H80.4225L81.8733 82.886L83.3308 79.2183H83.8732L82.158 83.4419H81.5614Z" fill="#272727"/>
<path d="M86.2394 83.5232C85.9498 83.5249 85.6632 83.4648 85.3987 83.3469C85.142 83.2349 84.9112 83.071 84.7208 82.8656C84.5322 82.6696 84.3826 82.4395 84.2801 82.1876C84.1566 81.877 84.1023 81.5433 84.121 81.2096C84.1398 80.8759 84.2311 80.5503 84.3886 80.2555C84.5657 79.9316 84.8253 79.6603 85.1411 79.4691C85.4694 79.2684 85.8479 79.1649 86.2326 79.1708C86.6196 79.1636 87.0006 79.2671 87.3309 79.4691C87.6378 79.6647 87.8897 79.9354 88.063 80.2555C88.2444 80.5831 88.3378 80.9522 88.3342 81.3266V81.4554C88.3342 81.4961 88.3342 81.5232 88.3342 81.5504H84.7004C84.7231 81.8334 84.8113 82.1073 84.958 82.3503C85.097 82.5809 85.2902 82.774 85.5207 82.913C85.7485 83.0479 86.0086 83.1182 86.2733 83.1164C86.5494 83.1175 86.8209 83.045 87.0597 82.9062C87.2889 82.7839 87.4703 82.5881 87.5749 82.3503L88.0563 82.4859C87.9609 82.6918 87.8248 82.8763 87.6563 83.0283C87.4738 83.1959 87.2593 83.325 87.0258 83.4079C86.7724 83.4923 86.5062 83.5313 86.2394 83.5232ZM84.6801 81.13H87.7919C87.7789 80.844 87.6925 80.5662 87.541 80.3233C87.4059 80.0974 87.2143 79.9105 86.9851 79.7809C86.7522 79.6473 86.4875 79.5794 86.219 79.5843C85.9549 79.5794 85.6945 79.6475 85.4665 79.7809C85.2357 79.9113 85.0438 80.1008 84.9106 80.33C84.7662 80.5724 84.6869 80.848 84.6801 81.13Z" fill="#272727"/>
<path d="M91.2221 79.686C90.8731 79.6918 90.5336 79.8002 90.2459 79.9979C89.9661 80.1948 89.7588 80.4783 89.6561 80.8046V83.4418H89.1069V79.2182H89.629V80.2148C89.7612 79.9329 89.9587 79.6865 90.2052 79.4962C90.4255 79.3167 90.6949 79.208 90.9781 79.1843H91.2221V79.686Z" fill="#272727"/>
</svg>
