<svg width="118" height="114" viewBox="0 0 118 114" fill="none" xmlns="http://www.w3.org/2000/svg">
<path d="M117.408 48.5818C85.9914 17.9401 43.9985 0.54684 0.116455 0V91.523C19.725 92.0749 38.4435 99.8293 52.6981 113.305L117.408 48.5818Z" fill="#E6EBED"/>
<path d="M35.2544 74.6692C34.9623 74.6743 34.6727 74.6141 34.4069 74.4929C34.1514 74.3819 33.9208 74.2205 33.729 74.0183C33.5418 73.8213 33.3924 73.5915 33.2883 73.3404C33.1685 73.0288 33.1168 72.6951 33.1367 72.3618C33.1566 72.0286 33.2476 71.7034 33.4036 71.4083C33.5828 71.0859 33.8419 70.8151 34.1561 70.6218C34.4851 70.4235 34.8635 70.3225 35.2476 70.3303C35.6329 70.3198 36.0127 70.4236 36.3391 70.6286C36.6479 70.8241 36.9021 71.0947 37.0781 71.415C37.255 71.7441 37.346 72.1126 37.3425 72.4862V72.6082C37.3467 72.6397 37.3467 72.6716 37.3425 72.7031H33.7154C33.7347 72.9889 33.8232 73.2658 33.9731 73.5099C34.1078 73.7396 34.2992 73.931 34.529 74.0658C34.7549 74.2057 35.0158 74.2786 35.2815 74.276C35.5573 74.2746 35.8282 74.2022 36.0679 74.0658C36.2984 73.9452 36.4804 73.7489 36.5832 73.5099L37.0645 73.6387C36.9735 73.8491 36.8369 74.0367 36.6645 74.1878C36.48 74.3511 36.266 74.4776 36.034 74.5607C35.7837 74.6473 35.5188 74.6841 35.2544 74.6692ZM33.6883 72.276H36.8204C36.8066 71.9933 36.7228 71.7184 36.5764 71.476C36.437 71.2494 36.2436 71.0608 36.0137 70.9269C35.7813 70.7981 35.52 70.7305 35.2544 70.7305C34.9887 70.7305 34.7274 70.7981 34.4951 70.9269C34.2686 71.0629 34.0779 71.2512 33.9392 71.476C33.7924 71.7187 33.7064 71.9931 33.6883 72.276Z" fill="#272727"/>
<path d="M38.1899 74.5743V68.8118H41.9797V69.3202H38.7594V71.4422H41.4712V71.91H38.7594V74.6218L38.1899 74.5743Z" fill="#272727"/>
<path d="M44.3254 74.669C44.031 74.675 43.7391 74.6147 43.4711 74.4928C43.215 74.3827 42.9843 74.2212 42.7932 74.0182C42.6066 73.822 42.4594 73.5919 42.3593 73.3403C42.2556 73.0769 42.2027 72.7962 42.2034 72.5132C42.2027 72.2235 42.2556 71.9362 42.3593 71.6657C42.4627 71.4143 42.6121 71.1843 42.8 70.9878C42.9904 70.7824 43.2212 70.6185 43.4779 70.5064C43.7429 70.3908 44.0295 70.3331 44.3186 70.3369C44.6055 70.3321 44.8901 70.39 45.1525 70.5064C45.4092 70.6185 45.64 70.7824 45.8304 70.9878C46.016 71.1861 46.1651 71.4156 46.2711 71.6657C46.3726 71.9366 46.4232 72.2239 46.4202 72.5132C46.4287 73.0788 46.2172 73.6257 45.8304 74.0385C45.6409 74.2434 45.4097 74.4052 45.1525 74.5131C44.8916 74.6254 44.6092 74.6787 44.3254 74.669ZM42.7796 72.4996C42.776 72.7968 42.8459 73.0902 42.983 73.3538C43.1145 73.5986 43.3057 73.8062 43.5389 73.9572C43.7714 74.1035 44.0405 74.1811 44.3152 74.1811C44.5899 74.1811 44.859 74.1035 45.0914 73.9572C45.3268 73.8029 45.5183 73.5904 45.6474 73.3403C45.7911 73.0761 45.8657 72.78 45.8643 72.4793C45.8658 72.1829 45.7911 71.891 45.6474 71.6318C45.5183 71.3817 45.3268 71.1692 45.0914 71.0149C44.8607 70.8676 44.5923 70.7899 44.3186 70.7912C44.0412 70.7865 43.7691 70.8669 43.5389 71.0217C43.2984 71.1844 43.1028 71.4051 42.9701 71.6634C42.8374 71.9217 42.7719 72.2093 42.7796 72.4996Z" fill="#272727"/>
<path d="M49.0847 74.6691C48.7981 74.6694 48.5147 74.6092 48.253 74.4924C47.9913 74.3756 47.7572 74.2047 47.5661 73.9911C47.3796 73.7949 47.2323 73.5648 47.1323 73.3132C47.0286 73.0498 46.9757 72.7691 46.9763 72.4861C46.9757 72.1964 47.0286 71.9091 47.1323 71.6386C47.2356 71.3872 47.3851 71.1573 47.5729 70.9607C47.7633 70.7553 47.9942 70.5914 48.2509 70.4793C48.5159 70.3637 48.8024 70.306 49.0915 70.3099C49.3785 70.305 49.6631 70.3629 49.9254 70.4793C50.1821 70.5914 50.4129 70.7553 50.6034 70.9607C50.789 71.1576 50.9362 71.3876 51.0372 71.6386C51.1441 71.9082 51.1971 72.1961 51.1932 72.4861C51.1935 73.0502 50.9831 73.5942 50.6034 74.0114C50.4139 74.2163 50.1827 74.3781 49.9254 74.486C49.6626 74.6097 49.3752 74.6722 49.0847 74.6691ZM47.539 72.4996C47.5354 72.7968 47.6053 73.0902 47.7424 73.3538C47.8743 73.6005 48.0682 73.8085 48.3051 73.9572C48.535 74.1064 48.8039 74.1842 49.078 74.1809C49.3517 74.1822 49.6201 74.1045 49.8508 73.9572C50.0846 73.8011 50.2757 73.589 50.4067 73.3403C50.5505 73.0762 50.6251 72.78 50.6237 72.4793C50.6252 72.1829 50.5505 71.8911 50.4067 71.6319C50.2757 71.3831 50.0846 71.1711 49.8508 71.0149C49.6201 70.8676 49.3517 70.7899 49.078 70.7912C48.8029 70.7879 48.5334 70.8683 48.3051 71.0217C48.0707 71.1791 47.8776 71.3907 47.7424 71.6386C47.6044 71.9044 47.5345 72.2002 47.539 72.4996Z" fill="#272727"/>
<path d="M51.7422 72.4929C51.7367 72.112 51.8227 71.7353 51.993 71.3946C52.1462 71.0758 52.3799 70.8024 52.671 70.6014C52.9662 70.3999 53.317 70.2956 53.6743 70.3031C54.0092 70.2995 54.3374 70.3963 54.6167 70.5811C54.8922 70.7514 55.1243 70.9835 55.2946 71.259V68.6489H55.8506V73.8962C55.8444 73.9546 55.8615 74.013 55.898 74.0589C55.9155 74.0793 55.9375 74.0954 55.9621 74.1059C55.9868 74.1165 56.0136 74.1213 56.0404 74.12V74.5742C55.957 74.5825 55.8729 74.5825 55.7895 74.5742C55.6754 74.5672 55.5684 74.5162 55.4912 74.4318C55.4515 74.3957 55.4195 74.3518 55.3973 74.3028C55.3752 74.2538 55.3633 74.2008 55.3624 74.1471V73.7335C55.1992 74.0146 54.9655 74.2482 54.6845 74.4115C54.4123 74.5689 54.104 74.653 53.7896 74.6555C53.5088 74.6568 53.2311 74.5967 52.9761 74.4793C52.7321 74.3625 52.5151 74.1962 52.3388 73.9912C51.966 73.5761 51.7606 73.0373 51.7625 72.4793L51.7422 72.4929ZM55.2811 73.1369V71.8624C55.211 71.662 55.0949 71.4809 54.9421 71.3336C54.7897 71.1737 54.6078 71.0448 54.4065 70.9539C54.1257 70.8125 53.8045 70.773 53.4978 70.8422C53.1911 70.9115 52.918 71.0852 52.7252 71.3336C52.5899 71.4959 52.4864 71.6821 52.4201 71.8827C52.347 72.0848 52.3102 72.2983 52.3117 72.5132C52.3109 72.7337 52.3523 72.9523 52.4337 73.1573C52.505 73.3586 52.6162 73.5434 52.7607 73.7006C52.9051 73.8579 53.0799 73.9844 53.2744 74.0725C53.4679 74.1606 53.6787 74.2045 53.8913 74.2013C54.0417 74.1988 54.1906 74.1713 54.332 74.12C54.485 74.0631 54.6307 73.988 54.7658 73.8962C54.8999 73.8069 55.017 73.6944 55.1116 73.564C55.2046 73.439 55.263 73.2917 55.2811 73.1369Z" fill="#272727"/>
<path d="M63.4639 45.0497C62.8442 44.1903 62.0567 43.4654 61.149 42.9189C60.2413 42.3724 59.2321 42.0156 58.1826 41.8702H51.0574C50.853 41.0703 50.8187 40.2365 50.9568 39.4225C51.095 38.6086 51.4025 37.8328 51.8594 37.1452C52.3163 36.4576 52.9124 35.8736 53.6093 35.4309C54.3061 34.9882 55.0882 34.6968 55.9047 34.5754C55.9961 34.5648 56.0843 34.5356 56.164 34.4898C56.2437 34.444 56.3133 34.3824 56.3685 34.3088C56.4236 34.2353 56.4633 34.1512 56.4849 34.0619C56.5066 33.9725 56.5099 33.8797 56.4946 33.789C56.484 33.697 56.4546 33.6081 56.4084 33.5279C56.3621 33.4476 56.2999 33.3777 56.2256 33.3225C56.1512 33.2672 56.0664 33.2277 55.9762 33.2065C55.8861 33.1853 55.7925 33.1828 55.7013 33.1992C53.9434 33.4836 52.3486 34.3967 51.2133 35.7686C50.7103 34.723 49.9335 33.8331 48.9655 33.1933C47.9975 32.5535 46.8743 32.1878 45.7152 32.1348H45.383C44.5961 32.1272 43.8147 32.2651 43.078 32.5416L42.983 32.5958L42.8949 32.6568L42.8203 32.7382L42.7593 32.8263C42.7407 32.8588 42.7248 32.8929 42.7119 32.928C42.7119 32.928 42.7119 32.9958 42.678 33.0297C42.5268 33.9389 42.6171 34.8718 42.9398 35.7351C43.2626 36.5984 43.8064 37.3617 44.517 37.9487C45.2276 38.5357 46.0799 38.9257 46.9886 39.0797C47.8972 39.2337 48.8305 39.1463 49.6947 38.8262C49.4947 39.8036 49.4947 40.8114 49.6947 41.7888H44.5559L45.783 43.1447H58.1013C58.9523 43.2731 59.7694 43.5693 60.5049 44.0163C61.2405 44.4632 61.8799 45.0518 62.3859 45.748C63.3887 47.2889 63.8644 49.1135 63.7418 50.9479C63.6401 53.9919 62.3859 56.9545 60.9012 59.7612C60.3974 60.8469 59.7423 61.8557 58.9555 62.7577C58.2506 63.6526 57.2288 64.2424 56.1013 64.4051C55.779 64.4198 55.4563 64.3832 55.1454 64.2967C55.2789 64.6215 55.348 64.9692 55.3488 65.3204C55.3401 65.4691 55.3174 65.6166 55.281 65.761C55.5764 65.7881 55.8737 65.7881 56.1691 65.761C57.6129 65.6182 58.9495 64.9354 59.9114 63.8492C60.7907 62.8532 61.5234 61.7369 62.0876 60.5341C63.5791 57.6392 64.9621 54.5003 65.0774 51.1038C65.2158 48.9637 64.649 46.8371 63.4639 45.0497ZM47.2609 37.7957C46.3048 37.6488 45.4378 37.1504 44.8297 36.3981C44.2216 35.6458 43.9161 34.6937 43.9729 33.728C44.4531 33.5893 44.9509 33.5208 45.4508 33.5246C45.7419 33.5245 46.0325 33.5517 46.3185 33.606C47.2356 33.7782 48.0873 34.2005 48.7795 34.8263C49.4369 35.4291 49.9253 36.1934 50.1964 37.0432C49.3542 37.6686 48.3002 37.9388 47.2609 37.7957Z" fill="#272727"/>
<path d="M59.0708 51.1783V50.5003H50.1626L43.8102 43.3005L38.468 48.0462C37.8214 47.1316 36.9142 46.4331 35.8648 46.0418C34.8154 45.6504 33.6724 45.5844 32.5849 45.8522C31.4973 46.1201 30.5158 46.7094 29.7681 47.5434C29.0205 48.3774 28.5415 49.4172 28.3936 50.5275H24.0955V51.2054C24.0955 56.8595 27.5259 61.9712 32.8749 64.7101H30.5088C30.329 64.7101 30.1566 64.7816 30.0295 64.9087C29.9023 65.0358 29.8309 65.2083 29.8309 65.3881C29.8309 65.5679 29.9023 65.7403 30.0295 65.8675C30.1566 65.9946 30.329 66.066 30.5088 66.066H52.6642C52.844 66.066 53.0164 65.9946 53.1436 65.8675C53.2707 65.7403 53.3421 65.5679 53.3421 65.3881C53.3421 65.2083 53.2707 65.0358 53.1436 64.9087C53.0164 64.7816 52.844 64.7101 52.6642 64.7101H50.2914C55.6404 61.9373 59.0708 56.8256 59.0708 51.1783ZM43.6949 45.2056L48.3728 50.5071H39.4442C39.3902 50.0731 39.2832 49.6473 39.1256 49.2394L43.6949 45.2056ZM33.9189 47.0157C34.7068 47.0129 35.4797 47.2312 36.1496 47.6459C36.8196 48.0606 37.3597 48.655 37.7086 49.3614C37.8915 49.7223 38.0194 50.1085 38.0883 50.5071H29.7495C29.927 49.5297 30.4412 48.6452 31.2028 48.0074C31.9645 47.3696 32.9255 47.0187 33.9189 47.0157ZM46.7999 64.6423H46.6847H36.4545L36.3189 64.6017C30.0546 62.6899 25.7632 57.5985 25.4717 51.8088H57.7285C57.3963 57.6256 53.1116 62.7305 46.8203 64.6491L46.7999 64.6423Z" fill="#272727"/>
</svg>
