<svg width="118" height="115" viewBox="0 0 118 115" fill="none" xmlns="http://www.w3.org/2000/svg">
<path d="M0.0856934 65.5484C31.5013 96.1878 73.4912 113.581 117.371 114.13V22.6072C97.7602 22.055 79.0396 14.3008 64.7823 0.824707L0.0856934 65.5484Z" fill="#E6EBED"/>
<path d="M67.8671 85.0056C67.5805 85.006 67.297 84.9458 67.0353 84.8289C66.7736 84.7121 66.5395 84.5413 66.3485 84.3276C66.1599 84.1303 66.0083 83.9007 65.901 83.6497C65.7966 83.3771 65.7438 83.0874 65.7451 82.7955C65.7397 82.4186 65.8332 82.047 66.0163 81.7175C66.1925 81.3833 66.4584 81.1047 66.7841 80.9131C67.1098 80.7215 67.4825 80.6245 67.8603 80.6328C68.245 80.627 68.6235 80.7304 68.9518 80.9311C69.2606 81.1266 69.5148 81.3972 69.6907 81.7175C69.8677 82.0466 69.9587 82.4151 69.9551 82.7887V82.9175C69.9594 82.9467 69.9594 82.9764 69.9551 83.0056H66.3281C66.3498 83.291 66.438 83.5673 66.5857 83.8124C66.7247 84.043 66.9179 84.2361 67.1484 84.3751C67.3762 84.5099 67.6363 84.5803 67.901 84.5785C68.175 84.5794 68.4442 84.5068 68.6806 84.3683C68.9114 84.2459 69.095 84.0504 69.2026 83.8124L69.6772 83.9412C69.5888 84.1513 69.4544 84.339 69.284 84.4903C69.0976 84.6528 68.8842 84.7813 68.6535 84.87C68.4014 84.9614 68.1352 85.0073 67.8671 85.0056ZM66.3078 82.6192H69.4399C69.4216 82.3342 69.3356 82.0576 69.1891 81.8124C69.0513 81.5863 68.8575 81.3994 68.6264 81.2701C68.394 81.1413 68.1327 81.0737 67.8671 81.0737C67.6014 81.0737 67.3401 81.1413 67.1078 81.2701C66.88 81.4016 66.6889 81.588 66.5518 81.8124C66.4064 82.0577 66.3227 82.3345 66.3078 82.6192Z" fill="#272727"/>
<path d="M73.1619 84.9648C72.7907 84.9678 72.4239 84.8843 72.0907 84.7207C71.7628 84.5522 71.4705 84.322 71.2297 84.0428C70.9881 83.763 70.7955 83.4444 70.6602 83.1004C70.531 82.7557 70.4645 82.3906 70.4636 82.0225C70.4633 81.6432 70.5299 81.2668 70.6602 80.9106C70.7902 80.5711 70.9783 80.2568 71.2161 79.9819C71.4533 79.7133 71.7413 79.4944 72.0636 79.3378C72.396 79.1797 72.7598 79.0986 73.128 79.1005C73.6177 79.0817 74.1024 79.2041 74.5245 79.4531C74.8715 79.6784 75.1523 79.9919 75.3381 80.3615L74.8974 80.6598C74.7368 80.3269 74.4792 80.0503 74.1584 79.8666C73.8395 79.6966 73.4826 79.6102 73.1212 79.6158C72.8196 79.6116 72.5217 79.6814 72.2534 79.8192C71.9925 79.9513 71.7616 80.1359 71.5755 80.3615C71.3885 80.5908 71.246 80.8529 71.1551 81.1344C71.0607 81.4233 71.0126 81.7253 71.0128 82.0293C71.0046 82.6538 71.2266 83.2596 71.6365 83.7309C71.8271 83.9484 72.0571 84.1278 72.3144 84.2597C72.5794 84.3847 72.8688 84.4495 73.1619 84.4495C73.5135 84.4496 73.8593 84.3585 74.1652 84.1851C74.518 83.9753 74.8247 83.6963 75.0669 83.3648V83.9682C74.8462 84.2684 74.5598 84.5142 74.2297 84.6869C73.8995 84.8596 73.5343 84.9546 73.1619 84.9648ZM75.0194 82.5242H73.7313V82.0971H75.5008V84.9309H75.0194V82.5242Z" fill="#272727"/>
<path d="M78.314 85.0053C78.0274 85.0057 77.744 84.9455 77.4823 84.8287C77.2205 84.7118 76.9865 84.541 76.7954 84.3274C76.6105 84.1299 76.4634 83.9001 76.3615 83.6495C76.1536 83.1106 76.1536 82.5137 76.3615 81.9749C76.4641 81.723 76.6136 81.4929 76.8022 81.297C77.0979 80.9856 77.4825 80.7729 77.9035 80.688C78.3244 80.603 78.7614 80.65 79.1547 80.8224C79.41 80.9339 79.6404 81.0953 79.8326 81.297C80.0212 81.4929 80.1708 81.723 80.2733 81.9749C80.4812 82.5137 80.4812 83.1106 80.2733 83.6495C80.1714 83.9001 80.0243 84.1299 79.8394 84.3274C79.649 84.5328 79.4182 84.6967 79.1615 84.8087C78.8965 84.9346 78.6074 85.0017 78.314 85.0053ZM76.7683 82.8427C76.7628 83.1387 76.8353 83.431 76.9785 83.6901C77.1077 83.9383 77.2993 84.1485 77.5344 84.3003C77.7663 84.4442 78.0343 84.5194 78.3072 84.5172C78.5813 84.5205 78.8502 84.4426 79.0801 84.2935C79.3158 84.1376 79.5092 83.9256 79.6428 83.6766C79.7845 83.4119 79.8568 83.1157 79.853 82.8156C79.8566 82.5198 79.7842 82.228 79.6428 81.9681C79.5074 81.7204 79.3144 81.5088 79.0801 81.3512C78.8502 81.2021 78.5813 81.1242 78.3072 81.1275C78.0315 81.1261 77.7619 81.2089 77.5344 81.3648C77.3004 81.5207 77.1093 81.7328 76.9785 81.9817C76.825 82.2428 76.7432 82.5398 76.7412 82.8427H76.7683Z" fill="#272727"/>
<path d="M82.3412 84.9242L80.626 80.7412H81.2022L82.6463 84.4089L84.1038 80.7412H84.653L82.931 84.958L82.3412 84.9242Z" fill="#272727"/>
<path d="M58.7622 89.4189H56.7283V94.6865H56.1588V89.4189H54.125V88.9104H58.8164L58.7622 89.4189Z" fill="#272727"/>
<path d="M60.6469 90.9104C60.3001 90.9163 59.9627 91.0248 59.6775 91.2222C59.3939 91.4153 59.1856 91.7002 59.0877 92.029V94.6594H58.5317V90.4426H59.0538V91.4392C59.1879 91.1546 59.3877 90.906 59.6368 90.7138C59.8563 90.5384 60.1229 90.4322 60.4029 90.4087H60.6469V90.9104Z" fill="#272727"/>
<path d="M60.9043 93.48C60.9022 93.2344 60.9835 92.9954 61.1348 92.802C61.3016 92.5996 61.5192 92.4451 61.7653 92.3546C62.0629 92.2469 62.3776 92.194 62.6941 92.1986C62.9097 92.1981 63.125 92.2139 63.3382 92.2461C63.5418 92.2741 63.7419 92.3241 63.9348 92.3952V92.0359C63.9416 91.8805 63.9169 91.7253 63.8621 91.5796C63.8074 91.434 63.7237 91.3009 63.6161 91.1885C63.4986 91.0783 63.3598 90.9933 63.2083 90.9385C63.0567 90.8837 62.8956 90.8603 62.7348 90.8699C62.503 90.8725 62.2735 90.9161 62.0568 90.9987C61.817 91.0959 61.5894 91.221 61.3789 91.3715L61.1687 90.9783C61.4207 90.8021 61.6941 90.6585 61.9823 90.5512C62.2432 90.457 62.5184 90.4088 62.7958 90.4089C63.021 90.3969 63.2462 90.4303 63.4582 90.5072C63.6702 90.5841 63.8645 90.7028 64.0297 90.8563C64.1865 91.018 64.3079 91.2107 64.3862 91.422C64.4644 91.6332 64.4977 91.8585 64.4839 92.0834V94.0291C64.48 94.0904 64.4994 94.1509 64.5381 94.1986C64.5782 94.2373 64.6316 94.2592 64.6873 94.2596V94.6935H64.5381H64.4364C64.3793 94.695 64.3226 94.6843 64.2699 94.6621C64.2173 94.6399 64.1701 94.6067 64.1314 94.5647C64.063 94.4929 64.0221 94.3992 64.0161 94.3003V93.9952C63.8185 94.2422 63.5621 94.4356 63.2704 94.5579C62.9808 94.689 62.6663 94.756 62.3484 94.7545C62.0918 94.7597 61.838 94.7014 61.6094 94.585C61.3999 94.4766 61.2223 94.3153 61.0942 94.1172C60.9725 93.9268 60.9067 93.706 60.9043 93.48ZM63.7449 93.7986C63.8002 93.7317 63.8479 93.659 63.8873 93.5817C63.9141 93.524 63.9302 93.462 63.9348 93.3986V92.7817C63.7478 92.7123 63.5549 92.6601 63.3585 92.6257C63.1623 92.585 62.9623 92.5646 62.7619 92.5647C62.425 92.5508 62.0911 92.6331 61.7992 92.802C61.6865 92.8655 61.593 92.9582 61.5285 93.0703C61.4641 93.1825 61.4312 93.31 61.4331 93.4393C61.4325 93.5925 61.4748 93.7428 61.5552 93.8732C61.6416 94.017 61.7659 94.1342 61.9145 94.2121C62.085 94.3045 62.2765 94.3512 62.4704 94.3477C62.7275 94.3519 62.9822 94.2986 63.2161 94.1918C63.4235 94.1088 63.6057 93.9733 63.7449 93.7986Z" fill="#272727"/>
<path d="M69.1619 94.6866H68.6127V92.3341C68.6399 91.9588 68.5625 91.5833 68.389 91.2494C68.3169 91.1367 68.2161 91.0453 68.097 90.9845C67.9778 90.9238 67.8446 90.8958 67.7111 90.9037C67.4885 90.9048 67.2696 90.9607 67.0738 91.0664C66.8589 91.1688 66.6673 91.3143 66.511 91.4939C66.3547 91.6735 66.2371 91.8834 66.1653 92.1104V94.6866H65.6162V90.4698H66.1111V91.4325C66.2254 91.2256 66.3772 91.0417 66.5586 90.8901C66.7475 90.7364 66.9605 90.615 67.189 90.5308C67.4189 90.4449 67.6623 90.4012 67.9077 90.402C68.1142 90.3943 68.3193 90.4386 68.5043 90.5308C68.6643 90.6174 68.7996 90.7434 68.8975 90.8969C68.9979 91.0765 69.0688 91.271 69.1076 91.4731C69.1501 91.7194 69.1705 91.969 69.1687 92.2189L69.1619 94.6866Z" fill="#272727"/>
<path d="M71.6566 94.7679C71.3257 94.7724 70.9969 94.7149 70.6872 94.5984C70.3926 94.4866 70.128 94.3079 69.9143 94.0764L70.138 93.69C70.3498 93.8917 70.5953 94.0546 70.8634 94.1713C71.106 94.2726 71.3667 94.3234 71.6295 94.3205C71.9118 94.3349 72.1923 94.2666 72.4363 94.1239C72.5338 94.0653 72.6136 93.9814 72.6673 93.8812C72.721 93.7809 72.7466 93.668 72.7413 93.5544C72.7463 93.484 72.7354 93.4134 72.7096 93.3477C72.6838 93.282 72.6437 93.2229 72.5922 93.1747C72.4667 93.0731 72.3212 92.9992 72.1651 92.9578C71.9753 92.899 71.7493 92.838 71.4871 92.7747C71.2346 92.708 70.9875 92.6218 70.7482 92.5171C70.5726 92.444 70.4186 92.3273 70.3007 92.1781C70.1945 92.0204 70.1422 91.8325 70.1516 91.6426C70.1427 91.4003 70.2142 91.162 70.355 90.9646C70.5051 90.779 70.7015 90.6364 70.9245 90.5511C71.1844 90.4534 71.4603 90.4051 71.738 90.4087C72.0324 90.4042 72.3249 90.4572 72.599 90.5646C72.8341 90.6551 73.0436 90.8018 73.2091 90.9917L72.938 91.3714C72.794 91.2004 72.61 91.0676 72.4024 90.985C72.1869 90.8983 71.9566 90.8545 71.7244 90.8562C71.557 90.854 71.3902 90.8768 71.2295 90.9239C71.0824 90.9649 70.949 91.0444 70.8431 91.1544C70.7907 91.2119 70.7505 91.2793 70.7249 91.3527C70.6992 91.4261 70.6887 91.504 70.6939 91.5815C70.684 91.7086 70.7228 91.8346 70.8024 91.9341C70.8981 92.0321 71.0171 92.1044 71.1482 92.1443C71.332 92.2163 71.5199 92.2774 71.7109 92.3273C72.0272 92.4132 72.3052 92.5013 72.5447 92.5917C72.7548 92.6613 72.9454 92.7798 73.1007 92.9374C73.2404 93.101 73.3109 93.3126 73.2973 93.5273C73.3045 93.7059 73.2674 93.8836 73.1893 94.0444C73.1112 94.2053 72.9946 94.3444 72.8498 94.4493C72.4968 94.6813 72.0783 94.7931 71.6566 94.7679Z" fill="#272727"/>
<path d="M73.7719 93.4798C73.7673 93.2349 73.8462 92.9958 73.9956 92.8018C74.1651 92.6023 74.3819 92.4485 74.6261 92.3544C74.9261 92.2466 75.243 92.1938 75.5617 92.1984C75.775 92.1979 75.9881 92.2138 76.199 92.2459C76.4026 92.2739 76.6027 92.3239 76.7956 92.3951V92.0357C76.8024 91.8803 76.7777 91.7251 76.7229 91.5794C76.6682 91.4338 76.5845 91.3007 76.4769 91.1883C76.3602 91.079 76.2225 90.9944 76.0722 90.9396C75.9219 90.8849 75.7621 90.8611 75.6024 90.8697C75.3704 90.871 75.1407 90.9146 74.9244 90.9985C74.684 91.0945 74.4563 91.2197 74.2465 91.3713L74.0363 90.9781C74.2883 90.8019 74.5617 90.6583 74.8499 90.551C75.1107 90.4568 75.386 90.4086 75.6634 90.4087C75.8886 90.3959 76.1141 90.429 76.3262 90.5059C76.5383 90.5828 76.7325 90.702 76.8973 90.8561C77.055 91.0175 77.1774 91.2099 77.2568 91.4212C77.3362 91.6324 77.3707 91.8579 77.3583 92.0832V94.0289C77.3524 94.0893 77.3694 94.1498 77.4057 94.1984C77.4486 94.237 77.504 94.2587 77.5616 94.2594V94.6933H77.4057H77.304C77.2469 94.6948 77.1902 94.6842 77.1375 94.6619C77.0849 94.6397 77.0377 94.6065 76.9989 94.5645C76.9305 94.4927 76.8897 94.3991 76.8837 94.3001V93.995C76.6872 94.2403 76.4334 94.4335 76.1447 94.5577C75.8525 94.6881 75.536 94.7552 75.2159 94.7543C74.9595 94.7587 74.7059 94.7005 74.477 94.5848C74.2684 94.4776 74.0928 94.3159 73.9685 94.117C73.8444 93.9273 73.7763 93.7065 73.7719 93.4798ZM76.6057 93.7984C76.661 93.7315 76.7087 93.6588 76.7481 93.5815C76.7781 93.525 76.7943 93.4623 76.7956 93.3984V92.7815C76.6089 92.7113 76.4159 92.6591 76.2193 92.6256C76.0231 92.5848 75.8231 92.5644 75.6227 92.5645C75.2879 92.5504 74.9561 92.6328 74.6668 92.8018C74.5541 92.8653 74.4606 92.958 74.3961 93.0701C74.3317 93.1823 74.2987 93.3098 74.3007 93.4391C74.3001 93.5923 74.3424 93.7426 74.4227 93.873C74.5065 94.0165 74.6286 94.1339 74.7753 94.212C74.9461 94.3034 75.1374 94.3501 75.3312 94.3475C75.5883 94.3517 75.843 94.2984 76.0769 94.1916C76.2843 94.1086 76.4665 93.9731 76.6057 93.7984Z" fill="#272727"/>
<path d="M80.3006 94.7681C80.0092 94.773 79.7202 94.7152 79.4532 94.5986C79.1983 94.4834 78.9681 94.3199 78.7752 94.1173C78.3822 93.6992 78.166 93.1453 78.1718 92.5715C78.1666 92.1912 78.2576 91.8158 78.4362 91.48C78.6134 91.1562 78.873 90.8849 79.1888 90.6936C79.5217 90.4928 79.9052 90.3917 80.2938 90.4021C80.6622 90.3956 81.0254 90.4894 81.3446 90.6733C81.6422 90.8428 81.8793 91.1012 82.0226 91.4122L81.487 91.5817C81.3729 91.367 81.1985 91.1902 80.9853 91.0733C80.7688 90.9495 80.5229 90.8863 80.2735 90.8902C80.0008 90.8899 79.7333 90.9649 79.5006 91.1072C79.2692 91.2574 79.0782 91.4623 78.9447 91.7038C78.8062 91.9718 78.7363 92.2699 78.7413 92.5715C78.736 92.8719 78.8084 93.1684 78.9515 93.4325C79.083 93.6831 79.2768 93.8956 79.5142 94.0495C79.7425 94.2029 80.012 94.2833 80.287 94.28C80.4678 94.2827 80.6473 94.2504 80.8158 94.185C80.9782 94.1215 81.1293 94.0322 81.2633 93.9207C81.3815 93.8277 81.4708 93.7031 81.5209 93.5613L82.0633 93.724C81.9844 93.9303 81.8564 94.1141 81.6904 94.2596C81.5071 94.4228 81.2958 94.5514 81.0667 94.6393C80.8214 94.7288 80.5617 94.7725 80.3006 94.7681Z" fill="#272727"/>
<path d="M84.8835 94.5171L84.6801 94.6053C84.4423 94.7155 84.1829 94.7711 83.9208 94.768C83.7693 94.7703 83.6191 94.7402 83.4801 94.6798C83.3448 94.6246 83.2291 94.5302 83.1479 94.4087C83.0634 94.2726 83.021 94.1146 83.0259 93.9544V90.9105H82.4429V90.4766H83.0598V89.0393H83.6157V90.4766H84.592V90.9105H83.6157V93.8053C83.6156 93.8714 83.6302 93.9366 83.6583 93.9964C83.6864 94.0562 83.7275 94.109 83.7784 94.151C83.8782 94.2259 83.9995 94.2663 84.1242 94.2663C84.2684 94.2681 84.4114 94.2404 84.5445 94.1849C84.6229 94.1573 84.698 94.1209 84.7682 94.0765L84.8835 94.5171Z" fill="#272727"/>
<path d="M85.4937 89.5545V88.741H86.0428V89.5545H85.4937ZM85.4937 94.6798V90.4426H86.0428V94.6798H85.4937Z" fill="#272727"/>
<path d="M88.9985 94.7678C88.7072 94.7726 88.4182 94.7148 88.1511 94.5983C87.8944 94.4862 87.6636 94.3224 87.4732 94.117C87.2882 93.9194 87.1412 93.6896 87.0393 93.439C86.8313 92.9002 86.8313 92.3033 87.0393 91.7645C87.1418 91.5126 87.2913 91.2825 87.4799 91.0865C87.7757 90.7751 88.1602 90.5624 88.5812 90.4775C89.0022 90.3926 89.4391 90.4395 89.8324 90.612C90.0877 90.7235 90.3182 90.8848 90.5104 91.0865C90.699 91.2825 90.8485 91.5126 90.951 91.7645C91.159 92.3033 91.159 92.9002 90.951 93.439C90.8491 93.6896 90.7021 93.9194 90.5171 94.117C90.3267 94.3224 90.0959 94.4862 89.8392 94.5983C89.5742 94.7139 89.2876 94.7717 88.9985 94.7678ZM87.4528 92.6051C87.4473 92.9011 87.5198 93.1934 87.663 93.4526C87.7901 93.7022 87.9821 93.913 88.2189 94.0627C88.4487 94.2114 88.7181 94.287 88.9918 94.2797C89.2655 94.2809 89.5339 94.2033 89.7646 94.0559C90.0003 93.9 90.1937 93.688 90.3273 93.439C90.4658 93.1732 90.5379 92.8778 90.5375 92.578C90.5379 92.2826 90.4657 91.9916 90.3273 91.7306C90.1919 91.4828 89.9989 91.2712 89.7646 91.1136C89.5339 90.9663 89.2655 90.8886 88.9918 90.8899C88.716 90.8886 88.4464 90.9714 88.2189 91.1272C87.9833 91.2813 87.7918 91.4939 87.663 91.7441C87.519 92.0079 87.4465 92.3047 87.4528 92.6051Z" fill="#272727"/>
<path d="M95.5068 94.6867H94.9509V92.3343C94.9802 91.9596 94.9051 91.5841 94.7339 91.2495C94.6609 91.1378 94.5598 91.0472 94.4409 90.9865C94.322 90.9259 94.1893 90.8974 94.056 90.9038C93.8313 90.9054 93.6104 90.9613 93.4119 91.0665C93.2 91.1704 93.011 91.3156 92.856 91.4936C92.6946 91.6698 92.5763 91.8809 92.5103 92.1105V94.6867H91.9543V90.4699H92.4628V91.4326C92.5771 91.2257 92.7289 91.0418 92.9103 90.8902C93.0977 90.7381 93.3083 90.6168 93.534 90.5309C93.7659 90.4442 94.0117 90.4005 94.2594 90.4021C94.4658 90.395 94.6708 90.4392 94.856 90.5309C95.0154 90.6159 95.1489 90.7424 95.2424 90.897C95.3487 91.0739 95.42 91.2695 95.4526 91.4733C95.5008 91.7188 95.5235 91.9688 95.5204 92.219L95.5068 94.6867Z" fill="#272727"/>
<path d="M60.4704 51.8741C60.0498 53.9793 60.1265 56.1536 60.6944 58.224C61.2623 60.2943 62.3058 62.2035 63.7417 63.7994C65.1776 65.3953 66.9664 66.6339 68.9654 67.4166C70.9645 68.1992 73.1187 68.5043 75.2565 68.3075V40.81C71.8614 40.5067 68.474 41.4685 65.7449 43.5107C63.0157 45.5529 61.1373 48.5314 60.4704 51.8741ZM62.9585 53.23C62.9169 53.3733 62.8231 53.4958 62.6957 53.5733C62.5682 53.6509 62.4163 53.6778 62.2699 53.6489C62.1235 53.62 61.9933 53.5372 61.9049 53.417C61.8165 53.2968 61.7764 53.1478 61.7925 52.9995C61.8293 52.8485 61.9235 52.7178 62.0552 52.6353C62.1869 52.5528 62.3456 52.5249 62.4975 52.5575C62.6495 52.5902 62.7827 52.6809 62.8688 52.8103C62.9548 52.9397 62.9871 53.0976 62.9585 53.2503V53.23ZM73.9345 43.0608C73.8937 43.2058 73.7996 43.33 73.671 43.4084C73.5424 43.4869 73.3889 43.5138 73.2412 43.4838C73.0936 43.4538 72.9628 43.369 72.8751 43.2465C72.7874 43.124 72.7493 42.9729 72.7684 42.8235C72.7867 42.7469 72.8198 42.6747 72.866 42.6109C72.9122 42.5472 72.9704 42.4932 73.0375 42.4519C73.1045 42.4107 73.179 42.383 73.2567 42.3706C73.3345 42.3582 73.4139 42.3612 73.4904 42.3794C73.567 42.3977 73.6392 42.4308 73.703 42.477C73.7667 42.5231 73.8208 42.5814 73.862 42.6485C73.9032 42.7155 73.9309 42.79 73.9433 42.8677C73.9557 42.9455 73.9527 43.0249 73.9345 43.1014V43.0608ZM66.4771 46.1454C66.4456 46.2991 66.3544 46.4341 66.2234 46.5205C66.0925 46.607 65.9325 46.6379 65.7788 46.6064C65.6251 46.575 65.4901 46.4837 65.4037 46.3527C65.3172 46.2218 65.2863 46.0619 65.3178 45.9081C65.3634 45.7686 65.4594 45.6511 65.587 45.5786C65.7145 45.5061 65.8646 45.4837 66.0078 45.5159C66.151 45.5481 66.277 45.6326 66.3613 45.7527C66.4456 45.8729 66.482 46.0202 66.4635 46.1658L66.4771 46.1454ZM64.2059 61.9823C64.2476 61.839 64.3413 61.7165 64.4688 61.6389C64.5963 61.5614 64.7482 61.5344 64.8946 61.5634C65.041 61.5923 65.1712 61.675 65.2596 61.7952C65.3479 61.9155 65.3881 62.0645 65.372 62.2128C65.3468 62.3692 65.2606 62.5092 65.1321 62.602C65.0037 62.6949 64.8437 62.7329 64.6873 62.7077C64.5309 62.6825 64.3908 62.5962 64.298 62.4678C64.2052 62.3394 64.1672 62.1794 64.1924 62.023L64.2059 61.9823ZM72.4905 66.2262C72.5061 66.1501 72.5365 66.0778 72.58 66.0135C72.6235 65.9491 72.6793 65.8939 72.7441 65.8511C72.809 65.8083 72.8816 65.7787 72.9579 65.764C73.0342 65.7492 73.1126 65.7497 73.1888 65.7652C73.2649 65.7808 73.3372 65.8112 73.4016 65.8548C73.4659 65.8983 73.5211 65.9541 73.5639 66.0189C73.6067 66.0838 73.6363 66.1564 73.651 66.2327C73.6658 66.309 73.6653 66.3874 73.6498 66.4635C73.6237 66.6191 73.5369 66.7579 73.4085 66.8494C73.2801 66.9409 73.1206 66.9777 72.965 66.9516C72.8095 66.9256 72.6707 66.8388 72.5792 66.7104C72.4876 66.582 72.4508 66.4224 72.4769 66.2669L72.4905 66.2262ZM75.1548 54.3147C75.2222 54.417 75.258 54.537 75.2577 54.6595C75.2574 54.7821 75.2209 54.9018 75.1529 55.0038C75.085 55.1058 74.9884 55.1855 74.8754 55.2329C74.7624 55.2804 74.6379 55.2935 74.5175 55.2706L65.0263 53.3859C64.9466 53.3703 64.8707 53.3392 64.8031 53.2943C64.7354 53.2494 64.6773 53.1917 64.632 53.1243C64.5866 53.0569 64.555 52.9813 64.5389 52.9017C64.5228 52.8221 64.5226 52.7402 64.5381 52.6605C64.5537 52.5808 64.5848 52.505 64.6297 52.4373C64.6746 52.3697 64.7324 52.3115 64.7998 52.2662C64.8671 52.2209 64.9427 52.1893 65.0223 52.1732C65.1019 52.1571 65.1839 52.1568 65.2635 52.1724L73.2972 53.7655L69.8126 48.4504C69.75 48.3149 69.7382 48.1613 69.7792 48.0178C69.8202 47.8742 69.9114 47.7501 70.0361 47.6681C70.1608 47.586 70.3109 47.5514 70.459 47.5706C70.607 47.5897 70.7433 47.6614 70.8431 47.7725L75.1141 54.2808C75.1209 54.3064 75.13 54.3314 75.1413 54.3554L75.1548 54.3147Z" fill="#272727"/>
<path d="M76.1921 38.1187L76.7887 38.2068H76.8226C76.8765 38.2068 76.9282 38.1854 76.9664 38.1472C77.0045 38.1091 77.026 38.0574 77.026 38.0034C77.026 37.9495 77.0045 37.8978 76.9664 37.8596C76.9282 37.8215 76.8765 37.8001 76.8226 37.8001L76.2124 37.7119C76.1628 37.7114 76.1148 37.729 76.0772 37.7614C76.0397 37.7938 76.0153 37.8388 76.0087 37.888C76.002 37.9371 76.0135 37.987 76.0411 38.0282C76.0686 38.0695 76.1103 38.0992 76.1582 38.1119L76.1921 38.1187Z" fill="#272727"/>
<path d="M83.4055 68.26C83.0734 68.4837 82.7276 68.7007 82.3954 68.8973C82.3498 68.9253 82.3171 68.9703 82.3044 69.0223C82.2917 69.0743 82.3 69.1293 82.3276 69.1752C82.3432 69.2066 82.3674 69.2329 82.3974 69.2509C82.4275 69.2689 82.4621 69.278 82.4971 69.2769C82.5305 69.2847 82.5654 69.2847 82.5988 69.2769C82.9513 69.0667 83.2767 68.8498 83.6293 68.599C83.6517 68.584 83.6709 68.5647 83.6858 68.5422C83.7007 68.5197 83.711 68.4945 83.716 68.468C83.7211 68.4415 83.7208 68.4142 83.7152 68.3878C83.7096 68.3614 83.6989 68.3364 83.6835 68.3142C83.6692 68.292 83.6505 68.2729 83.6286 68.2581C83.6067 68.2433 83.582 68.2331 83.5561 68.228C83.5301 68.2229 83.5034 68.2232 83.4775 68.2287C83.4517 68.2342 83.4272 68.2448 83.4055 68.26Z" fill="#272727"/>
<path d="M85.2359 42.3556C85.2752 42.3903 85.3258 42.4096 85.3783 42.4098C85.4066 42.4104 85.4347 42.4046 85.4605 42.3929C85.4863 42.3811 85.5092 42.3638 85.5274 42.342C85.5647 42.304 85.5855 42.2529 85.5855 42.1997C85.5855 42.1464 85.5647 42.0953 85.5274 42.0573C85.2291 41.7861 84.9173 41.5149 84.5986 41.2641C84.578 41.2451 84.5537 41.2305 84.5272 41.2214C84.5007 41.2122 84.4725 41.2086 84.4446 41.2108C84.4166 41.2131 84.3894 41.221 84.3647 41.2343C84.34 41.2475 84.3183 41.2657 84.3009 41.2878C84.2836 41.3098 84.2709 41.3352 84.2639 41.3624C84.2568 41.3895 84.2554 41.4178 84.2598 41.4455C84.2642 41.4732 84.2743 41.4997 84.2895 41.5233C84.3046 41.5469 84.3244 41.5672 84.3478 41.5827C84.6461 41.8268 84.9512 42.098 85.2359 42.3556Z" fill="#272727"/>
<path d="M81.3447 69.4669C80.9989 69.6363 80.6328 69.8058 80.2599 69.955C80.2107 69.9759 80.1718 70.0154 80.1514 70.0649C80.1311 70.1144 80.1312 70.1699 80.1515 70.2194C80.1675 70.2562 80.1941 70.2874 80.2279 70.3091C80.2617 70.3309 80.3012 70.3421 80.3413 70.3414C80.3658 70.3475 80.3914 70.3475 80.4159 70.3414C80.7955 70.1855 81.1684 70.0228 81.5277 69.8397C81.555 69.8301 81.5799 69.8147 81.6008 69.7947C81.6217 69.7746 81.6381 69.7503 81.6488 69.7234C81.6596 69.6965 81.6645 69.6676 81.6631 69.6387C81.6618 69.6098 81.6543 69.5814 81.6412 69.5556C81.628 69.5298 81.6095 69.5071 81.5869 69.4891C81.5643 69.471 81.538 69.4579 81.51 69.4508C81.4819 69.4437 81.4526 69.4427 81.4241 69.4478C81.3956 69.4529 81.3685 69.464 81.3447 69.4804V69.4669Z" fill="#272727"/>
<path d="M80.2259 39.1829C80.592 39.3321 80.9581 39.4948 81.3106 39.671C81.3419 39.6774 81.3742 39.6774 81.4055 39.671C81.443 39.6714 81.4797 39.6606 81.5111 39.6401C81.5425 39.6196 81.5671 39.5902 81.5818 39.5558C81.5945 39.5323 81.6023 39.5065 81.6047 39.48C81.6072 39.4534 81.6042 39.4266 81.5959 39.4013C81.5877 39.3759 81.5744 39.3525 81.5568 39.3324C81.5392 39.3123 81.5177 39.2961 81.4936 39.2846C81.1275 39.1083 80.7547 38.9388 80.375 38.7829C80.3246 38.7648 80.2691 38.7666 80.2199 38.788C80.1708 38.8095 80.1317 38.8488 80.1106 38.8982C80.0985 38.9243 80.0919 38.9526 80.0911 38.9814C80.0904 39.0102 80.0956 39.0389 80.1064 39.0656C80.1172 39.0923 80.1334 39.1165 80.154 39.1366C80.1745 39.1568 80.199 39.1726 80.2259 39.1829Z" fill="#272727"/>
<path d="M85.263 66.7687C84.9715 67.0399 84.6664 67.2975 84.3614 67.5484C84.3241 67.5864 84.3032 67.6375 84.3032 67.6907C84.3032 67.744 84.3241 67.7951 84.3614 67.8331C84.3806 67.8559 84.4044 67.8743 84.4313 67.8872C84.4582 67.9 84.4875 67.907 84.5173 67.9077C84.5635 67.9087 84.6088 67.8944 84.6461 67.867C84.9647 67.6094 85.2766 67.345 85.5749 67.067C85.5942 67.0486 85.6095 67.0266 85.62 67.0021C85.6305 66.9776 85.6359 66.9513 85.6359 66.9246C85.6359 66.898 85.6305 66.8717 85.62 66.8472C85.6095 66.8227 85.5942 66.8006 85.5749 66.7823C85.5568 66.7586 85.5338 66.7392 85.5074 66.7255C85.481 66.7117 85.4519 66.7039 85.4221 66.7026C85.3924 66.7013 85.3627 66.7066 85.3352 66.718C85.3077 66.7294 85.2831 66.7467 85.263 66.7687Z" fill="#272727"/>
<path d="M77.9548 38.4509C78.3413 38.5458 78.7277 38.6543 79.1006 38.7763H79.1684C79.2149 38.7737 79.2592 38.7552 79.2937 38.7239C79.3283 38.6926 79.351 38.6505 79.3582 38.6044C79.3653 38.5583 79.3564 38.5112 79.333 38.4709C79.3095 38.4306 79.273 38.3996 79.2294 38.3831C78.843 38.261 78.4497 38.1458 78.0498 38.0509C78.0229 38.0413 77.9943 38.0375 77.9659 38.0397C77.9374 38.0418 77.9098 38.05 77.8847 38.0636C77.8596 38.0771 77.8377 38.0958 77.8203 38.1184C77.8029 38.141 77.7904 38.167 77.7838 38.1947C77.7771 38.2224 77.7763 38.2513 77.7814 38.2793C77.7866 38.3073 77.7976 38.334 77.8138 38.3575C77.8299 38.381 77.8508 38.4009 77.8751 38.4158C77.8994 38.4307 77.9266 38.4403 77.9548 38.4441V38.4509Z" fill="#272727"/>
<path d="M78.6532 70.938L79.2701 70.7482C79.3214 70.7311 79.3637 70.6944 79.3879 70.6461C79.4121 70.5977 79.416 70.5418 79.399 70.4906C79.3819 70.4393 79.3451 70.397 79.2968 70.3728C79.2485 70.3487 79.1926 70.3447 79.1413 70.3618C78.8973 70.4431 78.6532 70.5109 78.4091 70.5787C78.5244 70.3279 78.6464 70.0702 78.7549 69.8058C78.7779 69.7536 78.7794 69.6945 78.7591 69.6412C78.7388 69.5879 78.6983 69.5448 78.6464 69.5211C78.6221 69.5101 78.5957 69.5042 78.5689 69.5037C78.5422 69.5032 78.5156 69.5082 78.4909 69.5184C78.4661 69.5285 78.4437 69.5436 78.425 69.5628C78.4063 69.5819 78.3917 69.6046 78.382 69.6296C78.2261 70.016 78.0498 70.4024 77.8668 70.7753C77.8638 70.7978 77.8638 70.8206 77.8668 70.8431C77.8602 70.8675 77.8602 70.8933 77.8668 70.9177C77.8735 70.9457 77.8875 70.9714 77.9075 70.9923C77.9186 70.9951 77.9302 70.9951 77.9414 70.9923C77.9634 70.999 77.9871 70.999 78.0092 70.9923C78.3685 71.1685 78.7413 71.338 79.121 71.4939C79.1724 71.5174 79.2308 71.5198 79.284 71.5009C79.3372 71.4819 79.3808 71.4429 79.4057 71.3922C79.4179 71.3675 79.4247 71.3406 79.4257 71.313C79.4268 71.2855 79.4221 71.2581 79.4118 71.2325C79.4016 71.207 79.3861 71.1838 79.3664 71.1646C79.3466 71.1454 79.3231 71.1306 79.2973 71.1211L78.6532 70.938Z" fill="#272727"/>
<path d="M83.3716 40.8709C83.4048 40.8954 83.4456 40.9074 83.4868 40.9048C83.5202 40.9057 83.5533 40.8981 83.583 40.8827C83.6126 40.8673 83.6379 40.8446 83.6563 40.8167C83.6715 40.795 83.6821 40.7706 83.6876 40.7447C83.6931 40.7188 83.6933 40.6921 83.6883 40.6662C83.6832 40.6402 83.673 40.6156 83.6582 40.5937C83.6433 40.5718 83.6243 40.5531 83.6021 40.5387C83.2631 40.3082 82.9241 40.0845 82.5716 39.8608C82.5484 39.8474 82.5229 39.8387 82.4964 39.8352C82.4699 39.8317 82.443 39.8335 82.4172 39.8404C82.3913 39.8474 82.3671 39.8593 82.3459 39.8756C82.3248 39.8919 82.307 39.9122 82.2936 39.9353C82.2803 39.9585 82.2716 39.9841 82.2681 40.0106C82.2646 40.0371 82.2664 40.064 82.2733 40.0898C82.2802 40.1156 82.2922 40.1398 82.3085 40.161C82.3247 40.1822 82.345 40.2 82.3682 40.2133C82.7072 40.4303 83.0597 40.6472 83.3716 40.8709Z" fill="#272727"/>
<path d="M86.8697 44.0912C86.89 44.1145 86.915 44.1332 86.943 44.146C86.9711 44.1589 87.0016 44.1656 87.0324 44.1658C87.0667 44.1639 87.0997 44.1522 87.1273 44.1319C87.1695 44.0985 87.1967 44.0499 87.203 43.9965C87.2094 43.9432 87.1943 43.8894 87.1612 43.8471C86.9036 43.5353 86.6324 43.2234 86.3545 42.9319C86.3165 42.8947 86.2653 42.8738 86.2121 42.8738C86.1589 42.8738 86.1078 42.8947 86.0697 42.9319C86.032 42.9711 86.011 43.0233 86.011 43.0777C86.011 43.132 86.032 43.1843 86.0697 43.2234C86.3545 43.4539 86.6189 43.7861 86.8697 44.0912Z" fill="#272727"/>
<path d="M88.2462 46.0437C88.2638 46.0729 88.2887 46.0969 88.3184 46.1136C88.3481 46.1302 88.3816 46.1388 88.4157 46.1386C88.4513 46.1478 88.4886 46.1478 88.5242 46.1386C88.5685 46.1094 88.6001 46.0646 88.6127 46.013C88.6252 45.9614 88.6178 45.907 88.592 45.8607C88.3818 45.5149 88.1581 45.1827 87.914 44.837C87.8985 44.8151 87.8788 44.7965 87.8561 44.7822C87.8333 44.768 87.808 44.7584 87.7815 44.754C87.7551 44.7496 87.728 44.7505 87.7018 44.7566C87.6757 44.7627 87.6511 44.7739 87.6293 44.7895C87.6068 44.8038 87.5876 44.8225 87.5729 44.8446C87.5581 44.8668 87.5482 44.8917 87.5437 44.9179C87.5392 44.9442 87.5403 44.971 87.5469 44.9968C87.5535 45.0225 87.5654 45.0466 87.5818 45.0675C87.8055 45.3658 88.0428 45.7048 88.2462 46.0437Z" fill="#272727"/>
<path d="M89.3173 48.1998C89.3326 48.2371 89.359 48.2689 89.3929 48.2907C89.4269 48.3126 89.4668 48.3234 89.5071 48.3218C89.5315 48.3288 89.5573 48.3288 89.5817 48.3218C89.6066 48.3122 89.6294 48.2976 89.6485 48.2789C89.6676 48.2601 89.6827 48.2377 89.6929 48.213C89.703 48.1882 89.708 48.1617 89.7076 48.1349C89.7071 48.1082 89.7012 48.0818 89.6901 48.0574C89.5342 47.6845 89.3647 47.3117 89.1817 46.9524C89.1583 46.9039 89.1166 46.8666 89.0657 46.8488C89.0149 46.831 88.9591 46.8341 88.9105 46.8574C88.8864 46.8689 88.8649 46.8852 88.8474 46.9052C88.8298 46.9253 88.8165 46.9487 88.8082 46.9741C88.8 46.9995 88.797 47.0263 88.7994 47.0528C88.8018 47.0794 88.8097 47.1052 88.8224 47.1286C88.9986 47.4405 89.1613 47.7998 89.3173 48.1998Z" fill="#272727"/>
<path d="M86.8969 65.0331C86.6461 65.3381 86.3817 65.6364 86.1105 65.928C86.0728 65.9671 86.0518 66.0194 86.0518 66.0737C86.0518 66.1281 86.0728 66.1803 86.1105 66.2195C86.1295 66.2389 86.1521 66.2544 86.1772 66.265C86.2022 66.2756 86.2291 66.281 86.2563 66.281C86.2834 66.281 86.3104 66.2756 86.3354 66.265C86.3604 66.2544 86.3831 66.2389 86.402 66.2195C86.68 65.9212 86.9512 65.6161 87.202 65.2975C87.2213 65.2791 87.2366 65.257 87.2471 65.2325C87.2576 65.2081 87.263 65.1817 87.263 65.1551C87.263 65.1285 87.2576 65.1021 87.2471 65.0776C87.2366 65.0532 87.2213 65.0311 87.202 65.0127C87.1815 64.9923 87.1569 64.9765 87.1298 64.9663C87.1027 64.9561 87.0737 64.9519 87.0449 64.9538C87.016 64.9557 86.9879 64.9638 86.9623 64.9775C86.9368 64.9911 86.9145 65.0101 86.8969 65.0331Z" fill="#272727"/>
<path d="M88.2595 63.1144C88.0561 63.4534 87.8391 63.7924 87.6154 64.111C87.5988 64.1324 87.5868 64.1571 87.5802 64.1834C87.5736 64.2097 87.5724 64.237 87.5769 64.2638C87.5813 64.2905 87.5913 64.316 87.6061 64.3387C87.6209 64.3615 87.6402 64.3809 87.6629 64.3958C87.6961 64.4202 87.7369 64.4322 87.7781 64.4297C87.8108 64.4307 87.8433 64.4239 87.8728 64.4097C87.9023 64.3956 87.928 64.3745 87.9476 64.3483C88.1781 64.0093 88.4018 63.6703 88.6256 63.3178C88.6508 63.2707 88.6572 63.2157 88.6433 63.1641C88.6295 63.1124 88.5964 63.068 88.551 63.0399C88.5273 63.0243 88.5007 63.0138 88.4727 63.0091C88.4448 63.0045 88.4162 63.0057 88.3887 63.0127C88.3613 63.0197 88.3356 63.0324 88.3134 63.0499C88.2911 63.0674 88.2727 63.0894 88.2595 63.1144Z" fill="#272727"/>
<path d="M83.1276 44.4372C83.1452 44.455 83.1664 44.469 83.1897 44.4784C83.213 44.4877 83.238 44.4921 83.2632 44.4914C83.2915 44.4919 83.3196 44.4861 83.3454 44.4744C83.3712 44.4627 83.3941 44.4453 83.4123 44.4236C83.4496 44.3856 83.4704 44.3345 83.4704 44.2812C83.4704 44.228 83.4496 44.1769 83.4123 44.1389C83.1072 43.8677 82.7886 43.6033 82.4564 43.3524C82.4132 43.3201 82.359 43.3062 82.3056 43.3138C82.2522 43.3214 82.204 43.35 82.1717 43.3931C82.141 43.4369 82.1281 43.4906 82.1357 43.5435C82.1432 43.5964 82.1706 43.6444 82.2123 43.6778C82.5305 43.9147 82.836 44.1682 83.1276 44.4372Z" fill="#272727"/>
<path d="M82.4698 65.7788C82.8043 65.5257 83.1229 65.2613 83.4257 64.9856C83.463 64.9476 83.4839 64.8964 83.4839 64.8432C83.4839 64.79 83.463 64.7389 83.4257 64.7008C83.3866 64.6631 83.3343 64.6421 83.28 64.6421C83.2256 64.6421 83.1734 64.6631 83.1342 64.7008C82.841 64.9727 82.5332 65.2285 82.2122 65.4669C82.1908 65.483 82.1728 65.503 82.1592 65.526C82.1456 65.549 82.1367 65.5744 82.1329 65.6009C82.1291 65.6273 82.1306 65.6542 82.1372 65.6801C82.1439 65.706 82.1555 65.7303 82.1715 65.7517C82.1905 65.7769 82.215 65.7974 82.2433 65.8116C82.2715 65.8257 82.3027 65.833 82.3342 65.833C82.3593 65.8334 82.3842 65.8288 82.4075 65.8195C82.4307 65.8102 82.4519 65.7963 82.4698 65.7788Z" fill="#272727"/>
<path d="M84.7613 46.1659C84.7937 46.2091 84.8419 46.2376 84.8953 46.2452C84.9487 46.2529 85.0029 46.239 85.0461 46.2066C85.0653 46.1882 85.0807 46.1662 85.0912 46.1417C85.1017 46.1172 85.1071 46.0909 85.1071 46.0642C85.1071 46.0376 85.1017 46.0113 85.0912 45.9868C85.0807 45.9623 85.0653 45.9402 85.0461 45.9219C84.7961 45.5939 84.5291 45.2794 84.2461 44.9795C84.2081 44.9423 84.1569 44.9214 84.1037 44.9214C84.0505 44.9214 83.9994 44.9423 83.9613 44.9795C83.9236 45.0187 83.9026 45.0709 83.9026 45.1253C83.9026 45.1796 83.9236 45.2319 83.9613 45.271C84.2596 45.5761 84.5173 45.8812 84.7613 46.1659Z" fill="#272727"/>
<path d="M81.209 42.993C81.2417 43.0134 81.279 43.0251 81.3175 43.0269C81.3525 43.0269 81.3869 43.0183 81.4177 43.0017C81.4484 42.9852 81.4746 42.9612 81.4938 42.932C81.5214 42.886 81.5297 42.8311 81.517 42.779C81.5043 42.727 81.4716 42.6821 81.426 42.654C81.0802 42.437 80.7141 42.2269 80.348 42.0438C80.3015 42.0274 80.2506 42.0284 80.2048 42.0467C80.159 42.065 80.1215 42.0993 80.0991 42.1433C80.0767 42.1872 80.071 42.2378 80.0831 42.2856C80.0953 42.3334 80.1244 42.3752 80.165 42.4032C80.5243 42.5862 80.8701 42.776 81.209 42.993Z" fill="#272727"/>
<path d="M78.0293 68.0228H78.0903C78.4835 67.9008 78.8699 67.7652 79.2564 67.6093C79.3056 67.5883 79.3446 67.5488 79.3649 67.4993C79.3852 67.4499 79.3852 67.3944 79.3648 67.3449C79.3551 67.3199 79.3405 67.2971 79.322 67.2778C79.3034 67.2585 79.2812 67.243 79.2566 67.2323C79.232 67.2216 79.2056 67.2158 79.1788 67.2154C79.152 67.2149 79.1254 67.2198 79.1004 67.2296C78.7305 67.3831 78.3525 67.5166 77.9683 67.6296C77.9168 67.6468 77.8739 67.6831 77.8487 67.7311C77.8234 67.7792 77.8177 67.8351 77.8327 67.8872C77.847 67.9277 77.8737 67.9626 77.909 67.9869C77.9443 68.0113 77.9864 68.0238 78.0293 68.0228Z" fill="#272727"/>
<path d="M80.287 67.1144C80.318 67.1235 80.3509 67.1235 80.3819 67.1144C80.7492 66.9295 81.1067 66.7258 81.4531 66.5043C81.4797 66.4923 81.5034 66.4747 81.5227 66.4527C81.5419 66.4307 81.5561 66.4048 81.5644 66.3768C81.5728 66.3488 81.575 66.3194 81.5709 66.2905C81.5668 66.2615 81.5566 66.2338 81.5408 66.2092C81.5251 66.1846 81.5042 66.1637 81.4797 66.1479C81.4551 66.1321 81.4274 66.1217 81.3985 66.1176C81.3696 66.1134 81.3401 66.1155 81.3121 66.1237C81.2841 66.132 81.2582 66.1462 81.2361 66.1653C80.9039 66.3755 80.5582 66.5721 80.1921 66.7551C80.146 66.781 80.1113 66.8232 80.095 66.8735C80.0787 66.9237 80.0819 66.9783 80.104 67.0263C80.1245 67.0553 80.1521 67.0785 80.1841 67.094C80.2161 67.1094 80.2515 67.1164 80.287 67.1144Z" fill="#272727"/>
<path d="M85.0937 63.1755C85.113 63.1572 85.1283 63.1351 85.1388 63.1106C85.1493 63.0861 85.1547 63.0598 85.1547 63.0332C85.1547 63.0065 85.1493 62.9802 85.1388 62.9557C85.1283 62.9312 85.113 62.9092 85.0937 62.8908C85.0723 62.8748 85.048 62.8631 85.0222 62.8565C84.9963 62.8498 84.9694 62.8484 84.9429 62.8521C84.9165 62.8559 84.891 62.8649 84.8681 62.8785C84.8451 62.8921 84.825 62.9101 84.809 62.9315C84.5649 63.2433 84.3073 63.5484 84.0361 63.8467C84.0168 63.865 84.0015 63.8871 83.991 63.9116C83.9805 63.9361 83.9751 63.9624 83.9751 63.9891C83.9751 64.0157 83.9805 64.042 83.991 64.0665C84.0015 64.091 84.0168 64.1131 84.0361 64.1314C84.0737 64.1646 84.1216 64.1838 84.1717 64.1856C84.2001 64.1867 84.2284 64.1812 84.2543 64.1694C84.2802 64.1576 84.303 64.14 84.3208 64.1179C84.5946 63.8173 84.8526 63.5028 85.0937 63.1755Z" fill="#272727"/>
<path d="M85.4598 47.1759C85.6767 47.5081 85.8801 47.8539 86.0699 48.2064C86.0849 48.2402 86.1098 48.2686 86.1413 48.2879C86.1727 48.3073 86.2093 48.3167 86.2462 48.3149C86.2775 48.3213 86.3098 48.3213 86.3411 48.3149C86.3646 48.3028 86.3854 48.2861 86.4023 48.2657C86.4192 48.2454 86.4318 48.2219 86.4394 48.1966C86.447 48.1713 86.4494 48.1447 86.4465 48.1184C86.4436 48.0921 86.4354 48.0667 86.4225 48.0437C86.2327 47.6776 86.0225 47.3183 85.7988 46.9725C85.785 46.9498 85.7667 46.9301 85.745 46.9146C85.7234 46.8991 85.6988 46.8882 85.6728 46.8825C85.6469 46.8768 85.62 46.8764 85.5939 46.8814C85.5677 46.8864 85.5429 46.8966 85.5208 46.9115C85.481 46.9413 85.4531 46.9841 85.4419 47.0325C85.4307 47.0809 85.4371 47.1317 85.4598 47.1759Z" fill="#272727"/>
<path d="M76.7887 67.9279L76.1989 68.0364C76.1521 68.0482 76.111 68.0762 76.083 68.1155C76.055 68.1548 76.0418 68.2027 76.0459 68.2508C76.05 68.2988 76.071 68.3439 76.1052 68.3779C76.1395 68.4119 76.1847 68.4326 76.2327 68.4364C76.4361 68.4025 76.6395 68.3686 76.8361 68.3211C76.8656 68.3198 76.8944 68.3122 76.9205 68.2987C76.9467 68.2852 76.9697 68.2661 76.9878 68.2429C77.0059 68.2196 77.0187 68.1928 77.0254 68.1641C77.0321 68.1354 77.0324 68.1056 77.0265 68.0767C77.0205 68.0479 77.0083 68.0207 76.9908 67.997C76.9733 67.9733 76.9508 67.9537 76.925 67.9395C76.8992 67.9254 76.8706 67.917 76.8412 67.915C76.8118 67.913 76.7823 67.9174 76.7548 67.9279H76.7887Z" fill="#272727"/>
<path d="M77.8057 41.3794C77.8057 41.3794 77.8057 41.3794 77.8057 41.4133C77.9413 41.7997 78.0836 42.1794 78.2396 42.559C78.2621 42.6108 78.3028 42.6526 78.354 42.6763C78.4053 42.7001 78.4634 42.7042 78.5175 42.6879C78.5439 42.679 78.5682 42.6647 78.5887 42.6458C78.6091 42.6269 78.6254 42.6039 78.6363 42.5782C78.6472 42.5526 78.6525 42.5249 78.6519 42.4971C78.6513 42.4692 78.6448 42.4418 78.6328 42.4167C78.5243 42.1591 78.4158 41.8879 78.3209 41.6167C78.565 41.7048 78.809 41.7862 79.0463 41.8811C79.0707 41.8881 79.0965 41.8881 79.1209 41.8811C79.1609 41.8809 79.1999 41.8693 79.2336 41.8477C79.2672 41.8261 79.294 41.7954 79.3107 41.7591C79.3206 41.7342 79.3254 41.7075 79.325 41.6807C79.3245 41.6539 79.3188 41.6275 79.3081 41.6029C79.2974 41.5783 79.2819 41.5561 79.2626 41.5376C79.2432 41.519 79.2204 41.5044 79.1955 41.4947L78.5921 41.2642L79.27 41.0133C79.3228 40.9921 79.3655 40.9515 79.3895 40.8999C79.4134 40.8482 79.4168 40.7894 79.3988 40.7354C79.3908 40.7092 79.3772 40.685 79.359 40.6645C79.3407 40.6441 79.3183 40.6278 79.2932 40.6169C79.2681 40.6059 79.2409 40.6006 79.2135 40.6011C79.1861 40.6017 79.1591 40.6082 79.1344 40.6201C78.748 40.7828 78.3548 40.932 77.9616 41.0676C77.9236 41.0797 77.8904 41.1034 77.8667 41.1354V41.1693V41.2032C77.863 41.2279 77.863 41.253 77.8667 41.2777L77.8057 41.3794Z" fill="#272727"/>
<path d="M95.134 48.4505H77.765C77.4964 48.4505 77.2388 48.5567 77.0483 48.7459C76.8578 48.9352 76.7498 49.1921 76.748 49.4606V60.9857C76.748 61.2554 76.8552 61.5141 77.0459 61.7048C77.2366 61.8955 77.4953 62.0026 77.765 62.0026H85.4665C85.4544 62.0404 85.4545 62.0809 85.4666 62.1186C85.4788 62.1563 85.5024 62.1892 85.5342 62.2128C85.5675 62.2373 85.6083 62.2493 85.6495 62.2467C85.6833 62.2457 85.7164 62.2365 85.7459 62.22C85.7754 62.2035 85.8005 62.1801 85.819 62.1518C85.8458 62.1006 85.8752 62.0508 85.9071 62.0026H88.8426C88.8202 62.0516 88.8167 62.1073 88.833 62.1586C88.8493 62.21 88.8842 62.2535 88.9308 62.2806C88.9621 62.287 88.9944 62.287 89.0257 62.2806C89.0632 62.2809 89.0999 62.2702 89.1313 62.2497C89.1626 62.2292 89.1872 62.1998 89.2019 62.1654C89.2019 62.1043 89.263 62.0365 89.2969 61.9688H95.1408C95.4105 61.9688 95.6691 61.8616 95.8598 61.6709C96.0506 61.4802 96.1577 61.2215 96.1577 60.9518V49.4267C96.1471 49.1629 96.0344 48.9136 95.8434 48.7314C95.6524 48.5492 95.398 48.4485 95.134 48.4505Z" fill="#272727"/>
<path d="M70.8025 70.7278C68.4406 70.2576 66.2107 69.2751 64.2697 67.8496C62.3288 66.424 60.7242 64.5901 59.5689 62.4771C59.0816 61.589 58.6754 60.6587 58.3554 59.6975C57.7322 57.8103 57.4566 55.8257 57.5418 53.8401C57.5829 53.0044 57.6848 52.1728 57.8469 51.352C57.9544 50.7979 58.0924 50.2502 58.2604 49.7114C58.9267 47.537 60.0397 45.5258 61.5282 43.8064C63.2135 41.8605 65.3295 40.3343 67.7079 39.3493C70.0864 38.3643 72.6617 37.9475 75.2295 38.132L75.2769 37.4541C71.4038 37.1738 67.5497 38.2124 64.3419 40.401C61.134 42.5896 58.7613 45.7994 57.6096 49.508C57.1863 50.9046 56.9381 52.3484 56.8706 53.8062C56.7771 55.8742 57.062 57.942 57.7113 59.9077C58.0447 60.9082 58.4667 61.8771 58.9723 62.8026C60.4464 65.5025 62.6209 67.7554 65.267 69.3242C67.9131 70.893 70.933 71.7198 74.0092 71.7176C74.4295 71.7176 74.8566 71.7176 75.2837 71.6701L75.2295 70.9922C73.7486 71.1011 72.2598 71.0122 70.8025 70.7278Z" fill="#272727"/>
</svg>
