<svg width="115" height="118" viewBox="0 0 115 118" fill="none" xmlns="http://www.w3.org/2000/svg">
<path d="M114.175 64.9123L49.4653 0.202148C18.8227 31.6211 1.42935 73.6165 0.883545 117.501H92.4065C92.955 97.892 100.704 79.1717 114.175 64.9123Z" fill="#E6EBED"/>
<path d="M73.5663 75.4001C73.537 73.333 73.015 71.3027 72.0436 69.4777C71.0723 67.6528 69.6795 66.086 67.9811 64.9073C66.2827 63.7286 64.3276 62.9721 62.2781 62.7006C60.2287 62.4291 58.1441 62.6504 56.1973 63.3462C53.363 62.3339 50.2657 62.3339 47.4314 63.3462C45.3343 62.5924 43.0782 62.3923 40.8812 62.7652C38.6841 63.1381 36.6204 64.0714 34.8894 65.475C37.231 65.6242 39.4479 66.5829 41.1604 68.1868C41.9042 68.8804 42.5415 69.6799 43.0519 70.5596C43.9383 72.0905 44.4059 73.8278 44.4078 75.5967C44.4102 76.9114 44.8569 78.1866 45.6753 79.2154C46.4937 80.2442 47.6358 80.9663 48.9161 81.2644C49.3449 81.3656 49.7841 81.4157 50.2246 81.4135C50.6232 81.4142 51.0209 81.3734 51.411 81.2915C51.6409 81.2404 51.8673 81.1747 52.0889 81.0949C53.0506 80.7641 53.9085 80.1867 54.577 79.4204C54.7854 79.6487 55.0121 79.8596 55.255 80.0509C56.302 80.9278 57.6246 81.4079 58.9905 81.4068C59.3891 81.4075 59.7867 81.3666 60.1769 81.2847C61.4188 81.0262 62.5424 80.3692 63.3768 79.4136C63.5852 79.6419 63.8119 79.8528 64.0547 80.0441C65.1018 80.9211 66.4244 81.4011 67.7902 81.4C68.1889 81.401 68.5865 81.3601 68.9766 81.2779C70.2569 81.0097 71.4099 80.3193 72.2508 79.3173C73.0917 78.3154 73.5717 77.06 73.6138 75.7527V75.4137L73.5663 75.4001ZM53.1533 75.7188C53.1225 76.3557 52.8848 76.9651 52.4761 77.4545C52.0674 77.944 51.5102 78.2867 50.889 78.4306C50.6672 78.4855 50.4395 78.5128 50.211 78.5119C49.6977 78.5155 49.1923 78.3848 48.7451 78.1327C48.298 77.8805 47.9245 77.5158 47.6619 77.0747C47.3847 76.6193 47.2392 76.096 47.2416 75.5628C47.248 72.9196 46.4487 70.3371 44.9502 68.1597C44.3993 67.3729 43.7651 66.6478 43.0587 65.997C42.8621 65.8207 42.6587 65.6445 42.4485 65.475C42.6519 65.475 42.8553 65.475 43.0587 65.475C43.2621 65.475 43.4654 65.475 43.6621 65.475C46.0036 65.6242 48.2205 66.5829 49.9331 68.1868C50.4839 68.7013 50.9772 69.2741 51.4042 69.8952C51.5466 70.1121 51.689 70.3359 51.8245 70.5731C52.6905 72.0657 53.1575 73.7561 53.1804 75.4815C53.184 75.5243 53.184 75.5674 53.1804 75.6103C53.1737 75.647 53.1647 75.6832 53.1533 75.7188ZM58.9769 78.5323C58.1971 78.5305 57.4498 78.2199 56.8984 77.6685C56.347 77.1171 56.0364 76.3698 56.0346 75.59C56.0346 75.5289 56.0346 75.4747 56.0346 75.4205C56.0217 73.9554 55.7557 72.5035 55.2482 71.1291C54.8648 70.085 54.3499 69.094 53.716 68.18C53.1651 67.3932 52.531 66.6681 51.8245 66.0173C51.6279 65.8411 51.4246 65.6648 51.2144 65.4953C51.4178 65.4953 51.6212 65.4953 51.8245 65.4953C52.0279 65.4953 52.2313 65.4953 52.4279 65.4953C54.9975 65.6541 57.4099 66.7867 59.1734 68.6623C60.937 70.5379 61.9189 73.0155 61.9192 75.59C61.9121 76.3662 61.5991 77.1084 61.0483 77.6554C60.4975 78.2024 59.7532 78.5102 58.9769 78.5119V78.5323ZM67.7428 78.5323C66.963 78.5305 66.2156 78.2199 65.6642 77.6685C65.1128 77.1171 64.8023 76.3698 64.8005 75.59C64.804 75.5335 64.804 75.4769 64.8005 75.4205C64.7876 73.9554 64.5216 72.5035 64.0141 71.1291C63.1937 68.9172 61.7877 66.9699 59.9464 65.4953C60.1498 65.4953 60.3531 65.4953 60.5565 65.4953C61.8851 65.4891 63.2019 65.7448 64.4315 66.2479C65.6612 66.7509 66.7796 67.4915 67.7228 68.4271C68.666 69.3628 69.4155 70.4752 69.9285 71.7008C70.4414 72.9264 70.7077 74.241 70.7122 75.5696C70.7113 75.958 70.6337 76.3425 70.4838 76.7008C70.3339 77.0592 70.1147 77.3844 69.8388 77.6578C69.5629 77.9312 69.2357 78.1474 68.876 78.2939C68.5163 78.4405 68.1312 78.5146 67.7428 78.5119V78.5323Z" fill="#272727"/>
<path d="M41.4723 100.22C41.1805 100.222 40.8915 100.162 40.6249 100.043C40.3682 99.9314 40.1374 99.7675 39.9469 99.5621C39.757 99.3672 39.6073 99.1369 39.5063 98.8842C39.3971 98.6151 39.3418 98.3271 39.3436 98.0367C39.3406 97.6572 39.4364 97.2834 39.6215 96.952C39.7973 96.6188 40.0621 96.3409 40.3865 96.1494C40.7109 95.9579 41.0821 95.8602 41.4588 95.8673C41.8458 95.8602 42.2268 95.9637 42.557 96.1656C42.8642 96.3639 43.1161 96.6368 43.2892 96.9588C43.472 97.2859 43.5656 97.6553 43.5604 98.03V98.152C43.5604 98.1927 43.5604 98.2266 43.5604 98.2469H39.9198C39.9434 98.5319 40.0315 98.8078 40.1774 99.0537C40.3166 99.2823 40.5099 99.4732 40.7401 99.6096C40.9679 99.7444 41.228 99.8147 41.4927 99.813C41.7688 99.8141 42.0403 99.7415 42.2791 99.6028C42.5062 99.481 42.6872 99.2881 42.7943 99.0537L43.2757 99.1825C43.1803 99.3884 43.0442 99.5729 42.8757 99.7248C42.6932 99.8925 42.4787 100.022 42.2452 100.104C41.9964 100.188 41.7347 100.227 41.4723 100.22ZM39.9063 97.8266H43.0384C43.0254 97.5406 42.939 97.2627 42.7875 97.0198C42.6524 96.7939 42.4608 96.607 42.2316 96.4775C41.9996 96.3477 41.7381 96.28 41.4723 96.2809C41.2063 96.2781 40.9443 96.346 40.713 96.4775C40.4822 96.6078 40.2903 96.7974 40.1571 97.0266C40.0065 97.2674 39.9201 97.5429 39.9063 97.8266Z" fill="#272727"/>
<path d="M49.5194 100.125V95.4199L47.4314 99.074H47.0721L44.9501 95.4335V100.125H44.4077V94.3623H44.9908L47.2415 98.3147L49.5127 94.3623H50.0889V100.125H49.5194Z" fill="#272727"/>
<path d="M50.9636 98.9248C50.959 98.68 51.0379 98.4409 51.1873 98.2469C51.3565 98.0457 51.5766 97.8935 51.8246 97.8062C52.1207 97.6923 52.4361 97.637 52.7534 97.6435C52.9688 97.6465 53.1838 97.6624 53.3974 97.691C53.599 97.7181 53.7969 97.7681 53.9872 97.8401V97.4808C53.9954 97.3258 53.9719 97.1708 53.9183 97.0251C53.8647 96.8794 53.782 96.7462 53.6754 96.6334C53.5566 96.5254 53.4175 96.4422 53.2661 96.3886C53.1148 96.3351 52.9543 96.3123 52.794 96.3215C52.5625 96.3205 52.3327 96.3619 52.1161 96.4436C51.8783 96.5451 51.6512 96.67 51.4381 96.8164L51.228 96.4232C51.4799 96.2469 51.7533 96.1034 52.0415 95.9961C52.3025 95.9024 52.5777 95.8542 52.855 95.8537C53.0812 95.8416 53.3076 95.875 53.5207 95.9518C53.7338 96.0287 53.9293 96.1475 54.0957 96.3012C54.2519 96.4634 54.3728 96.6561 54.451 96.8673C54.5292 97.0784 54.5628 97.3035 54.5499 97.5283V99.4469C54.5427 99.5074 54.5598 99.5684 54.5974 99.6164C54.6408 99.654 54.6959 99.6755 54.7533 99.6774V100.125H54.5974C54.5661 100.132 54.5337 100.132 54.5025 100.125C54.4443 100.126 54.3865 100.116 54.3328 100.094C54.2791 100.071 54.2306 100.038 54.1906 99.996C54.1262 99.9243 54.0859 99.8342 54.0753 99.7384V99.4469C53.8822 99.6955 53.6275 99.8895 53.3364 100.01C53.0445 100.142 52.7281 100.211 52.4076 100.213C52.1506 100.215 51.897 100.154 51.6686 100.037C51.4601 99.9294 51.2844 99.7678 51.1602 99.5689C51.0349 99.3772 50.9667 99.1538 50.9636 98.9248ZM53.8042 99.2435C53.8566 99.1759 53.902 99.1032 53.9398 99.0265C53.9697 98.9701 53.986 98.9074 53.9872 98.8435V98.2333C53.8039 98.1585 53.6129 98.1039 53.4177 98.0706C53.2189 98.0324 53.0168 98.0143 52.8144 98.0164C52.4802 98.0002 52.1485 98.0802 51.8585 98.2469C51.7457 98.3103 51.6522 98.403 51.5878 98.5152C51.5233 98.6274 51.4904 98.7548 51.4924 98.8842C51.4919 99.0395 51.5341 99.1919 51.6144 99.3248C51.7008 99.4686 51.8251 99.5859 51.9737 99.6638C52.1424 99.7538 52.3317 99.7982 52.5228 99.7926C52.7791 99.7957 53.0332 99.7448 53.2686 99.6435C53.4777 99.5569 53.6618 99.4194 53.8042 99.2435Z" fill="#272727"/>
<path d="M57.7702 96.3824C57.4234 96.3883 57.086 96.4968 56.8008 96.6943C56.5224 96.8926 56.3155 97.1756 56.2109 97.501V100.125H55.655V95.9011H56.177V96.9044C56.3127 96.6208 56.5123 96.3725 56.7601 96.179C56.979 96.0016 57.2456 95.893 57.5262 95.8672H57.7702V96.3824Z" fill="#272727"/>
<path d="M61.4583 100.125L59.8651 97.9691L58.9634 98.8097V100.166H58.4143V94.2268H58.9634V98.247L61.3634 95.942H61.9735L60.2448 97.6708L62.0617 100.125H61.4583Z" fill="#272727"/>
<path d="M64.2716 100.22C63.985 100.22 63.7015 100.16 63.4398 100.043C63.1781 99.9264 62.9441 99.7556 62.753 99.5419C62.5631 99.3456 62.4114 99.1157 62.3056 98.864C62.2018 98.5935 62.149 98.3062 62.1496 98.0166C62.1443 97.6376 62.2378 97.2637 62.4208 96.9318C62.6 96.6095 62.8592 96.3386 63.1733 96.1454C63.5016 95.9447 63.8801 95.8413 64.2648 95.8471C64.6498 95.839 65.0289 95.9426 65.3563 96.1454C65.6654 96.3435 65.9196 96.6163 66.0953 96.9386C66.2752 97.2668 66.3685 97.6355 66.3665 98.0098V98.1318C66.3713 98.1633 66.3713 98.1953 66.3665 98.2267H62.7259C62.7494 98.5117 62.8375 98.7876 62.9835 99.0335C63.1227 99.2621 63.3159 99.453 63.5462 99.5894C63.7739 99.7243 64.0341 99.7946 64.2987 99.7928C64.5749 99.7939 64.8464 99.7214 65.0851 99.5826C65.3108 99.4588 65.4912 99.2665 65.6004 99.0335L66.0817 99.1623C65.9864 99.3682 65.8503 99.5527 65.6817 99.7046C65.4971 99.8695 65.2833 99.9983 65.0512 100.084C64.8013 100.175 64.5374 100.221 64.2716 100.22ZM62.7123 97.8267H65.8444C65.8283 97.5413 65.7421 97.2642 65.5936 97.02C65.4527 96.7883 65.2532 96.5979 65.015 96.4681C64.7769 96.3383 64.5088 96.2738 64.2377 96.281C63.9738 96.2785 63.7141 96.3464 63.4852 96.4776C63.2538 96.6096 63.0601 96.7986 62.9225 97.0267C62.789 97.2726 62.7169 97.547 62.7123 97.8267Z" fill="#272727"/>
<path d="M69.1393 99.969C69.0687 99.9912 69.0005 100.021 68.936 100.057C68.8292 100.104 68.7179 100.141 68.6038 100.166C68.4642 100.202 68.3207 100.22 68.1767 100.22C68.0247 100.22 67.8745 100.187 67.736 100.125C67.5988 100.073 67.4823 99.9777 67.4038 99.8537C67.3181 99.7181 67.2756 99.5598 67.2818 99.3995V96.3555H66.6987V95.9148H67.2818V94.4844H67.8377V95.9148H68.8139V96.3555H67.8377V99.2504C67.8366 99.3156 67.8508 99.3802 67.879 99.439C67.9073 99.4979 67.9488 99.5493 68.0004 99.5893C68.1001 99.6641 68.2215 99.7046 68.3461 99.7046C68.4896 99.7053 68.632 99.6801 68.7665 99.63C68.8456 99.6011 68.9208 99.5624 68.9902 99.5148L69.1393 99.969Z" fill="#272727"/>
</svg>
