<svg width="114" height="118" viewBox="0 0 114 118" fill="none" xmlns="http://www.w3.org/2000/svg">
<path d="M0.708008 52.8078L65.4181 117.518C96.0582 86.1027 113.451 44.1126 114 0.23291H22.4769C21.9257 19.8371 14.1766 38.5522 0.708008 52.8078Z" fill="#E6EBED"/>
<path d="M40.0561 67.1735C39.7642 67.1762 39.4752 67.1161 39.2087 66.9972C38.9528 66.8837 38.7223 66.72 38.5307 66.5159C38.3443 66.3181 38.1951 66.0885 38.0901 65.8379C37.9825 65.5662 37.9295 65.2759 37.9341 64.9837C37.9287 64.6068 38.0223 64.2352 38.2053 63.9058C38.3825 63.5819 38.6421 63.3106 38.9578 63.1193C39.2861 62.9187 39.6646 62.8152 40.0493 62.821C40.4341 62.8152 40.8125 62.9187 41.1408 63.1193C41.4483 63.3194 41.702 63.5917 41.8798 63.9125C42.0568 64.2392 42.1478 64.6054 42.1442 64.9769V65.1057C42.1481 65.1372 42.1481 65.1691 42.1442 65.2006H38.5104C38.5297 65.4843 38.6181 65.759 38.768 66.0006C38.9026 66.2323 39.0939 66.4259 39.3239 66.5633C39.5517 66.6982 39.8118 66.7685 40.0764 66.7667C40.3527 66.7685 40.6243 66.6959 40.8629 66.5565C41.0934 66.4359 41.2753 66.2396 41.3781 66.0006L41.8594 66.1362C41.7665 66.3436 41.6301 66.5285 41.4595 66.6786C41.2769 66.8462 41.0625 66.9753 40.829 67.0582C40.5803 67.1424 40.3185 67.1814 40.0561 67.1735ZM38.49 64.7803H41.6222C41.6083 64.4954 41.5245 64.2183 41.3781 63.9736C41.2426 63.7445 41.0497 63.5547 40.8185 63.4228C40.5872 63.291 40.3257 63.2216 40.0595 63.2216C39.7933 63.2216 39.5317 63.291 39.3005 63.4228C39.0693 63.5547 38.8764 63.7445 38.7409 63.9736C38.5943 64.2187 38.5083 64.4953 38.49 64.7803Z" fill="#272727"/>
<path d="M42.9917 67.0919V61.3158H45.3577C45.5921 61.313 45.8241 61.364 46.0357 61.4649C46.2425 61.5677 46.4269 61.7106 46.578 61.8853C46.7283 62.0616 46.8496 62.2607 46.9373 62.4751C47.0273 62.6896 47.0712 62.9205 47.0662 63.153C47.0683 63.4638 46.9963 63.7706 46.856 64.0479C46.7235 64.3185 46.5254 64.5516 46.2797 64.7259C46.0192 64.8998 45.7116 64.9897 45.3984 64.9835H43.5273V67.119L42.9917 67.0919ZM43.5612 64.4547H45.4052C45.6198 64.4607 45.8301 64.3938 46.0018 64.2649C46.1731 64.1392 46.3087 63.9709 46.395 63.7767C46.4899 63.5636 46.5362 63.332 46.5306 63.0988C46.5364 62.8625 46.4803 62.6288 46.3679 62.4208C46.2686 62.2286 46.1215 62.0652 45.9408 61.9463C45.7681 61.8313 45.5652 61.7699 45.3577 61.77H43.5612V64.4547Z" fill="#272727"/>
<path d="M47.4729 65.8786C47.4674 65.6325 47.5491 65.3924 47.7034 65.2007C47.8687 64.9982 48.087 64.8456 48.3339 64.76C48.63 64.6461 48.9455 64.5908 49.2627 64.5973C49.4782 64.6001 49.6932 64.616 49.9067 64.6447C50.1104 64.6727 50.3105 64.7227 50.5033 64.7939V64.4346C50.5102 64.2791 50.4855 64.1239 50.4307 63.9783C50.376 63.8326 50.2923 63.6996 50.1847 63.5871C50.0661 63.4788 49.927 63.3954 49.7757 63.3419C49.6243 63.2883 49.4637 63.2657 49.3034 63.2753C49.072 63.2755 48.8424 63.3168 48.6254 63.3973C48.3868 63.4971 48.1596 63.6221 47.9475 63.7702L47.7373 63.377C47.9879 63.1984 48.2615 63.0547 48.5509 62.9499C48.8117 62.8556 49.087 62.8075 49.3644 62.8075C49.5895 62.7963 49.8145 62.8301 50.0264 62.9069C50.2383 62.9838 50.4327 63.1021 50.5983 63.255C50.7544 63.4172 50.8754 63.6099 50.9536 63.821C51.0317 64.0322 51.0654 64.2572 51.0525 64.482V66.4277C51.0485 66.488 51.0652 66.5478 51.0999 66.5972C51.1434 66.6348 51.1984 66.6564 51.2559 66.6582V67.0989H51.0999C51.0687 67.1059 51.0363 67.1059 51.005 67.0989C50.947 67.0997 50.8895 67.0888 50.8358 67.0666C50.7822 67.0445 50.7337 67.0116 50.6932 66.9701C50.6267 66.8977 50.5883 66.8039 50.5847 66.7057V66.4006C50.3915 66.6493 50.1368 66.8432 49.8457 66.9633C49.5542 67.0965 49.2375 67.1658 48.9169 67.1667C48.6621 67.1695 48.4105 67.1089 48.1848 66.9904C47.9732 66.885 47.7948 66.7231 47.6695 66.5227C47.5442 66.331 47.476 66.1076 47.4729 65.8786ZM50.3135 66.1972C50.3707 66.1331 50.4165 66.0598 50.4491 65.9803C50.4808 65.9242 50.4993 65.8616 50.5033 65.7973V65.1871C50.3173 65.1133 50.1242 65.0588 49.9271 65.0244C49.7308 64.984 49.5309 64.9635 49.3305 64.9634C48.9935 64.9487 48.6594 65.0311 48.3678 65.2007C48.2551 65.2641 48.1616 65.3568 48.0971 65.469C48.0327 65.5811 47.9997 65.7086 48.0017 65.8379C48.0023 65.9931 48.0444 66.1453 48.1237 66.2786C48.212 66.4209 48.3358 66.5378 48.4831 66.6176C48.6539 66.7084 48.8456 66.7529 49.039 66.7464C49.2931 66.7493 49.5449 66.6985 49.7779 66.5972C49.987 66.5107 50.1712 66.3732 50.3135 66.1972Z" fill="#272727"/>
<path d="M52.3066 68.3938H52.5236C52.5753 68.4017 52.6278 68.4017 52.6795 68.3938C52.7528 68.3751 52.819 68.335 52.8693 68.2785C52.9566 68.1648 53.0274 68.0392 53.0795 67.9056C53.1609 67.7226 53.2761 67.4514 53.4185 67.0921L51.5745 62.8481H52.1372L53.6964 66.5091L55.1269 62.8481H55.676L53.4795 68.2717C53.4401 68.3779 53.3828 68.4765 53.31 68.5632C53.2326 68.6515 53.1381 68.723 53.032 68.7734C52.9 68.8244 52.76 68.852 52.6185 68.8548H52.4693H52.2863L52.3066 68.3938Z" fill="#272727"/>
<path d="M62.6927 67.0921H62.1436V64.7396C62.1704 64.3628 62.088 63.9862 61.9063 63.6549C61.8313 63.5451 61.73 63.4559 61.6115 63.3954C61.493 63.335 61.3613 63.3053 61.2284 63.3092C60.9082 63.3062 60.5995 63.4277 60.3674 63.6481C60.1116 63.8807 59.928 64.1819 59.8385 64.5159V67.0921H59.2826V64.7396C59.3113 64.3613 59.2313 63.9826 59.0521 63.6481C58.9773 63.5386 58.8758 63.45 58.7571 63.3907C58.6385 63.3314 58.5067 63.3033 58.3742 63.3092C58.0594 63.3102 57.7557 63.4259 57.52 63.6346C57.2606 63.8681 57.0745 64.1719 56.9844 64.5091V67.0921H56.4285V62.8482H56.8827V63.8109C57.0381 63.5026 57.2719 63.2407 57.5606 63.0515C57.8384 62.8697 58.1643 62.7752 58.4962 62.7804C58.8086 62.7674 59.1141 62.874 59.3504 63.0787C59.5697 63.2866 59.7089 63.5649 59.7436 63.8651C59.9043 63.5474 60.1363 63.2713 60.4216 63.0583C60.6982 62.8733 61.0244 62.7764 61.3572 62.7804C61.5655 62.7764 61.772 62.8204 61.9605 62.9092C62.1242 62.9962 62.2622 63.1248 62.3605 63.2821C62.4673 63.4569 62.5409 63.65 62.5775 63.8515C62.626 64.0994 62.6487 64.3515 62.6453 64.604L62.6927 67.0921Z" fill="#272727"/>
<path d="M65.6146 67.1735C65.328 67.1739 65.0446 67.1137 64.7829 66.9968C64.5211 66.88 64.2871 66.7092 64.096 66.4956C63.9075 66.2982 63.7559 66.0686 63.6486 65.8176C63.5442 65.545 63.4913 65.2553 63.4927 64.9634C63.4873 64.5866 63.5808 64.2149 63.7638 63.8855C63.941 63.5616 64.2006 63.2903 64.5164 63.099C64.8447 62.8984 65.2231 62.7949 65.6078 62.8007C65.9929 62.7926 66.372 62.8962 66.6994 63.099C67.01 63.2991 67.2653 63.5741 67.4418 63.8987C67.6183 64.2233 67.7104 64.5871 67.7095 64.9566V65.0854C67.7138 65.1169 67.7138 65.1488 67.7095 65.1803H64.0689C64.0916 65.4634 64.1798 65.7372 64.3265 65.9803C64.4637 66.2123 64.6573 66.4058 64.8892 66.543C65.1169 66.6779 65.3771 66.7482 65.6418 66.7464C65.9179 66.7475 66.1894 66.675 66.4282 66.5362C66.6558 66.4119 66.8366 66.2167 66.9434 65.9803L67.4247 66.1159C67.3294 66.3218 67.1933 66.5063 67.0248 66.6583C66.8402 66.8231 66.6263 66.9519 66.3943 67.0379C66.1443 67.1284 65.8804 67.1743 65.6146 67.1735ZM64.0553 64.7804H67.1875C67.1713 64.4949 67.0852 64.2179 66.9366 63.9736C66.7987 63.7469 66.6045 63.5597 66.3728 63.4302C66.1412 63.3007 65.88 63.2334 65.6146 63.2346C65.3508 63.2321 65.091 63.3 64.8621 63.4312C64.6307 63.5632 64.437 63.7523 64.2994 63.9804C64.153 64.2227 64.0692 64.4976 64.0553 64.7804Z" fill="#272727"/>
<path d="M72.0417 67.0919H71.4926V64.7394C71.5211 64.3618 71.4436 63.9838 71.2689 63.6479C71.1955 63.5369 71.0942 63.4472 70.9753 63.3877C70.8563 63.3282 70.7237 63.3011 70.5909 63.3089C70.3669 63.309 70.1461 63.3624 69.9469 63.4648C69.7337 63.5686 69.5438 63.7147 69.3888 63.8942C69.2338 64.0737 69.1169 64.2828 69.0452 64.5089V67.0919H68.4961V62.8479H68.9978V63.8106C69.1143 63.6052 69.2657 63.4217 69.4452 63.2682C69.6327 63.116 69.8433 62.9948 70.0689 62.9089C70.3018 62.8257 70.547 62.7821 70.7943 62.7801C71.0005 62.7757 71.2049 62.8198 71.3909 62.9089C71.5521 62.9946 71.6859 63.1238 71.7774 63.2818C71.8842 63.4566 71.9577 63.6497 71.9943 63.8513C72.0371 64.0998 72.0575 64.3516 72.0553 64.6038L72.0417 67.0919Z" fill="#272727"/>
<path d="M75.1332 66.9159L74.9298 67.0108C74.8234 67.059 74.712 67.0954 74.5977 67.1192C74.4604 67.1552 74.3192 67.1734 74.1773 67.1735C74.0232 67.1734 73.8708 67.1411 73.7299 67.0786C73.5952 67.0253 73.4812 66.9302 73.4045 66.8074C73.3188 66.6718 73.2763 66.5134 73.2824 66.3532V63.3092H72.6926V62.8482H73.2824V61.4177H73.8316V62.8482H74.8078V63.2888H73.8316V66.1769C73.8323 66.2435 73.8479 66.3091 73.8772 66.369C73.9065 66.4288 73.9489 66.4813 74.0011 66.5227C74.1008 66.5975 74.2221 66.6379 74.3468 66.6379C74.4881 66.6386 74.6282 66.6133 74.7604 66.5633C74.8414 66.5339 74.9187 66.4952 74.9909 66.4481L75.1332 66.9159Z" fill="#272727"/>
<path d="M79.6077 31.2827C69.2012 26.4218 58.8015 34.2995 48.4221 34.0283C48.2423 34.0283 48.0699 34.0998 47.9427 34.2269C47.8156 34.3541 47.7441 34.5265 47.7441 34.7063C47.7456 34.8889 47.8164 35.0641 47.9424 35.1963C48.0683 35.3285 48.2398 35.4078 48.4221 35.4182C58.7472 35.6893 69.0724 27.92 79.3975 32.564V47.7432C75.3298 45.906 71.2283 46.0145 67.147 46.7941L66.9436 48.1975C71.174 47.3636 75.3976 47.2348 79.628 49.2144C80.2517 49.5059 80.767 49.289 80.767 48.6585V33.0182C80.7689 32.6463 80.6595 32.2823 80.453 31.973C80.2464 31.6637 79.952 31.4233 79.6077 31.2827Z" fill="#272727"/>
<path d="M65.8521 47.0315C60.0353 48.3264 54.2185 50.7263 48.4017 50.5772C48.2219 50.5772 48.0495 50.6486 47.9223 50.7757C47.7952 50.9029 47.7237 51.0753 47.7237 51.2551C47.7192 51.3469 47.7333 51.4388 47.7653 51.525C47.7973 51.6112 47.8465 51.69 47.9099 51.7565C47.9733 51.8231 48.0496 51.8761 48.1342 51.9123C48.2187 51.9485 48.3097 51.9671 48.4017 51.967C54.5032 52.1297 60.5573 49.506 66.6317 48.2653L65.8521 47.0315Z" fill="#272727"/>
<path d="M65.3909 46.3267L63.9673 44.1301L67.3096 38.7065L63.2825 43.764L59.4047 42.5098C59.4078 42.5527 59.4078 42.5958 59.4047 42.6386C59.3919 42.8558 59.313 43.0638 59.1784 43.2347C59.0439 43.4056 58.8602 43.5312 58.6521 43.5945L57.5878 43.8793C52.5371 45.2013 47.4864 46.0555 42.4356 44.042C42.0221 43.8793 41.6831 44.042 41.6831 44.4759C41.7007 44.7056 41.7798 44.9263 41.9123 45.1148C42.0447 45.3033 42.2255 45.4526 42.4356 45.547C47.4864 47.5809 52.5371 46.6995 57.5878 45.3775L59.486 44.8623C59.5716 44.8293 59.664 44.8183 59.7549 44.8303C59.8458 44.8422 59.9323 44.8767 60.0064 44.9306C60.0806 44.9845 60.1401 45.0562 60.1794 45.139C60.2188 45.2218 60.2368 45.3131 60.2318 45.4047C60.22 45.6201 60.1431 45.8269 60.0111 45.9976C59.8791 46.1683 59.6984 46.2949 59.4928 46.3606C54.7472 47.6758 50.0015 48.8418 45.2559 47.8859C45.1673 47.859 45.0735 47.8535 44.9823 47.87C44.8911 47.8865 44.8052 47.9245 44.7316 47.9808C44.6581 48.0371 44.599 48.1102 44.5593 48.1939C44.5196 48.2776 44.5004 48.3696 44.5034 48.4622C44.5119 48.6767 44.5899 48.8826 44.7256 49.0489C44.8613 49.2152 45.0475 49.3329 45.2559 49.3842C47.1204 49.7438 49.0273 49.8305 50.9168 49.6418C55.7641 49.2486 60.5775 47.4453 65.3909 46.3267Z" fill="#272727"/>
<path d="M61.3979 33.8725H61.3437C56.2929 35.2759 51.249 36.8012 46.1983 36.0623C46.1063 36.0428 46.0112 36.0445 45.9199 36.067C45.8287 36.0895 45.7437 36.1323 45.6713 36.1923C45.599 36.2523 45.5411 36.3278 45.502 36.4133C45.463 36.4988 45.4438 36.592 45.4458 36.686C45.4518 36.896 45.5299 37.0975 45.6669 37.2568C45.8039 37.416 45.9915 37.5233 46.1983 37.5606C47.7705 37.7835 49.3637 37.8176 50.9439 37.6622C54.4083 37.3504 57.8726 36.3063 61.3369 35.364C61.4228 35.3295 61.516 35.3174 61.6078 35.3286C61.6997 35.3398 61.7872 35.3741 61.8623 35.4282C61.9374 35.4823 61.9976 35.5545 62.0373 35.6381C62.077 35.7217 62.0949 35.814 62.0894 35.9064C62.0776 36.1238 61.999 36.3323 61.8643 36.5033C61.7297 36.6744 61.5455 36.7998 61.3369 36.8623C57.8726 37.8317 54.4083 38.8554 50.9439 39.1605C47.585 39.5438 44.1865 38.9605 41.1476 37.4792C40.7341 37.2758 40.4019 37.4182 40.4019 37.8317C40.4213 38.0696 40.4996 38.2989 40.6298 38.4989C40.76 38.699 40.9379 38.8634 41.1476 38.9775C46.1983 41.4926 51.249 40.9435 56.2997 39.7232C56.8692 39.5876 57.4319 39.4385 58.0014 39.2893C58.0875 39.2579 58.1801 39.2483 58.2708 39.2613C58.3616 39.2743 58.4477 39.3096 58.5215 39.3639C58.5953 39.4183 58.6545 39.4901 58.6939 39.5729C58.7333 39.6556 58.7516 39.7469 58.7471 39.8384C58.7364 40.0544 58.6589 40.2617 58.5253 40.4317C58.3917 40.6017 58.2087 40.7261 58.0014 40.7876C55.6875 41.4409 53.3218 41.8946 50.9304 42.1435C48.3108 42.4252 45.6613 42.1408 43.1611 41.3096C42.7476 41.174 42.4154 41.3706 42.4154 41.7842C42.429 42.009 42.5064 42.2253 42.6385 42.4078C42.7705 42.5903 42.9518 42.7314 43.1611 42.8146C45.6625 43.6403 48.3113 43.9223 50.9304 43.6417C53.4543 43.3657 55.9494 42.8712 58.3878 42.1638L68.557 36.625L67.2011 45.8993C70.957 45.2214 74.7128 45.0722 78.4686 46.5095V33.0183C72.8078 30.8624 67.0995 32.2861 61.3979 33.8725Z" fill="#272727"/>
</svg>
