<svg width="114" height="118" viewBox="0 0 114 118" fill="none" xmlns="http://www.w3.org/2000/svg">
<path d="M22.4769 117.487H114C113.451 73.6077 96.0576 31.6177 65.4181 0.202148L0.708008 64.9123C14.1761 79.1682 21.9251 97.8831 22.4769 117.487Z" fill="#E6EBED"/>
<path d="M49.9677 102.084C49.6758 102.087 49.3868 102.027 49.1203 101.908C48.8635 101.796 48.6327 101.632 48.4423 101.427C48.2524 101.232 48.1027 101.002 48.0017 100.749C47.8924 100.48 47.8371 100.192 47.8389 99.9014C47.836 99.5218 47.9318 99.148 48.1169 98.8167C48.2916 98.491 48.5518 98.2191 48.8694 98.0302C49.2001 97.8353 49.577 97.7324 49.9609 97.7324C50.3448 97.7324 50.7217 97.8353 51.0524 98.0302C51.3596 98.2285 51.6115 98.5014 51.7846 98.8234C51.9674 99.1505 52.0609 99.5199 52.0558 99.8946V100.017C52.06 100.048 52.06 100.08 52.0558 100.112H48.4287C48.45 100.396 48.5358 100.672 48.6796 100.918C48.8207 101.145 49.0135 101.336 49.2423 101.474C49.47 101.609 49.7301 101.679 49.9948 101.678C50.2665 101.677 50.5331 101.604 50.7677 101.467C50.9948 101.346 51.1758 101.153 51.2829 100.918L51.7643 101.047C51.6713 101.254 51.5349 101.439 51.3643 101.589C51.1818 101.757 50.9673 101.886 50.7338 101.969C50.4871 102.052 50.2278 102.091 49.9677 102.084ZM48.4016 99.6912H51.5338C51.5199 99.4063 51.4361 99.1292 51.2897 98.8845C51.1501 98.6598 50.9567 98.4734 50.727 98.3421C50.495 98.2124 50.2335 98.1447 49.9677 98.1455C49.7018 98.1437 49.44 98.2115 49.2084 98.3421C48.9776 98.4725 48.7857 98.662 48.6525 98.8912C48.5047 99.1334 48.4186 99.4081 48.4016 99.6912Z" fill="#272727"/>
<path d="M56.3201 97.3049C56.2345 97.2132 56.139 97.1313 56.0353 97.0608C55.9207 96.9842 55.7979 96.9205 55.6692 96.871C55.5283 96.8147 55.3832 96.7693 55.2353 96.7354C55.0721 96.7052 54.9065 96.6893 54.7404 96.6879C54.3474 96.6555 53.9551 96.7583 53.6286 96.9795C53.5129 97.0727 53.4207 97.1919 53.3595 97.3273C53.2983 97.4627 53.2697 97.6106 53.2761 97.7591C53.2634 97.9526 53.3239 98.1437 53.4456 98.2947C53.5864 98.4476 53.7672 98.558 53.9676 98.6133C54.2049 98.6947 54.5099 98.776 54.876 98.8642C55.2415 98.9367 55.5999 99.041 55.9472 99.176C56.2116 99.2739 56.4455 99.44 56.6251 99.6574C56.7986 99.8971 56.8847 100.189 56.8692 100.484C56.8716 100.72 56.8182 100.952 56.7133 101.162C56.6082 101.355 56.4596 101.519 56.2794 101.644C56.0764 101.787 55.8454 101.887 55.6014 101.935C55.3259 102 55.0437 102.031 54.7608 102.03C54.4734 102.03 54.1869 101.998 53.9066 101.935C53.6361 101.875 53.3742 101.782 53.1269 101.657C52.8819 101.531 52.654 101.374 52.449 101.19L52.7337 100.729C52.8476 100.842 52.9725 100.945 53.1066 101.034C53.2602 101.132 53.4211 101.218 53.5879 101.291C53.7715 101.367 53.9623 101.424 54.1574 101.461C54.365 101.502 54.5762 101.522 54.7879 101.522C55.1639 101.544 55.5382 101.457 55.8658 101.271C55.9905 101.192 56.0919 101.081 56.1598 100.95C56.2277 100.819 56.2596 100.673 56.2523 100.525C56.2613 100.317 56.191 100.114 56.0556 99.9557C55.8956 99.789 55.6946 99.6674 55.4726 99.6031C55.1571 99.4945 54.8357 99.404 54.5099 99.3319C54.1633 99.2548 53.8233 99.1505 53.493 99.0201C53.2481 98.9309 53.0323 98.7761 52.8693 98.5726C52.7243 98.3519 52.653 98.0907 52.6659 97.8269C52.6546 97.5057 52.7473 97.1895 52.9303 96.9252C53.112 96.6708 53.3641 96.4752 53.6557 96.3625C53.9945 96.2297 54.3562 96.1652 54.7201 96.1727C54.9594 96.1719 55.198 96.1969 55.4319 96.2473C55.6436 96.2971 55.8484 96.3722 56.0421 96.471C56.2317 96.5725 56.4091 96.6953 56.5709 96.8371L56.3201 97.3049Z" fill="#272727"/>
<path d="M59.5131 102.084C59.2236 102.086 58.937 102.026 58.6725 101.908C58.4158 101.796 58.185 101.632 57.9945 101.427C57.8046 101.232 57.6549 101.001 57.5539 100.749C57.4447 100.48 57.3894 100.192 57.3912 99.9012C57.3892 99.5226 57.4824 99.1496 57.6624 98.8165C57.8416 98.4941 58.1007 98.2233 58.4149 98.0301C58.7432 97.8294 59.1216 97.726 59.5064 97.7318C59.8934 97.7247 60.2744 97.8282 60.6046 98.0301C60.9118 98.2283 61.1637 98.5012 61.3368 98.8233C61.5196 99.1504 61.6131 99.5198 61.608 99.8944V100.016C61.608 100.057 61.608 100.091 61.608 100.111H57.9742C57.9978 100.396 58.0859 100.672 58.2318 100.918C58.371 101.147 58.5642 101.338 58.7945 101.474C59.0222 101.609 59.2824 101.679 59.547 101.677C59.8232 101.679 60.0947 101.606 60.3334 101.467C60.5606 101.345 60.7416 101.153 60.8487 100.918L61.33 101.047C61.2347 101.253 61.0986 101.437 60.93 101.589C60.7475 101.757 60.5331 101.886 60.2996 101.969C60.0462 102.053 59.78 102.092 59.5131 102.084ZM57.9539 99.6911H61.086C61.073 99.4051 60.9866 99.1272 60.8351 98.8843C60.7 98.6584 60.5084 98.4715 60.2792 98.3419C60.0451 98.2114 59.7812 98.1436 59.5131 98.1453C59.2488 98.1438 58.9886 98.2119 58.7589 98.3428C58.5292 98.4737 58.3381 98.6628 58.2047 98.8911C58.0541 99.1319 57.9677 99.4073 57.9539 99.6911Z" fill="#272727"/>
<path d="M64.4961 98.2538C64.1473 98.2543 63.8068 98.3607 63.5198 98.5589C63.2414 98.7573 63.0346 99.0402 62.93 99.3657V102.003H62.3809V97.7793H62.9029V98.7555C63.0351 98.4717 63.2326 98.2231 63.4791 98.0301C63.7011 97.8535 63.9696 97.7452 64.252 97.7183H64.4961V98.2538Z" fill="#272727"/>
<path d="M66.4147 102.003L64.6995 97.7793H65.2757L66.7265 101.454L68.1773 97.7793H68.7265L67.0384 102.003H66.4147Z" fill="#272727"/>
<path d="M69.4111 96.8776V96.0437H69.9603V96.8572L69.4111 96.8776ZM69.4111 102.003V97.7657H69.9603V102.003H69.4111Z" fill="#272727"/>
<path d="M72.9366 102.084C72.6447 102.087 72.3557 102.027 72.0892 101.908C71.8343 101.793 71.604 101.629 71.4112 101.427C71.0182 101.009 70.802 100.455 70.8078 99.8809C70.8026 99.4998 70.896 99.1238 71.079 98.7894C71.2535 98.4658 71.5109 98.1944 71.8247 98.003C72.1598 97.8072 72.5418 97.7065 72.9298 97.7115C73.2991 97.705 73.6629 97.8012 73.9806 97.9894C74.2755 98.1593 74.5119 98.4146 74.6586 98.7216L74.1162 98.8911C74.0027 98.6782 73.8311 98.5019 73.6213 98.3827C73.414 98.2663 73.181 98.2033 72.9434 98.1996C72.6693 98.1963 72.4004 98.2742 72.1705 98.4233C71.9324 98.5676 71.7379 98.7738 71.6078 99.0199C71.4693 99.2855 71.3994 99.5815 71.4044 99.8809C71.3991 100.183 71.4715 100.482 71.6146 100.749C71.748 100.998 71.9414 101.21 72.1773 101.366C72.3679 101.49 72.5858 101.567 72.8124 101.589C73.0389 101.612 73.2676 101.579 73.4789 101.494C73.6453 101.439 73.7978 101.349 73.9264 101.23C74.0446 101.137 74.1339 101.012 74.184 100.871L74.7331 101.033C74.6497 101.241 74.5198 101.426 74.3535 101.576C74.1717 101.736 73.9628 101.862 73.7366 101.949C73.4806 102.043 73.2094 102.089 72.9366 102.084Z" fill="#272727"/>
<path d="M77.2755 102.084C76.9889 102.085 76.7055 102.025 76.4437 101.908C76.182 101.791 75.948 101.62 75.7569 101.406C75.567 101.21 75.4153 100.98 75.3095 100.729C75.2058 100.458 75.1529 100.171 75.1535 99.8811C75.1482 99.5021 75.2417 99.1283 75.4247 98.7964C75.6039 98.474 75.8631 98.2032 76.1772 98.0099C76.5055 97.8093 76.884 97.7058 77.2687 97.7117C77.6535 97.7058 78.0319 97.8093 78.3602 98.0099C78.6677 98.21 78.9214 98.4823 79.0992 98.8032C79.2768 99.132 79.3677 99.5006 79.3636 99.8743V99.9963C79.3678 100.028 79.3678 100.06 79.3636 100.091H75.7366C75.7601 100.376 75.8482 100.652 75.9942 100.898C76.1334 101.127 76.3266 101.318 76.5569 101.454C76.7846 101.589 77.0448 101.659 77.3094 101.657C77.5834 101.658 77.8526 101.586 78.089 101.447C78.3181 101.326 78.5014 101.133 78.6111 100.898L79.0856 101.027C78.9952 101.234 78.8611 101.419 78.6924 101.569C78.5078 101.734 78.294 101.863 78.0619 101.949C77.8099 102.04 77.5436 102.086 77.2755 102.084ZM75.7162 99.6913H78.8484C78.8291 99.4064 78.7431 99.1301 78.5975 98.8845C78.462 98.6554 78.2691 98.4656 78.0379 98.3338C77.8066 98.2019 77.5451 98.1326 77.2789 98.1326C77.0127 98.1326 76.7512 98.2019 76.5199 98.3338C76.2887 98.4656 76.0958 98.6554 75.9603 98.8845C75.8139 99.1293 75.73 99.4064 75.7162 99.6913Z" fill="#272727"/>
<path d="M81.5331 102.084C81.2025 102.085 80.8743 102.028 80.5636 101.915C80.2699 101.801 80.0056 101.623 79.7908 101.393L80.0145 101C80.2261 101.203 80.4716 101.368 80.7399 101.488C80.9832 101.586 81.2434 101.637 81.506 101.637C81.788 101.648 82.0674 101.58 82.3127 101.44C82.407 101.378 82.4842 101.294 82.5375 101.194C82.5907 101.095 82.6184 100.984 82.6178 100.871C82.6233 100.799 82.6127 100.728 82.5869 100.661C82.5611 100.594 82.5207 100.534 82.4687 100.484C82.3432 100.383 82.1976 100.309 82.0416 100.267L81.3636 100.084C81.1101 100.021 80.8628 99.9344 80.6247 99.8267C80.4477 99.7561 80.2931 99.639 80.1772 99.4877C80.0701 99.3304 80.0177 99.1422 80.0281 98.9521C80.0202 98.71 80.0916 98.472 80.2314 98.2742C80.3816 98.0886 80.578 97.946 80.8009 97.8606C81.0609 97.763 81.3368 97.7147 81.6145 97.7183C81.9089 97.7138 82.2013 97.7667 82.4754 97.8742C82.711 97.9671 82.9205 98.1161 83.0856 98.3081L82.8144 98.681C82.6705 98.51 82.4865 98.3772 82.2789 98.2945C82.0626 98.2108 81.8328 98.1672 81.6009 98.1657C81.4331 98.1658 81.2663 98.1909 81.106 98.2403C80.9584 98.2763 80.8243 98.354 80.7196 98.464C80.667 98.5227 80.6267 98.5914 80.6011 98.6659C80.5755 98.7404 80.565 98.8193 80.5704 98.8979C80.5625 99.0247 80.601 99.15 80.6789 99.2504C80.7782 99.3439 80.896 99.4155 81.0246 99.4606C81.1738 99.5148 81.3636 99.5759 81.5873 99.6369C81.8111 99.6979 82.1839 99.8131 82.4212 99.9013C82.6313 99.9709 82.8218 100.089 82.9771 100.247C83.115 100.412 83.1853 100.622 83.1737 100.837C83.1809 101.016 83.1438 101.193 83.0658 101.354C82.9877 101.515 82.8711 101.654 82.7263 101.759C82.3741 101.993 81.9555 102.107 81.5331 102.084Z" fill="#272727"/>
<path d="M77.0584 87.0541L74.1839 84.1864C74.0267 84.0293 73.823 83.9273 73.6031 83.8956C73.3831 83.8638 73.1588 83.904 72.9636 84.0101L70.1976 81.2441C72.8707 78.2706 74.2774 74.3711 74.118 70.3759C73.9587 66.3807 72.246 62.6056 69.3446 59.8544C66.4432 57.1033 62.5824 55.5935 58.5844 55.6466C54.5864 55.6997 50.7671 57.3116 47.9399 60.1388C45.1126 62.9661 43.5008 66.7854 43.4476 70.7834C43.3945 74.7814 44.9043 78.6422 47.6554 81.5436C50.4066 84.445 54.1817 86.1577 58.1769 86.317C62.1721 86.4763 66.0716 85.0697 69.0451 82.3966L71.784 85.1965C71.6787 85.3924 71.6397 85.6171 71.6727 85.8371C71.7057 86.057 71.8089 86.2604 71.967 86.4168L74.828 89.2845C74.9238 89.3813 75.0379 89.4581 75.1635 89.5105C75.2892 89.5629 75.424 89.5899 75.5602 89.5899C75.6963 89.5899 75.8312 89.5629 75.9568 89.5105C76.0825 89.4581 76.1965 89.3813 76.2924 89.2845L77.0313 88.5523C77.1334 88.4569 77.2152 88.3419 77.272 88.2142C77.3287 88.0865 77.3593 87.9487 77.3618 87.8089C77.3643 87.6692 77.3388 87.5304 77.2867 87.4008C77.2346 87.2711 77.157 87.1532 77.0584 87.0541ZM69.0112 81.2102C66.9906 83.2303 64.4164 84.606 61.614 85.1632C58.8116 85.7204 55.907 85.4341 53.2673 84.3406C50.6276 83.247 48.3714 81.3953 46.7841 79.0195C45.1968 76.6438 44.3496 73.8507 44.3496 70.9935C44.3496 68.1363 45.1968 65.3432 46.7841 62.9674C48.3714 60.5917 50.6276 58.74 53.2673 57.6464C55.907 56.5529 58.8116 56.2666 61.614 56.8238C64.4164 57.381 66.9906 58.7566 69.0112 60.7768C70.3612 62.1138 71.4328 63.7051 72.1641 65.4587C72.8955 67.2123 73.272 69.0935 73.272 70.9935C73.272 72.8935 72.8955 74.7747 72.1641 76.5283C71.4328 78.2819 70.3612 79.8732 69.0112 81.2102Z" fill="#272727"/>
<path d="M67.574 62.2142C65.8382 60.481 63.6275 59.3013 61.2214 58.8242C58.8153 58.347 56.3218 58.5938 54.0559 59.5334C51.79 60.4729 49.8535 62.0631 48.4912 64.1029C47.1288 66.1428 46.4016 68.5407 46.4016 70.9936C46.4016 73.4466 47.1288 75.8445 48.4912 77.8843C49.8535 79.9241 51.79 81.5143 54.0559 82.4539C56.3218 83.3934 58.8153 83.6402 61.2214 83.1631C63.6275 82.6859 65.8382 81.5062 67.574 79.773C69.8998 77.4432 71.2061 74.2857 71.2061 70.9936C71.2061 67.7016 69.8998 64.544 67.574 62.2142ZM66.9435 79.1629C65.3333 80.7787 63.2798 81.8803 61.043 82.3282C58.8063 82.7762 56.4869 82.5503 54.3787 81.6791C52.2704 80.808 50.4681 79.3308 49.1999 77.4347C47.9317 75.5385 47.2548 73.3087 47.2548 71.0275C47.2548 68.7464 47.9317 66.5165 49.1999 64.6204C50.4681 62.7242 52.2704 61.247 54.3787 60.3759C56.4869 59.5047 58.8063 59.2788 61.043 59.7268C63.2798 60.1747 65.3333 61.2763 66.9435 62.8921C69.0901 65.0515 70.2949 67.9726 70.2949 71.0173C70.2949 74.0621 69.0901 76.9832 66.9435 79.1426V79.1629Z" fill="#272727"/>
<path d="M64.5232 63.1362L62.7266 61.9362C62.626 61.8764 62.5115 61.8437 62.3944 61.8413H55.1946C55.0772 61.8414 54.9622 61.8743 54.8624 61.9362L53.0591 63.1362C52.9525 63.209 52.8724 63.3145 52.8308 63.4367C52.7893 63.559 52.7885 63.6914 52.8286 63.8141L53.2286 65.0141C53.2899 65.1504 53.3997 65.2591 53.5366 65.319C53.6735 65.379 53.8278 65.3861 53.9696 65.3388C54.1114 65.2915 54.2306 65.1933 54.3041 65.0632C54.3776 64.9331 54.4002 64.7803 54.3675 64.6345L54.1099 63.8684L55.1201 63.1904L57.9471 66.0175L55.9132 68.0513C55.896 68.0663 55.8822 68.0848 55.8726 68.1055L55.5675 68.4106L55.2218 67.0547C55.1831 66.901 55.0849 66.7689 54.9489 66.6875C54.8129 66.6062 54.6501 66.5822 54.4963 66.6208C54.3426 66.6595 54.2105 66.7576 54.1292 66.8937C54.0478 67.0297 54.0238 67.1925 54.0624 67.3462L54.659 69.7462C54.6848 69.8491 54.7372 69.9433 54.811 70.0195C54.8848 70.0957 54.9774 70.1511 55.0794 70.1801H55.2421C55.3205 70.1808 55.3981 70.1656 55.4704 70.1353C55.5427 70.105 55.608 70.0602 55.6624 70.0038L56.2454 69.4275L56.9844 70.3292L55.4183 76.5731C55.3456 76.8747 55.351 77.1899 55.434 77.4889C55.5171 77.7878 55.675 78.0607 55.8929 78.2816L58.4149 80.8035C58.5278 80.9149 58.68 80.9773 58.8386 80.9773C58.9972 80.9773 59.1494 80.9149 59.2623 80.8035L61.7843 78.2816C62.0038 78.0618 62.1629 77.789 62.246 77.4897C62.3292 77.1904 62.3336 76.8746 62.2589 76.5731L60.6996 70.3292L61.4385 69.4275L62.0148 70.0038C62.0707 70.0601 62.1372 70.1047 62.2106 70.135C62.2839 70.1652 62.3626 70.1806 62.4419 70.1801C62.4891 70.1867 62.537 70.1867 62.5843 70.1801C62.6858 70.1577 62.7793 70.108 62.8546 70.0363C62.9299 69.9646 62.9841 69.8736 63.0114 69.7733L64.8147 63.7735C64.8396 63.6501 64.8247 63.522 64.7724 63.4075C64.72 63.293 64.6328 63.1981 64.5232 63.1362ZM56.6454 63.0345H60.9368L58.7877 65.1904L56.6454 63.0345ZM61.0453 76.9189C61.0696 77.0192 61.0681 77.1241 61.0408 77.2237C61.0136 77.3233 60.9614 77.4144 60.8894 77.4884L58.7945 79.5832L56.6997 77.4884C56.6264 77.4151 56.5731 77.3243 56.5446 77.2247C56.5161 77.125 56.5135 77.0198 56.537 76.9189L58.0624 70.8173H59.5267L61.0453 76.9189ZM59.6894 69.6377H57.859L57.0319 68.6276L58.7742 66.8852L60.5165 68.6276L59.6894 69.6377ZM62.0826 68.4988L61.7775 68.1937C61.761 68.1659 61.7404 68.1408 61.7165 68.1191L59.6487 66.0853L62.4758 63.2582L63.4927 63.9362L62.0826 68.4988Z" fill="#272727"/>
</svg>
