<svg width="118" height="115" viewBox="0 0 118 115" fill="none" xmlns="http://www.w3.org/2000/svg">
<path d="M0.116455 22.5936V114.117C43.9961 113.568 85.9863 96.1749 117.401 65.5348L52.6913 0.824707C38.4357 14.2933 19.7206 22.0424 0.116455 22.5936Z" fill="#E6EBED"/>
<path d="M40.1696 92.0699V86.5785L37.729 90.8428H37.3155L34.8613 86.5785V92.0699H34.1833V85.3311H34.8613L37.4917 89.9411L40.1425 85.3311H40.8205V92.0699H40.1696Z" fill="#272727"/>
<path d="M44.3457 92.1647C44.005 92.1688 43.6674 92.0994 43.3559 91.9613C43.0613 91.8303 42.7962 91.6412 42.5763 91.4054C42.3588 91.1673 42.1865 90.8916 42.0678 90.5919C41.8254 89.9636 41.8254 89.2676 42.0678 88.6394C42.1865 88.338 42.3613 88.0619 42.583 87.8258C42.808 87.5838 43.081 87.3913 43.3844 87.2606C43.6879 87.1299 44.0153 87.0638 44.3457 87.0665C44.682 87.0631 45.015 87.1325 45.3219 87.2699C45.6159 87.4021 45.8808 87.591 46.1016 87.8258C46.3233 88.0619 46.4982 88.338 46.6168 88.6394C46.8517 89.269 46.8517 89.9622 46.6168 90.5919C46.4981 90.8916 46.3258 91.1673 46.1084 91.4054C45.8858 91.6382 45.6213 91.8268 45.3287 91.9613C45.0194 92.0988 44.6842 92.1682 44.3457 92.1647ZM42.5424 89.6292C42.5372 89.9768 42.6212 90.3199 42.7864 90.6258C42.9494 90.907 43.1832 91.1407 43.4644 91.3037C43.732 91.4793 44.0459 91.5714 44.366 91.5681C44.6859 91.5694 44.9992 91.4775 45.2677 91.3037C45.553 91.1251 45.7867 90.875 45.9457 90.5783C46.1118 90.2701 46.1981 89.9251 46.1965 89.5749C46.1984 89.229 46.1121 88.8884 45.9457 88.5851C45.78 88.3059 45.5469 88.0728 45.2677 87.9072C44.9992 87.7334 44.6859 87.6415 44.366 87.6428C44.0448 87.6385 43.73 87.7332 43.4644 87.914C43.1828 88.0941 42.9499 88.341 42.7864 88.6326C42.6229 88.9391 42.539 89.2818 42.5424 89.6292Z" fill="#272727"/>
<path d="M50.2508 87.6902C49.8461 87.6946 49.4519 87.8197 49.1186 88.0495C48.7953 88.2806 48.5571 88.6118 48.4407 88.9918V92.0697H47.7966V87.141H48.4V88.3071C48.5573 87.9778 48.7895 87.6899 49.078 87.4664C49.3336 87.2587 49.645 87.1313 49.9729 87.1003H50.2576L50.2508 87.6902Z" fill="#272727"/>
<path d="M52.9081 92.1647C52.5749 92.1685 52.2446 92.1022 51.9387 91.9703C51.6327 91.8383 51.3578 91.6436 51.1319 91.3986C50.9101 91.1625 50.7353 90.8864 50.6166 90.5851C50.4912 90.2678 50.4268 89.9297 50.4268 89.5885C50.4237 89.1479 50.5334 88.7138 50.7455 88.3275C50.9546 87.9492 51.2583 87.6315 51.6268 87.4055C52.0099 87.1776 52.4488 87.0602 52.8946 87.0665C53.346 87.0564 53.7908 87.1764 54.1759 87.4123C54.5367 87.6474 54.8331 87.9691 55.0379 88.348C55.2428 88.7269 55.3496 89.151 55.3487 89.5817V89.7308C55.3533 89.7669 55.3533 89.8033 55.3487 89.8393H51.1183C51.143 90.1703 51.2452 90.4908 51.4166 90.7749C51.5784 91.0571 51.8124 91.2911 52.0946 91.4528C52.3572 91.6152 52.6604 91.6998 52.9691 91.6969C53.2914 91.6989 53.6081 91.6121 53.8844 91.4461C54.1574 91.2961 54.3704 91.0567 54.4877 90.7681L55.0504 90.924C54.941 91.165 54.7816 91.3799 54.5826 91.5545C54.3694 91.7474 54.1207 91.897 53.8505 91.9952C53.5499 92.1109 53.2301 92.1684 52.9081 92.1647ZM51.0844 89.3715H54.7386C54.7202 89.0383 54.6201 88.7146 54.447 88.4292C54.2774 88.1656 54.0443 87.9488 53.7691 87.7987C53.4987 87.6445 53.1922 87.5649 52.881 87.5682C52.5717 87.5631 52.2669 87.6429 51.9997 87.7987C51.7211 87.9471 51.4871 88.1671 51.3217 88.436C51.1687 88.7243 51.0873 89.0452 51.0844 89.3715Z" fill="#272727"/>
<path d="M52.366 70.1721C52.366 71.0087 52.6137 71.8266 53.0778 72.5226C53.5419 73.2186 54.2016 73.7617 54.9739 74.0834C55.7462 74.4051 56.5964 74.4909 57.4174 74.3302C58.2384 74.1694 58.9934 73.7692 59.5873 73.18C60.1812 72.5908 60.5874 71.839 60.7547 71.0193C60.922 70.1996 60.8429 69.3488 60.5274 68.574C60.2119 67.7992 59.6741 67.1351 58.9818 66.6654C58.2894 66.1958 57.4736 65.9416 56.637 65.935C56.0778 65.9305 55.5231 66.0368 55.0051 66.2477C54.4871 66.4586 54.016 66.77 53.619 67.1639C53.2219 67.5578 52.9068 68.0265 52.6917 68.5428C52.4766 69.0591 52.3659 69.6128 52.366 70.1721Z" fill="#272727"/>
<path d="M26.9429 70.172C26.9429 71.01 27.1914 71.8292 27.657 72.526C28.1226 73.2228 28.7843 73.7659 29.5585 74.0866C30.3328 74.4073 31.1847 74.4912 32.0067 74.3277C32.8286 74.1642 33.5836 73.7607 34.1762 73.1681C34.7688 72.5755 35.1723 71.8205 35.3358 70.9986C35.4993 70.1767 35.4154 69.3247 35.0947 68.5505C34.774 67.7762 34.2309 67.1145 33.5341 66.6489C32.8373 66.1833 32.0181 65.9348 31.18 65.9348C30.0563 65.9348 28.9785 66.3812 28.1839 67.1758C27.3893 67.9705 26.9429 69.0482 26.9429 70.172Z" fill="#272727"/>
<path d="M52.3659 44.7829C52.3726 45.618 52.6259 46.4325 53.0941 47.1241C53.5622 47.8157 54.2243 48.3535 54.9971 48.67C55.77 48.9865 56.6191 49.0675 57.4379 48.903C58.2566 48.7384 59.0085 48.3355 59.599 47.745C60.1895 47.1545 60.5924 46.4026 60.757 45.5839C60.9215 44.7651 60.8405 43.916 60.524 43.1431C60.2075 42.3703 59.6697 41.7082 58.9781 41.2401C58.2865 40.7719 57.472 40.5186 56.6369 40.5119C56.0748 40.5073 55.5174 40.6147 54.9971 40.8278C54.4769 41.0408 54.0043 41.3553 53.6068 41.7528C53.2093 42.1503 52.8948 42.6229 52.6818 43.1431C52.4687 43.6634 52.3613 44.2208 52.3659 44.7829Z" fill="#272727"/>
<path d="M26.9429 44.7828C26.9429 45.6209 27.1914 46.4401 27.657 47.1369C28.1226 47.8337 28.7843 48.3768 29.5585 48.6975C30.3328 49.0182 31.1847 49.1021 32.0067 48.9386C32.8286 48.7751 33.5836 48.3715 34.1762 47.779C34.7688 47.1864 35.1723 46.4314 35.3358 45.6095C35.4993 44.7875 35.4154 43.9356 35.0947 43.1613C34.774 42.3871 34.2309 41.7253 33.5341 41.2597C32.8373 40.7942 32.0181 40.5457 31.18 40.5457C30.0563 40.5457 28.9785 40.9921 28.1839 41.7867C27.3893 42.5813 26.9429 43.6591 26.9429 44.7828Z" fill="#272727"/>
</svg>
