<svg width="29" height="21" viewBox="0 0 29 21" fill="none" xmlns="http://www.w3.org/2000/svg">
<g clip-path="url(#clip0_54993_37)">
<path d="M9.56436 9.75684C9.06524 9.75684 8.62158 10.2005 8.62158 10.6996C8.62158 11.1987 9.06524 11.6424 9.56436 11.6424C10.0635 11.6424 10.5071 11.1987 10.5071 10.6996C10.5071 10.2005 10.0635 9.75684 9.56436 9.75684Z" fill="#61828C"/>
<path d="M12.1708 9.75684C11.6717 9.75684 11.228 10.2005 11.228 10.6996C11.228 11.1987 11.6717 11.6424 12.1708 11.6424C12.6699 11.6424 13.1136 11.1987 13.1136 10.6996C13.1136 10.2005 12.7254 9.75684 12.1708 9.75684Z" fill="#61828C"/>
<path d="M14.8329 9.75684C14.3338 9.75684 13.8901 10.2005 13.8901 10.6996C13.8901 11.1987 14.3338 11.6424 14.8329 11.6424C15.332 11.6424 15.7757 11.1987 15.7757 10.6996C15.7757 10.2005 15.3875 9.75684 14.8329 9.75684Z" fill="#61828C"/>
<path d="M25.4806 0.772705H11.6163C9.23161 0.772705 7.12424 1.93731 5.79326 3.7674C5.73781 3.7674 5.68235 3.7674 5.62689 3.7674H4.51775C4.12955 3.7674 3.85226 4.10014 3.85226 4.43288C3.85226 4.76563 4.185 5.09837 4.51775 5.09837H5.01686C4.85049 5.48657 4.73958 5.81931 4.68412 6.26297H2.74312C2.35492 6.26297 2.07763 6.59571 2.07763 6.92846C2.07763 7.2612 2.41037 7.59394 2.74312 7.59394H4.46229C4.46229 7.70486 4.46229 7.81577 4.46229 7.92669V8.75855H1.30123C0.968486 8.75855 0.635742 9.09129 0.635742 9.42403C0.635742 9.81223 0.968486 10.0895 1.30123 10.0895H4.46229V12.3078C4.46229 13.8606 5.73781 15.1916 7.34607 15.1916H14.4446L14.5555 14.7479H7.34607C6.01509 14.7479 4.96141 13.6942 4.96141 12.3633V10.0895V8.75855V7.87123C4.96141 7.76032 4.96141 7.6494 4.96141 7.53849C4.96141 7.09483 5.01686 6.70663 5.12778 6.26297C5.23869 5.81931 5.40506 5.43111 5.57144 5.04291L6.18147 4.04468C7.40152 2.38096 9.39798 1.27182 11.6163 1.27182H25.4806C26.8116 1.27182 27.8652 2.32551 27.8652 3.65648V8.09306C27.8652 11.8087 24.8706 14.8034 21.1549 14.8034H20.4894L20.0458 15.247H21.1549C25.0924 15.247 28.3089 12.0305 28.3089 8.09306V3.65648C28.3644 2.04822 27.0888 0.772705 25.4806 0.772705Z" fill="#61828C"/>
<path d="M21.2105 13.4169C24.1497 13.4169 26.5344 11.0323 26.5344 8.09305V3.65647C26.5344 3.1019 26.0907 2.60278 25.4807 2.60278H11.6164C8.67714 2.60278 6.29248 4.98744 6.29248 7.92668V12.3633C6.29248 12.9178 6.73614 13.4169 7.34617 13.4169H15.7202L14.3338 20.2382L20.545 13.4169H21.2105ZM15.1102 18.6854L16.2748 12.9178H7.34617C7.01342 12.9178 6.7916 12.6405 6.7916 12.3633V7.92668C6.7916 5.26473 8.95443 3.04644 11.6718 3.04644H25.5916C25.9243 3.04644 26.1462 3.32373 26.1462 3.60101V8.03759C26.1462 10.6995 23.9833 12.9178 21.2659 12.9178H20.3786L15.1102 18.6854Z" fill="#61828C"/>
</g>
<defs>
<clipPath id="clip0_54993_37">
<rect width="27.7286" height="19.4655" fill="white" transform="translate(0.635742 0.772705)"/>
</clipPath>
</defs>
</svg>
