<svg width="24" height="25" viewBox="0 0 24 25" fill="none" xmlns="http://www.w3.org/2000/svg">
<g clip-path="url(#clip0_54993_89)">
<path d="M9.75403 17.0254H4.59651C4.15285 17.0254 3.76465 17.4136 3.76465 17.8572V18.6336C3.76465 19.0773 4.15285 19.4655 4.59651 19.4655H9.75403C10.1977 19.4655 10.5859 19.0773 10.5859 18.6336V17.8572C10.5304 17.4136 10.1977 17.0254 9.75403 17.0254Z" fill="#6E8C99"/>
<path d="M13.2478 12.2561H4.59651C4.15285 12.2561 3.76465 12.6443 3.76465 13.088V13.8644C3.76465 14.308 4.15285 14.6962 4.59651 14.6962H13.2478C13.6915 14.6962 14.0797 14.308 14.0797 13.8644V13.088C14.0797 12.6443 13.6915 12.2561 13.2478 12.2561Z" fill="#6E8C99"/>
<path d="M18.1835 16.1381C19.6254 16.1381 20.79 14.9735 20.79 13.5316V11.2024C20.79 9.76047 19.6254 8.59587 18.1835 8.59587H14.0242C12.9705 8.59587 12.0832 7.70855 12.0832 6.65487V2.60649C12.0832 1.1646 10.9186 0 9.47669 0H2.82182C1.37993 0 0.215332 1.1646 0.215332 2.60649V21.8501C0.215332 23.292 1.37993 24.4566 2.82182 24.4566H12.0832C13.5251 24.4566 14.6897 23.292 14.6897 21.8501V18.0236C14.6897 16.9699 15.577 16.0826 16.6307 16.0826H18.1835V16.1381ZM14.0242 18.0791V21.9056C14.0242 22.9593 13.1369 23.8466 12.0832 23.8466H2.82182C1.76813 23.8466 0.880819 22.9593 0.880819 21.9056V2.60649C0.880819 1.5528 1.76813 0.665487 2.82182 0.665487H9.47669C10.5304 0.665487 11.4177 1.5528 11.4177 2.60649V6.65487C11.4177 8.09676 12.5823 9.26136 14.0242 9.26136H18.1835C19.2372 9.26136 20.1245 10.1487 20.1245 11.2024V13.5316C20.1245 14.5853 19.2372 15.4726 18.1835 15.4726H16.6307C15.1888 15.4171 14.0242 16.6372 14.0242 18.0791Z" fill="#6E8C99"/>
<path d="M23.0083 19.0217V23.0146C23.0083 23.6801 22.5091 24.1793 21.8437 24.1793H17.6289C17.6289 24.6229 17.9616 24.9557 18.4053 24.9557H22.2319C23.0637 24.9557 23.7292 24.2902 23.7292 23.4029V19.7981C23.7847 19.4099 23.4519 19.0217 23.0083 19.0217Z" fill="#6E8C99"/>
<path d="M22.3428 22.7375V18.19C22.3428 17.7464 22.0101 17.4136 21.5664 17.4136H21.1782V16.6372H20.4018V17.4136H18.0172V16.6372H17.2408V17.4136H16.8526C16.4089 17.4136 16.0762 17.7464 16.0762 18.19V22.7375C16.0762 23.1812 16.4089 23.5139 16.8526 23.5139H21.511C22.0101 23.5139 22.3428 23.1812 22.3428 22.7375ZM16.908 19.2992H21.5664V22.7375H16.908V19.2992Z" fill="#6E8C99"/>
<path d="M14.0796 5.10209C14.0796 5.93394 14.8005 6.65489 15.6324 6.65489H19.7917C20.1244 6.65489 20.3463 6.43306 20.3463 6.10032C20.3463 6.10032 20.3463 6.10032 20.3463 6.04486C20.4017 5.9894 20.4017 5.87849 20.2908 5.71211L15.0778 0.499135C14.9669 0.388221 14.8005 0.332764 14.6896 0.332764C14.3569 0.332764 14.135 0.554593 14.135 0.887336C14.135 0.887336 14.135 0.887336 14.135 0.942793V5.10209H14.0796Z" fill="#6E8C99"/>
<path d="M4.76275 8.26308L6.59283 7.32031L8.42292 8.26308L8.09018 6.21116L9.58752 4.76928L7.53561 4.43653L6.59283 2.60645L5.65006 4.43653L3.59814 4.76928L5.09549 6.21116L4.76275 8.26308Z" fill="#6E8C99"/>
</g>
<defs>
<clipPath id="clip0_54993_89">
<rect width="23.5693" height="24.9558" fill="white" transform="translate(0.215332)"/>
</clipPath>
</defs>
</svg>
