<svg width="29" height="29" viewBox="0 0 29 29" fill="none" xmlns="http://www.w3.org/2000/svg">
<g clip-path="url(#clip0_54800_34482)">
<path d="M14.5375 0C6.51938 0 0 6.51938 0 14.5375C0 22.5556 6.51938 29.0749 14.5375 29.0749C22.5556 29.0749 29.0749 22.5556 29.0749 14.5375C29.0749 6.51938 22.5556 0 14.5375 0ZM15.6615 6.74419L18.1344 8.99225C18.2842 9.14212 18.2842 9.36693 18.2093 9.5168C18.1344 9.66667 17.9096 9.66667 17.7597 9.59173L15.7364 7.71835L9.59173 13.4884C9.5168 13.5633 9.44186 13.5633 9.36693 13.5633C9.29199 13.5633 9.21705 13.4884 9.14212 13.4134C8.99225 13.2636 9.06718 13.0388 9.14212 12.8889L15.6615 6.74419ZM20.6822 14.5375L19.6331 22.1059H16.3359V18.0594C16.3359 17.8346 16.186 17.6098 15.9612 17.6098H13.3385C13.1137 17.6098 12.9638 17.8346 12.9638 18.0594L12.8889 22.1059H9.59173L8.54263 14.5375H4.8708L13.1886 6.96899C13.3385 6.81912 13.5633 6.89406 13.6382 7.04393C13.7132 7.1938 13.7132 7.4186 13.5633 7.56848L6.59432 13.863H8.99225L10.0413 21.4315H12.2145L12.2894 18.0594C12.2894 17.4599 12.739 16.9354 13.3385 16.9354H15.9612C16.5607 16.9354 17.0103 17.4599 17.0103 18.1344V21.5065H19.1835L20.2326 13.938H22.5556L18.8088 10.5659C18.6589 10.416 18.6589 10.1912 18.7339 10.0413C18.8088 9.89147 19.0336 9.89147 19.1835 9.96641L24.2791 14.6124H20.6822V14.5375Z" fill="#7894A3"/>
</g>
<defs>
<clipPath id="clip0_54800_34482">
<rect width="29" height="29" fill="white"/>
</clipPath>
</defs>
</svg>
