<svg width="30" height="25" viewBox="0 0 30 25" fill="none" xmlns="http://www.w3.org/2000/svg">
<g clip-path="url(#clip0_54993_46)">
<path d="M6.29312 21.0737C5.84946 21.0737 5.46126 21.4065 5.35034 21.8501C5.29489 21.4065 4.90668 21.0737 4.40757 21.0737C3.90845 21.0737 3.52025 21.4619 3.4648 21.961C3.40934 21.4619 3.02114 21.0737 2.52202 21.0737C1.96745 21.0737 1.57925 21.5174 1.57925 22.0165V22.8484C1.57925 22.5156 1.24651 22.1829 0.913764 22.1829C0.525563 22.1829 0.248277 22.4602 0.248277 22.8484V24.1793C0.19282 24.6784 0.470106 24.9557 0.858307 24.9557C1.24651 24.9557 1.52379 24.6784 1.52379 24.2902V24.0684C1.57925 24.5675 1.96745 24.9557 2.52202 24.9557C3.02114 24.9557 3.40934 24.5675 3.4648 24.0684C3.52025 24.5675 3.90845 24.9557 4.40757 24.9557C4.85123 24.9557 5.23943 24.623 5.35034 24.1793C5.46126 24.623 5.84946 24.9557 6.29312 24.9557C6.84769 24.9557 7.23589 24.5121 7.23589 24.013V22.072C7.29135 21.5174 6.84769 21.0737 6.29312 21.0737Z" fill="#6E8C99"/>
<path d="M8.67786 23.4585H8.06783C7.67963 23.4585 7.40234 23.7358 7.40234 24.124C7.40234 24.5122 7.67963 24.7895 8.06783 24.7895H8.67786C9.06606 24.7895 9.34335 24.5122 9.34335 24.124C9.34335 23.7358 9.06606 23.4585 8.67786 23.4585Z" fill="#6E8C99"/>
<path d="M29.1415 22.2383C28.7533 22.2383 28.476 22.5156 28.476 22.9038V22.072C28.476 21.5174 28.0324 21.1292 27.5332 21.1292C27.0341 21.1292 26.6459 21.5174 26.5905 22.0165C26.535 21.5174 26.1468 21.1292 25.6477 21.1292C25.204 21.1292 24.8158 21.4619 24.7049 21.9056C24.594 21.4065 24.2058 21.0737 23.7067 21.0737C23.1521 21.0737 22.7639 21.5174 22.7639 22.0165V23.9575C22.7639 24.5121 23.2076 24.9003 23.7067 24.9003C24.1503 24.9003 24.5385 24.5675 24.6495 24.1239C24.7604 24.5675 25.1486 24.9003 25.5922 24.9003C26.0913 24.9003 26.4795 24.5121 26.535 24.013C26.5905 24.5121 26.9787 24.9003 27.4778 24.9003C27.9769 24.9003 28.4206 24.5121 28.4206 24.013V24.2348C28.4206 24.623 28.6978 24.9003 29.086 24.9003C29.4742 24.9003 29.7515 24.623 29.7515 24.2348V22.9038C29.807 22.5711 29.5297 22.2383 29.1415 22.2383Z" fill="#6E8C99"/>
<path d="M21.932 23.4585H21.322C20.9338 23.4585 20.6565 23.7358 20.6565 24.124C20.6565 24.5122 20.9338 24.7895 21.322 24.7895H21.932C22.3202 24.7895 22.5975 24.5122 22.5975 24.124C22.5975 23.7358 22.3202 23.4585 21.932 23.4585Z" fill="#6E8C99"/>
<path d="M24.8157 18.5782V11.4797C24.8157 10.2041 23.762 9.15045 22.4865 9.15045H22.0429C22.0983 6.54396 22.7638 1.8301 19.4364 2.05193C19.2146 1.27553 18.1609 0.665497 17.4954 0.443668C16.1089 1.05482e-05 14.7225 -0.0554467 13.2806 0.110925C12.3933 0.221839 11.3951 0.720954 10.7851 1.33098C10.3414 1.77464 9.84228 2.2183 9.34317 2.6065C8.95497 2.88379 8.34494 2.88379 8.12311 3.21653C8.06765 3.27199 8.06765 3.3829 8.12311 3.43836C8.23402 3.60473 8.40039 3.71564 8.56677 3.82656C8.78859 3.99293 7.73491 4.1593 7.56854 4.21476C7.45762 4.27022 7.40216 4.38113 7.40216 4.49205C7.56854 4.88025 7.90128 5.10208 8.23402 5.26845C8.01219 5.43482 7.67945 5.54573 7.45762 5.76756C7.40216 5.87848 7.34671 6.04485 7.51308 6.10031C7.56854 6.10031 8.28948 6.43305 8.34494 6.32213C8.23402 6.71034 8.23402 7.15399 8.17857 7.54219C8.12311 8.09677 8.12311 8.59588 8.12311 9.15045H7.45762C6.18211 9.15045 5.12842 10.2041 5.12842 11.4797V18.6336C5.12842 19.9092 6.18211 20.9628 7.45762 20.9628H12.1715H15.5544C15.998 22.0165 15.8317 23.1811 15.4989 24.4566C16.7744 23.5693 17.6617 22.4602 17.8281 20.9628H22.542C23.762 20.9628 24.8157 19.9092 24.8157 18.5782ZM9.67591 6.76579C9.84228 6.76579 10.0641 6.76579 10.2305 6.65488C10.5078 6.54396 10.6741 6.32213 10.7296 6.04485C11.0623 6.26668 11.506 6.32213 11.8387 6.15576C11.8942 6.10031 12.0051 6.04485 12.0606 5.93393C12.5597 6.76579 13.5579 7.15399 14.6116 7.09854C15.1662 7.04308 15.8317 6.54396 16.2199 5.93393C16.3308 6.10031 16.5526 6.26668 16.8299 6.37759C17.2181 6.54396 17.6063 6.48851 17.9945 6.32213C18.1609 6.54396 18.3827 6.76579 18.7154 6.93216C19.4364 7.26491 20.0464 7.26491 20.6564 6.98762C20.6564 7.26491 20.7119 8.87317 20.7119 9.15045H9.62045C9.62045 8.81771 9.62045 7.09854 9.67591 6.76579ZM16.9963 20.131H12.9479H7.45762C6.62576 20.131 5.90482 19.41 5.90482 18.5782V11.4797C5.90482 10.6478 6.62576 9.92685 7.45762 9.92685H22.4311C23.2629 9.92685 23.9839 10.6478 23.9839 11.4797V18.6336C23.9839 19.4655 23.2629 20.1864 22.4311 20.1864H16.9963V20.131Z" fill="#6E8C99"/>
</g>
<defs>
<clipPath id="clip0_54993_46">
<rect width="29.6142" height="24.9558" fill="white" transform="translate(0.192871)"/>
</clipPath>
</defs>
</svg>
