<svg width="25" height="25" viewBox="0 0 25 25" fill="none" xmlns="http://www.w3.org/2000/svg">
<g clip-path="url(#clip0_54993_10)">
<path d="M23.8963 24.6231C23.5081 23.9022 23.009 23.0703 22.6208 22.2384C22.1217 21.1293 21.1789 20.852 20.1252 20.6302C19.9034 20.5747 19.737 20.5193 19.5152 20.4638C18.2952 20.1311 16.0214 19.2437 15.6332 19.0774C15.5778 18.4673 15.5223 17.9128 15.5223 17.3027C15.5223 17.3027 15.5223 17.3027 15.5223 17.2473C16.2987 16.4709 16.9087 15.639 17.4078 14.6408C17.6297 14.1417 17.9624 13.698 18.1288 13.1434V13.088C19.2379 13.3098 18.9606 11.3134 19.2379 10.7033C19.3488 10.3706 19.4043 10.1488 19.4043 9.87147C19.4043 9.64964 19.4043 9.53873 19.3488 9.42781C19.2934 9.3169 19.2934 9.20599 19.1825 9.09507C19.127 9.03961 19.0716 9.03961 19.0161 9.03961C18.8497 6.93224 19.9589 1.60834 16.576 1.83017C16.4096 1.10923 15.4114 0.554657 14.8014 0.332829C13.5258 -0.110829 12.2503 -0.166287 10.9194 8.51601e-05C10.1429 0.111 9.20018 0.554657 8.6456 1.16469C8.2574 1.60834 7.75829 1.99655 7.31463 2.32929C6.98189 2.60657 6.42731 2.60658 6.20549 2.99478C6.15003 3.05023 6.15003 3.16115 6.20549 3.2166C6.3164 3.38298 6.42731 3.49389 6.59369 3.6048C6.87097 3.71572 5.87274 3.82663 5.70637 3.88209C5.59546 3.88209 5.54 3.99301 5.59546 4.10392C5.76183 4.43666 6.03911 4.65849 6.37186 4.82486C6.09457 4.99124 5.81729 5.10215 5.65091 5.26852C5.54 5.37944 5.54 5.54581 5.65091 5.60127C5.70637 5.60127 6.37186 5.93401 6.42731 5.82309C6.3164 6.15584 6.3164 6.5995 6.3164 6.93224C6.26094 7.43135 6.26094 7.93047 6.26094 8.42958C6.26094 8.5405 6.26094 9.20599 6.3164 9.09507V9.15053C6.15003 9.3169 6.03911 9.53873 6.03911 9.81602V9.92693C6.03911 10.1488 6.03911 10.426 6.20549 10.7588C6.48277 11.3688 6.15003 13.3098 7.25917 13.1434C7.25917 13.1434 7.25917 13.1434 7.25917 13.1989C7.42554 13.698 7.70283 14.1971 7.98012 14.6963C8.47923 15.6945 9.14472 16.4709 9.86566 17.3027C9.86566 17.3027 9.86566 17.3027 9.86566 17.3582C9.86566 17.9682 9.81021 18.5228 9.75475 19.1328C9.25563 19.2992 6.7046 20.1865 5.48454 20.5193C5.20726 20.5193 4.98543 20.5193 4.81906 20.5747C3.82082 20.852 2.82259 21.0738 2.32348 22.183C1.93528 23.0148 1.49162 23.8467 1.04796 24.5676L0.881592 24.9558H24.1182L23.8963 24.6231ZM10.0875 19.2437L10.1429 18.911C10.1984 18.5228 10.1984 18.0791 10.1984 17.6909C10.8084 18.301 11.5848 18.911 12.4722 19.0774C12.5276 19.0774 12.5276 19.1328 12.5831 19.1328C12.6385 19.1328 12.6385 19.1328 12.694 19.1328C12.7494 19.1328 12.7494 19.1328 12.8049 19.1328C12.8604 19.1328 12.8604 19.1328 12.9158 19.0774C13.8031 18.9665 14.5795 18.3564 15.1896 17.6909C15.1896 18.0791 15.245 18.5228 15.245 18.911L15.3005 19.2992C15.3559 19.6874 15.3559 20.1311 15.3559 20.5747C15.3559 21.7393 13.8031 22.793 12.5276 22.8485C11.2521 22.793 10.0875 21.6839 10.032 20.5747C10.032 20.0756 10.0875 19.6319 10.0875 19.2437ZM7.98012 13.8644C7.42554 12.8107 7.42554 11.8679 7.481 10.7033C7.53646 9.64964 7.59192 8.59596 7.64737 7.48681C7.81375 7.48681 7.98012 7.48681 8.20195 7.3759C8.47923 7.26498 8.59015 7.04315 8.6456 6.82132C8.92289 6.9877 9.36655 7.04315 9.64383 6.93224C9.69929 6.87678 9.81021 6.82132 9.86566 6.71041C10.3648 7.48681 11.2521 7.81955 12.1949 7.7641C12.694 7.70864 13.304 7.20953 13.6922 6.65495C13.8031 6.82132 13.9695 6.93224 14.2468 7.04315C14.635 7.20952 14.9677 7.15407 15.3005 6.9877C15.4114 7.20953 15.6332 7.3759 15.966 7.54227C16.6314 7.81955 17.186 7.87501 17.7406 7.59773C17.796 8.59596 17.8515 9.59419 17.907 10.6479C17.9624 11.8125 17.9624 12.7552 17.4078 13.8089C16.7978 14.9181 16.2432 15.9718 15.3005 16.8591C14.5795 17.5246 13.7477 18.4673 12.694 18.5228C11.6403 18.4673 10.8084 17.5246 10.0875 16.8591C9.14472 16.0827 8.59015 15.029 7.98012 13.8644ZM1.65799 24.5122C2.04619 23.8467 2.43439 23.1257 2.71168 22.4048C3.09988 21.462 3.87628 21.2957 4.87451 21.0738C5.09634 21.0184 5.31817 20.9629 5.54 20.9075C6.59369 20.5747 8.75652 19.8538 9.58838 19.5765C9.58838 19.8538 9.53292 20.1865 9.53292 20.5193C9.53292 21.9057 10.9193 23.2367 12.4722 23.2921C13.9695 23.2367 15.7441 22.0166 15.7441 20.5747C15.7441 20.242 15.7441 19.9092 15.6887 19.6319C16.4651 19.9092 18.2952 20.6302 19.3488 20.9075C19.5707 20.9629 19.7925 21.0184 20.0143 21.0738C21.0126 21.2957 21.7335 21.5175 22.1772 22.4048C22.5099 23.1257 22.8981 23.8467 23.2863 24.5122H1.65799Z" fill="#6E8C99"/>
</g>
<defs>
<clipPath id="clip0_54993_10">
<rect width="23.2366" height="24.9558" fill="white" transform="translate(0.881592)"/>
</clipPath>
</defs>
</svg>
