<svg width="27" height="27" viewBox="0 0 27 27" fill="none" xmlns="http://www.w3.org/2000/svg">
<g clip-path="url(#clip0_54798_34243)">
<path d="M13.5 27C10.83 27 8.21987 26.2082 5.99981 24.7248C3.77974 23.2414 2.04942 21.133 1.02763 18.6662C0.00584937 16.1994 -0.261496 13.485 0.259405 10.8663C0.780305 8.24754 2.06606 5.84207 3.95406 3.95406C5.84207 2.06606 8.24754 0.780305 10.8663 0.259405C13.485 -0.261496 16.1994 0.00584937 18.6662 1.02763C21.133 2.04942 23.2414 3.77974 24.7248 5.99981C26.2082 8.21987 27 10.83 27 13.5C26.9959 17.0792 25.5723 20.5106 23.0414 23.0414C20.5106 25.5723 17.0792 26.9959 13.5 27ZM13.5 1.37708C11.1001 1.37555 8.75372 2.0859 6.75766 3.41824C4.7616 4.75059 3.20558 6.64506 2.28648 8.86196C1.36739 11.0789 1.12651 13.5186 1.59432 15.8724C2.06214 18.2263 3.21763 20.3884 4.9146 22.0854C6.61157 23.7824 8.77376 24.9379 11.1276 25.4057C13.4814 25.8735 15.9211 25.6326 18.138 24.7135C20.3549 23.7944 22.2494 22.2384 23.5818 20.2423C24.9141 18.2463 25.6245 15.8999 25.6229 13.5C25.6188 10.2861 24.3403 7.20493 22.0677 4.93233C19.7951 2.65972 16.7139 1.38118 13.5 1.37708Z" fill="#6E8C99"/>
<path d="M12.9585 3.09448C11.2003 3.18569 9.49364 3.7192 7.99656 4.64558C6.49949 5.57195 5.26046 6.86122 4.39429 8.39391L15.5579 10.3667L12.9585 3.09448Z" fill="#6E8C99"/>
<path d="M22.8378 18.1804C23.6122 16.6294 23.9887 14.9102 23.9334 13.1775C23.878 11.4447 23.3925 9.75302 22.5206 8.25464L15.2097 16.8343L22.8378 18.1804Z" fill="#6E8C99"/>
<path d="M22.2653 7.83704C21.3086 6.37257 20.0001 5.17122 18.4594 4.34278C16.9188 3.51433 15.1951 3.08521 13.4458 3.09463L17.2521 13.7244L22.2653 7.83704Z" fill="#272727"/>
<path d="M14.1653 23.9209C15.9035 23.8078 17.5859 23.2625 19.0599 22.3343C20.5338 21.4062 21.7526 20.1246 22.6057 18.606L11.4885 16.6487L14.1653 23.9209Z" fill="#272727"/>
<path d="M4.16999 8.82715C3.39554 10.3781 3.01905 12.0974 3.07443 13.8301C3.1298 15.5628 3.61529 17.2546 4.48718 18.7529L11.7903 10.1733L4.16999 8.82715Z" fill="#272727"/>
<path d="M4.74243 19.1708C5.51851 20.3844 6.53809 21.4235 7.73662 22.2225C8.93515 23.0216 10.2865 23.563 11.7052 23.8127C12.3613 23.9292 13.0272 23.981 13.6934 23.9674L9.75561 13.2834L4.74243 19.1708Z" fill="#6E8C99"/>
</g>
<defs>
<clipPath id="clip0_54798_34243">
<rect width="27" height="27" fill="white"/>
</clipPath>
</defs>
</svg>
