<svg width="14" height="21" viewBox="0 0 14 21" fill="none" xmlns="http://www.w3.org/2000/svg">
<g clip-path="url(#clip0_54833_26717)">
<path d="M11.7162 15.4766H2.28385C1.67814 15.4766 1.09723 15.7283 0.668924 16.1763C0.240619 16.6243 0 17.232 0 17.8656L0 18.6349C0 19.2685 0.240619 19.8762 0.668924 20.3243C1.09723 20.7723 1.67814 21.024 2.28385 21.024H11.7162C12.3219 21.024 12.9028 20.7723 13.3311 20.3243C13.7594 19.8762 14 19.2685 14 18.6349V17.8656C14 17.232 13.7594 16.6243 13.3311 16.1763C12.9028 15.7283 12.3219 15.4766 11.7162 15.4766ZM13.0865 18.611C13.0865 18.9912 12.9421 19.3558 12.6851 19.6246C12.4281 19.8935 12.0796 20.0445 11.7162 20.0445H2.28385C1.92042 20.0445 1.57188 19.8935 1.31489 19.6246C1.05791 19.3558 0.91354 18.9912 0.91354 18.611V17.8656C0.91354 17.4855 1.05791 17.1209 1.31489 16.852C1.57188 16.5832 1.92042 16.4322 2.28385 16.4322H11.7162C12.0796 16.4322 12.4281 16.5832 12.6851 16.852C12.9421 17.1209 13.0865 17.4855 13.0865 17.8656V18.611Z" fill="#7894A3"/>
<path d="M11.7162 0H2.28385C1.67814 0 1.09723 0.251706 0.668924 0.699745C0.240619 1.14778 0 1.75546 0 2.38908L0 3.13447C0 3.76809 0.240619 4.37577 0.668924 4.8238C1.09723 5.27184 1.67814 5.52355 2.28385 5.52355H11.7162C12.3219 5.52355 12.9028 5.27184 13.3311 4.8238C13.7594 4.37577 14 3.76809 14 3.13447V2.38908C14 1.75546 13.7594 1.14778 13.3311 0.699745C12.9028 0.251706 12.3219 0 11.7162 0ZM13.0865 3.13447C13.0865 3.51464 12.9421 3.87925 12.6851 4.14807C12.4281 4.41689 12.0796 4.56792 11.7162 4.56792H2.28385C1.92042 4.56792 1.57188 4.41689 1.31489 4.14807C1.05791 3.87925 0.91354 3.51464 0.91354 3.13447V2.38908C0.91354 2.0089 1.05791 1.6443 1.31489 1.37548C1.57188 1.10666 1.92042 0.955631 2.28385 0.955631H11.7162C12.0796 0.955631 12.4281 1.10666 12.6851 1.37548C12.9421 1.6443 13.0865 2.0089 13.0865 2.38908V3.13447Z" fill="#7894A3"/>
<path d="M11.7162 7.74072H2.28385C1.67814 7.74072 1.09723 7.99243 0.668924 8.44047C0.240619 8.88851 0 9.49618 0 10.1298L0 10.8704C0 11.1842 0.0590735 11.4948 0.173848 11.7847C0.288622 12.0745 0.456849 12.3379 0.668924 12.5597C0.880999 12.7816 1.13277 12.9576 1.40986 13.0776C1.68695 13.1977 1.98393 13.2595 2.28385 13.2595H11.7162C12.0161 13.2595 12.3131 13.1977 12.5901 13.0776C12.8672 12.9576 13.119 12.7816 13.3311 12.5597C13.5432 12.3379 13.7114 12.0745 13.8262 11.7847C13.9409 11.4948 14 11.1842 14 10.8704V10.1298C14 9.49618 13.7594 8.88851 13.3311 8.44047C12.9028 7.99243 12.3219 7.74072 11.7162 7.74072ZM13.0865 10.8704C13.0865 11.2506 12.9421 11.6152 12.6851 11.884C12.4281 12.1528 12.0796 12.3039 11.7162 12.3039H2.28385C1.92042 12.3039 1.57188 12.1528 1.31489 11.884C1.05791 11.6152 0.91354 11.2506 0.91354 10.8704V10.1298C0.91354 9.74963 1.05791 9.38502 1.31489 9.1162C1.57188 8.84738 1.92042 8.69635 2.28385 8.69635H11.7162C12.0796 8.69635 12.4281 8.84738 12.6851 9.1162C12.9421 9.38502 13.0865 9.74963 13.0865 10.1298V10.8704Z" fill="#7894A3"/>
</g>
<defs>
<clipPath id="clip0_54833_26717">
<rect width="14" height="21" fill="white"/>
</clipPath>
</defs>
</svg>
