<svg width="415" height="588" viewBox="0 0 415 588" fill="none" xmlns="http://www.w3.org/2000/svg">
<g filter="url(#filter0_d_54798_34077)">
<path d="M394.929 342.236L395 94.1594H394.859V62.8621C394.859 55.911 390.449 50.2826 384.823 50.2826H257.672C249.881 50.2826 242.837 51.0802 237.731 44.7753C236.138 42.7978 234.765 40.6533 233.634 38.3795C228.013 27.1024 218.124 20.1514 207.397 20.1514C196.674 20.1514 186.785 27.1024 181.159 38.3846C176.194 48.3442 167.288 50.2876 157.126 50.2876H30.1872C24.5613 50.2876 20 55.9161 20 62.8671V520.141C20 527.092 24.5411 532.72 30.1872 532.72H157.131C167.293 532.72 176.199 539.358 181.164 549.318C186.785 560.6 196.674 567.551 207.402 567.551C218.124 567.551 228.013 560.6 233.639 549.323C234.768 547.048 236.14 544.901 237.731 542.922C242.837 536.617 249.881 532.72 257.672 532.72H384.823C390.449 532.72 394.859 527.092 394.859 520.141V488.843H395L394.929 342.236Z" fill="white"/>
</g>
<defs>
<filter id="filter0_d_54798_34077" x="0" y="0.151367" width="415" height="587.4" filterUnits="userSpaceOnUse" color-interpolation-filters="sRGB">
<feFlood flood-opacity="0" result="BackgroundImageFix"/>
<feColorMatrix in="SourceAlpha" type="matrix" values="0 0 0 0 0 0 0 0 0 0 0 0 0 0 0 0 0 0 127 0" result="hardAlpha"/>
<feOffset/>
<feGaussianBlur stdDeviation="10"/>
<feComposite in2="hardAlpha" operator="out"/>
<feColorMatrix type="matrix" values="0 0 0 0 0.0313726 0 0 0 0 0.498039 0 0 0 0 0.588235 0 0 0 0.25 0"/>
<feBlend mode="normal" in2="BackgroundImageFix" result="effect1_dropShadow_54798_34077"/>
<feBlend mode="normal" in="SourceGraphic" in2="effect1_dropShadow_54798_34077" result="shape"/>
</filter>
</defs>
</svg>
