<svg width="375" height="553" viewBox="0 0 375 553" fill="none" xmlns="http://www.w3.org/2000/svg">
<path d="M374.929 326.779L375 78.7026H374.859V47.4053C374.859 40.4543 370.449 34.8258 364.823 34.8258H237.672C229.881 34.8258 222.837 30.9288 217.731 24.6239C216.138 22.6464 214.765 20.502 213.634 18.2281C208.013 6.95103 198.124 0 187.397 0C176.674 0 166.785 6.95103 161.159 18.2332C156.194 28.1928 147.288 34.8309 137.126 34.8309H10.1872C4.5613 34.8309 0 40.4593 0 47.4103V504.684C0 511.635 4.54111 517.263 10.1872 517.263H137.131C147.293 517.263 156.199 523.901 161.164 533.861C166.785 545.143 176.674 552.094 187.402 552.094C198.124 552.094 208.013 545.143 213.639 533.866C214.768 531.591 216.14 529.445 217.731 527.465C222.837 521.16 229.881 517.263 237.672 517.263H364.823C370.449 517.263 374.859 511.635 374.859 504.684V473.387H375L374.929 326.779Z" fill="#F7FAFC"/>
</svg>
