<svg width="68" height="30" viewBox="0 0 68 30" fill="none" xmlns="http://www.w3.org/2000/svg">
<g clip-path="url(#clip0_54873_25854)">
<path d="M22.8426 23.9212C22.785 23.9212 22.7275 23.9212 22.7275 23.9212H22.67C22.6124 23.9212 22.6124 23.9212 22.5549 23.9212C21.2891 23.9212 20.2534 22.908 20.2534 21.6698C20.2534 21.2195 20.3685 20.8255 20.5986 20.4878C20.5986 20.4878 20.5986 20.4315 20.6561 20.4315C21.922 18.4615 22.9577 16.1538 23.533 13.6773C24.2235 10.7504 24.3386 7.8236 23.9358 5.12192C23.7056 3.82736 23.418 2.64537 22.9577 1.46338C23.1878 2.64537 23.3604 3.82736 23.418 5.06563C23.4755 7.03561 23.3029 9.11816 22.785 11.2007C21.6918 15.7035 19.2752 19.5309 16.1682 22.2326C13.2338 24.8217 9.60886 26.3977 5.8689 26.5666C6.96212 27.4108 8.17041 28.1426 9.43625 28.6491C11.335 29.4934 13.4639 29.9437 15.7079 29.9437C24.2235 29.9437 31.128 23.3583 31.4733 15.1407C31.1856 19.7561 27.5032 23.4709 22.8426 23.9212Z" fill="#087F96"/>
<path d="M22.6699 22.7391C23.4643 22.7391 24.1083 22.1091 24.1083 21.3319C24.1083 20.5548 23.4643 19.9248 22.6699 19.9248C21.8755 19.9248 21.2314 20.5548 21.2314 21.3319C21.2314 22.1091 21.8755 22.7391 22.6699 22.7391Z" fill="#087F96"/>
<path d="M21.7493 10.9756C19.5629 19.7561 12.198 25.7786 4.60303 25.4409C1.78368 22.6266 0 18.7992 0 14.5779C0 7.82364 4.37288 2.08255 10.5294 0C10.4144 0.0562852 10.2993 0.11257 10.1842 0.11257C10.0116 0.168856 9.83898 0.281426 9.66637 0.337711C9.55129 0.393996 9.43622 0.450281 9.32114 0.506567C9.2636 0.562852 9.20607 0.562852 9.14853 0.619137C9.03345 0.675422 8.91838 0.731707 8.8033 0.787992L8.63069 0.900563C8.57315 0.956848 8.51561 0.956848 8.45807 1.01313C8.28546 1.1257 8.11285 1.23827 7.99777 1.35084C7.94023 1.40713 7.94023 1.40713 7.88269 1.46341C7.82516 1.5197 7.76762 1.5197 7.71008 1.57598C7.65254 1.63227 7.595 1.63227 7.595 1.68856C7.595 1.68856 7.53747 1.74484 7.47993 1.74484C7.24978 1.96998 7.01963 2.13884 6.78947 2.36398C6.73194 2.42026 6.73194 2.47655 6.6744 2.47655L6.61686 2.53283C6.55932 2.58912 6.55932 2.58912 6.50178 2.6454L6.44425 2.70169C6.44425 2.81426 6.38671 2.87054 6.32917 2.92683C6.27163 3.0394 6.15656 3.15197 6.09902 3.26454C6.04148 3.32083 6.04148 3.32083 6.04148 3.37711C6.04148 3.4334 5.98394 3.4334 5.98394 3.48968C5.9264 3.54597 5.9264 3.60225 5.86887 3.60225C5.69625 3.77111 5.58118 3.93996 5.4661 4.10882C5.4661 4.1651 5.40856 4.22139 5.40856 4.27767C5.35103 4.33396 5.35103 4.39024 5.29349 4.44653C5.29349 4.50281 5.23595 4.50281 5.23595 4.5591C5.23595 4.61539 5.17841 4.61538 5.17841 4.67167C5.17841 4.72796 5.12087 4.72795 5.12087 4.78424C5.12087 4.84053 5.06334 4.89681 5.06334 4.9531C5.0058 5.06567 4.94826 5.17824 4.89072 5.29081C4.89072 5.34709 4.83318 5.40338 4.83318 5.40338C4.77565 5.57223 4.66057 5.79737 4.60303 5.96623C4.60303 6.02251 4.60303 6.0788 4.60303 6.13508C4.60303 6.19137 4.60303 6.24765 4.5455 6.24765C4.43042 6.69794 4.31534 7.14822 4.25781 7.5985C4.25781 7.65478 4.25781 7.65478 4.25781 7.71107C4.25781 7.82364 4.25781 7.87992 4.20027 7.9925C4.14273 8.33021 4.14273 8.61163 4.14273 8.94934C4.14273 10.9193 4.77565 12.7767 5.81133 14.2964C6.09902 14.7467 6.50178 15.197 6.84701 15.591C6.90455 15.6473 6.96209 15.7036 7.01963 15.7598C8.91838 17.561 11.6802 17.2233 12.7734 16.9418C17.9518 15.6473 21.6918 7.76735 21.6918 2.47655C21.6918 1.68856 21.5767 1.01313 21.4616 0.393996C22.4973 3.60225 22.6124 7.26079 21.7493 10.9756Z" fill="#0E9771"/>
<path d="M10.2993 15.9286C12.3648 15.9286 14.0393 14.2907 14.0393 12.2701C14.0393 10.2496 12.3648 8.61157 10.2993 8.61157C8.23377 8.61157 6.55933 10.2496 6.55933 12.2701C6.55933 14.2907 8.23377 15.9286 10.2993 15.9286Z" fill="#0E9771"/>
<path d="M43.6138 11.0319V10.4127C43.6138 10.075 43.5563 9.7936 43.4987 9.62474C43.4412 9.45589 43.2686 9.28703 43.096 9.17446C42.9233 9.06189 42.6357 9.0056 42.348 9.0056C42.0027 9.0056 41.6 8.94932 41.1397 8.94932C40.5643 8.94932 40.104 9.0056 39.7588 9.06189C39.4135 9.11817 39.1258 9.23074 38.9532 9.45589C38.7806 9.62474 38.608 9.90617 38.5505 10.2439C38.4929 10.5816 38.4354 11.0319 38.4354 11.5947V14.1838C38.4354 14.7467 38.4929 15.2533 38.5505 15.591C38.608 15.9287 38.7231 16.2101 38.8957 16.4352C39.0683 16.6604 39.356 16.773 39.7012 16.8292C40.0464 16.8855 40.5067 16.9418 41.1397 16.9418C41.6 16.9418 42.0027 16.9418 42.348 16.8855C42.6932 16.8855 42.9809 16.773 43.1535 16.6604C43.3836 16.5478 43.5563 16.379 43.6138 16.1538C43.7289 15.9287 43.7864 15.591 43.7864 15.197V14.5778H46.0879V15.3095C46.0879 16.2101 45.9729 16.8292 45.7427 17.3358C45.5125 17.7861 45.1673 18.1238 44.7646 18.3489C44.3043 18.5741 43.7864 18.6867 43.211 18.7429C42.5781 18.7992 41.9452 18.7992 41.1972 18.8555C40.1615 18.9118 39.2985 18.8555 38.6655 18.6867C38.0326 18.5178 37.5148 18.2927 37.1695 17.8987C36.8243 17.5047 36.5942 17.0544 36.4216 16.4352C36.3065 15.8161 36.2489 15.1407 36.1914 14.2964V11.651C36.1914 10.7504 36.3065 9.96245 36.4791 9.3996C36.6517 8.83675 36.9394 8.33018 37.3422 7.99247C37.7449 7.65476 38.2628 7.42962 38.8957 7.31705C39.5286 7.20448 40.2766 7.14819 41.1397 7.14819C41.8877 7.14819 42.5206 7.14819 43.096 7.20448C43.6713 7.26076 44.1892 7.37333 44.5919 7.59847C44.9947 7.82362 45.3399 8.16133 45.5125 8.61161C45.7427 9.06189 45.8578 9.68103 45.9153 10.5253V11.1444H43.6138V11.0319Z" fill="#087F96"/>
<path d="M47.4113 7.14819H52.6472C53.4528 7.14819 54.0857 7.20448 54.6611 7.31705C55.1789 7.42962 55.6392 7.65476 55.9844 7.93619C56.3297 8.21761 56.5598 8.61161 56.6749 9.17446C56.79 9.68103 56.9051 10.3564 56.9051 11.1444C56.9051 11.9887 56.8475 12.6079 56.6749 13.1144C56.5023 13.621 56.2721 14.015 55.9269 14.2964C55.5817 14.5778 55.1789 14.7467 54.6035 14.8593C54.0857 14.9718 53.3952 14.9718 52.6472 14.9718H49.6553V18.7429H47.3538V7.14819H47.4113ZM52.6472 13.0581C53.05 13.0581 53.3952 13.0019 53.6254 12.9456C53.8555 12.8893 54.0857 12.7767 54.2008 12.6641C54.3158 12.5516 54.4309 12.3264 54.4885 12.1013C54.546 11.8761 54.546 11.5384 54.546 11.1444C54.546 10.7504 54.546 10.4127 54.4885 10.1313C54.4309 9.84988 54.3734 9.62474 54.2008 9.51217C54.0857 9.34332 53.8555 9.23074 53.6254 9.17446C53.3952 9.11817 53.05 9.06189 52.5897 9.06189H49.5977V13.1144H52.6472V13.0581Z" fill="#087F96"/>
<path d="M59.7245 16.5478L58.9765 18.7429H56.6174L60.53 7.14819H63.8672L67.8949 18.7429H65.5933L64.8454 16.5478H59.7245ZM62.2561 8.83675L60.1848 14.8593H64.27L62.2561 8.83675Z" fill="#087F96"/>
<path d="M37.5722 21.3321C37.5722 21.2758 37.5722 21.2195 37.5722 21.1632C37.5722 21.1069 37.5147 21.1069 37.5147 21.1069C37.5147 21.1069 37.4572 21.0506 37.3421 21.0506C37.2845 21.0506 37.227 21.0506 37.1119 21.0506C36.9969 21.0506 36.9393 21.0506 36.8242 21.0506C36.7667 21.0506 36.7092 21.1069 36.6516 21.1069C36.5941 21.1632 36.5941 21.2195 36.5941 21.2758C36.5941 21.332 36.5941 21.4446 36.5941 21.5572V22.0638C36.5941 22.1763 36.5941 22.2889 36.5941 22.3452C36.5941 22.4015 36.6516 22.4578 36.6516 22.514C36.7092 22.5703 36.7092 22.5703 36.8242 22.5703C36.8818 22.5703 36.9969 22.5703 37.1119 22.5703C37.1695 22.5703 37.2845 22.5703 37.3421 22.5703C37.3996 22.5703 37.4572 22.5703 37.5147 22.514C37.5722 22.514 37.5722 22.4578 37.6298 22.4015C37.6298 22.3452 37.6873 22.2889 37.6873 22.2326V22.12H38.1476V22.2889C38.1476 22.4578 38.1476 22.5703 38.0901 22.6829C38.0325 22.7955 37.975 22.8517 37.9175 22.8517C37.8599 22.908 37.7448 22.908 37.6298 22.908C37.5147 22.908 37.3996 22.908 37.227 22.908C37.0544 22.908 36.8818 22.908 36.7667 22.8517C36.6516 22.7955 36.5365 22.7955 36.479 22.6829C36.4215 22.6266 36.3639 22.514 36.3639 22.4015C36.3639 22.2889 36.3064 22.1763 36.3064 22.0075V21.5009C36.3064 21.3321 36.3064 21.1632 36.3639 21.0506C36.4215 20.9381 36.479 20.8255 36.5365 20.7692C36.5941 20.7129 36.7092 20.6566 36.8242 20.6566C36.9393 20.6566 37.1119 20.6003 37.227 20.6003C37.3421 20.6003 37.5147 20.6003 37.6298 20.6003C37.7448 20.6003 37.8599 20.6566 37.9175 20.6566C37.975 20.7129 38.0325 20.7692 38.0901 20.8255C38.1476 20.8818 38.1476 21.0506 38.1476 21.2195V21.3321H37.5722Z" fill="#087F96"/>
<path d="M38.723 22.908H38.2627V20.7129H38.723V22.908Z" fill="#087F96"/>
<path d="M40.0463 22.908H39.586V21.0506H38.9531V20.7129H40.6793V21.0506H40.0463V22.908Z" fill="#087F96"/>
<path d="M41.3121 22.908H40.8518V20.7129H41.3121V22.908Z" fill="#087F96"/>
<path d="M43.3835 21.0506L42.1177 22.514H43.3835V22.8517H41.5999V22.514L42.8657 21.0506H41.6574V20.7129H43.3835V21.0506Z" fill="#087F96"/>
<path d="M44.0741 21.6136H45.1098V21.9513H44.0741V22.5141H45.1673V22.8519H43.6138V20.6567H45.1673V20.9944H44.0741V21.6136Z" fill="#087F96"/>
<path d="M47.1811 20.7129H47.6414V22.908H46.951L45.9728 21.0506L46.0304 22.908H45.5701V20.7129H46.2605L47.1811 22.514V20.7129Z" fill="#087F96"/>
<path d="M49.0222 20.7129H50.0579C50.2305 20.7129 50.3456 20.7129 50.4607 20.7692C50.5757 20.7692 50.6333 20.8255 50.6908 20.8817C50.7484 20.938 50.8059 20.9943 50.8059 21.1069C50.8059 21.2195 50.8634 21.332 50.8634 21.5009C50.8634 21.6697 50.8634 21.7823 50.8059 21.8949C50.7484 22.0075 50.7484 22.0637 50.6908 22.12C50.6333 22.1763 50.5182 22.2326 50.4607 22.2326C50.3456 22.2326 50.2305 22.2326 50.1154 22.2326H49.5401V22.9643H49.0798V20.7129H49.0222ZM50.0579 21.8386C50.1154 21.8386 50.173 21.8386 50.2305 21.8386C50.2881 21.8386 50.2881 21.8386 50.3456 21.7823C50.3456 21.7823 50.4031 21.726 50.4031 21.6697C50.4031 21.6135 50.4031 21.5572 50.4031 21.5009C50.4031 21.4446 50.4031 21.332 50.4031 21.332C50.4031 21.2757 50.4031 21.2195 50.3456 21.2195C50.3456 21.1632 50.2881 21.1632 50.2305 21.1632C50.173 21.1632 50.1154 21.1632 50.0579 21.1632H49.4825V21.9512H50.0579V21.8386Z" fill="#087F96"/>
<path d="M52.417 20.713C52.532 20.713 52.6471 20.7693 52.7047 20.8256C52.7622 20.8819 52.8197 20.9381 52.8773 21.0507C52.9348 21.1633 52.9348 21.2759 52.9348 21.501V22.1201C52.9348 22.289 52.9348 22.4578 52.8773 22.5704C52.8197 22.683 52.7622 22.7393 52.7047 22.8518C52.6471 22.9081 52.532 22.9644 52.417 22.9644C52.3019 22.9644 52.1293 23.0207 51.9567 23.0207C51.784 23.0207 51.6114 23.0207 51.4964 22.9644C51.3813 22.9644 51.2662 22.9081 51.2087 22.8518C51.1511 22.7956 51.0936 22.683 51.0361 22.5704C50.9785 22.4578 50.9785 22.289 50.9785 22.1201V21.501C50.9785 21.3321 50.9785 21.2196 51.0361 21.107C51.0936 20.9944 51.0936 20.9381 51.2087 20.8819C51.2662 20.8256 51.3813 20.7693 51.4964 20.7693C51.6114 20.7693 51.784 20.713 51.9567 20.713C52.1868 20.6567 52.3019 20.713 52.417 20.713ZM51.7265 21.0507C51.669 21.0507 51.6114 21.107 51.5539 21.107C51.4964 21.1633 51.4964 21.1633 51.4964 21.2196C51.4964 21.2759 51.4964 21.3321 51.4964 21.4447V22.0638C51.4964 22.1764 51.4964 22.2327 51.4964 22.3453C51.4964 22.4016 51.5539 22.4578 51.5539 22.5141C51.6114 22.5704 51.669 22.5704 51.7265 22.5704C51.784 22.5704 51.8991 22.5704 52.0142 22.5704C52.1293 22.5704 52.1868 22.5704 52.2444 22.5704C52.3019 22.5704 52.3594 22.5141 52.417 22.5141C52.4745 22.4578 52.4745 22.4578 52.532 22.3453C52.532 22.289 52.532 22.1764 52.532 22.0638V21.4447C52.532 21.3321 52.532 21.2759 52.532 21.2196C52.532 21.1633 52.4745 21.107 52.417 21.107C52.3594 21.0507 52.3019 21.0507 52.2444 21.0507C52.1868 21.0507 52.0717 21.0507 52.0142 21.0507C51.8991 21.0507 51.784 21.0507 51.7265 21.0507Z" fill="#087F96"/>
<path d="M53.683 22.1763V22.908H53.2227V20.7129H54.3734C54.4885 20.7129 54.6036 20.7129 54.6611 20.7692C54.7762 20.7692 54.8337 20.8255 54.8913 20.8817C54.9488 20.938 55.0063 20.9943 55.0063 21.1069C55.0063 21.1632 55.0639 21.2757 55.0639 21.4446C55.0639 21.5009 55.0639 21.6135 55.0639 21.6697C55.0639 21.726 55.0639 21.7823 55.0063 21.8386C55.0063 21.8949 54.9488 21.9512 54.8913 21.9512C54.8337 21.9512 54.7762 21.9512 54.7186 21.9512C54.7762 21.9512 54.8337 21.9512 54.8913 22.0074C54.9488 22.0637 55.0063 22.0637 55.0063 22.12C55.0639 22.1763 55.0639 22.2326 55.0639 22.2889C55.0639 22.3452 55.0639 22.4014 55.0639 22.514V22.908H54.6611V22.514C54.6611 22.4014 54.6611 22.3452 54.6036 22.2889C54.546 22.2326 54.4885 22.1763 54.3734 22.1763H53.683ZM54.2583 21.7823C54.3159 21.7823 54.431 21.7823 54.431 21.7823C54.4885 21.7823 54.546 21.726 54.546 21.726C54.6036 21.726 54.6036 21.6697 54.6036 21.6135C54.6036 21.5572 54.6036 21.5009 54.6036 21.3883C54.6036 21.332 54.6036 21.2195 54.6036 21.2195C54.6036 21.1632 54.6036 21.1069 54.546 21.1069C54.546 21.1069 54.4885 21.0506 54.431 21.0506C54.3734 21.0506 54.3159 21.0506 54.2583 21.0506H53.683V21.7823H54.2583Z" fill="#087F96"/>
<path d="M56.3872 22.908H55.9269V21.0506H55.2939V20.7129H57.0201V21.0506H56.3872V22.908Z" fill="#087F96"/>
<path d="M57.4228 22.4579L57.3077 22.8519H56.8474L57.5954 20.6567H58.2283L58.9763 22.8519H58.516L58.3434 22.4579H57.4228ZM57.9406 20.9944L57.5379 22.1202H58.3434L57.9406 20.9944Z" fill="#087F96"/>
<path d="M59.6092 22.5141H60.6449V22.8519H59.1489V20.6567H59.6092V22.5141Z" fill="#087F96"/>
<path d="M62.3134 22.4579L62.1983 22.8519H61.738L62.486 20.6567H63.1189L63.8669 22.8519H63.4066L63.234 22.4579H62.3134ZM62.8313 20.9944L62.4285 22.1202H63.234L62.8313 20.9944Z" fill="#087F96"/>
<path d="M64.0396 20.7129H65.0177C65.1903 20.7129 65.3054 20.7129 65.4205 20.7692C65.5355 20.7692 65.5931 20.8255 65.6506 20.8817C65.7081 20.938 65.7657 20.9943 65.7657 21.1069C65.7657 21.2195 65.8232 21.332 65.8232 21.5009C65.8232 21.6697 65.8232 21.7823 65.7657 21.8949C65.7082 22.0075 65.7081 22.0637 65.6506 22.12C65.5931 22.1763 65.478 22.2326 65.4205 22.2326C65.3054 22.2326 65.1903 22.2326 65.0752 22.2326H64.4999V22.9643H64.0396V20.7129ZM65.0177 21.8386C65.0752 21.8386 65.1328 21.8386 65.1903 21.8386C65.2478 21.8386 65.2478 21.8386 65.3054 21.7823C65.3054 21.7823 65.3629 21.726 65.3629 21.6697C65.3629 21.6135 65.3629 21.5572 65.3629 21.5009C65.3629 21.4446 65.3629 21.332 65.3629 21.332C65.3629 21.2757 65.3629 21.2195 65.3054 21.2195C65.3054 21.1632 65.2478 21.1632 65.1903 21.1632C65.1328 21.1632 65.0752 21.1632 65.0177 21.1632H64.4423V21.9512H65.0177V21.8386Z" fill="#087F96"/>
<path d="M66.1111 20.7129H67.0892C67.2618 20.7129 67.3769 20.7129 67.492 20.7692C67.6071 20.7692 67.6646 20.8255 67.7221 20.8817C67.7797 20.938 67.8372 20.9943 67.8372 21.1069C67.8372 21.2195 67.8948 21.332 67.8948 21.5009C67.8948 21.6697 67.8948 21.7823 67.8372 21.8949C67.7797 22.0075 67.7797 22.0637 67.7221 22.12C67.6646 22.1763 67.5495 22.2326 67.492 22.2326C67.3769 22.2326 67.2618 22.2326 67.1468 22.2326H66.5714V22.9643H66.1111V20.7129ZM67.0892 21.8386C67.1468 21.8386 67.2043 21.8386 67.2618 21.8386C67.3194 21.8386 67.3194 21.8386 67.3769 21.7823C67.3769 21.7823 67.4345 21.726 67.4345 21.6697C67.4345 21.6135 67.4345 21.5572 67.4345 21.5009C67.4345 21.4446 67.4345 21.332 67.4345 21.332C67.4345 21.2757 67.4345 21.2195 67.3769 21.2195C67.3769 21.1632 67.3194 21.1632 67.2618 21.1632C67.2043 21.1632 67.1468 21.1632 67.0892 21.1632H66.5138V21.9512H67.0892V21.8386Z" fill="#087F96"/>
</g>
<defs>
<clipPath id="clip0_54873_25854">
<rect width="67.8947" height="30" fill="white"/>
</clipPath>
</defs>
</svg>
