<svg width="20" height="22" viewBox="0 0 20 22" fill="none" xmlns="http://www.w3.org/2000/svg">
<g clip-path="url(#clip0_54798_34253)">
<path d="M19.9903 17.4729C19.9599 17.1862 19.8733 16.9086 19.7354 16.6566C19.5975 16.4046 19.4112 16.1835 19.1876 16.0062C18.2439 15.312 17.6013 14.2729 17.3947 13.1071C17.3419 12.6475 17.3274 11.9044 17.2698 11.0391C16.1232 11.5275 14.842 11.5791 13.6611 11.1845C12.4802 10.7899 11.4787 9.97554 10.8403 8.89073C10.2019 7.80591 9.96936 6.52337 10.1853 5.27829C10.4013 4.03322 11.0513 2.90906 12.0162 2.11198C12.0201 2.05991 12.0201 2.00761 12.0162 1.95553C12.0162 1.5458 11.8562 1.15285 11.5713 0.863132C11.2865 0.573409 10.9002 0.410645 10.4973 0.410645C10.0945 0.410645 9.70818 0.573409 9.42334 0.863132C9.1385 1.15285 8.97848 1.5458 8.97848 1.95553C8.97878 2.14078 9.01133 2.3245 9.07461 2.4982C9.13161 2.67453 9.15127 2.86114 9.13229 3.04576C3.41251 3.93553 3.95565 11.1075 3.72493 13.112C3.5145 14.2787 2.86865 15.3176 1.92248 16.0111C1.69737 16.1873 1.50975 16.4082 1.37095 16.6602C1.23216 16.9123 1.14508 17.1904 1.11498 17.4778C0.970786 18.9982 2.70114 18.8369 2.70114 18.8369H18.4089C18.4089 18.8369 20.1344 18.9933 19.9903 17.4729Z" fill="#6E8C99"/>
<path d="M10.5743 22.0001C11.1874 21.9992 11.7804 21.7771 12.2477 21.3734C12.715 20.9697 13.0264 20.4104 13.1265 19.7952H8.00757C8.10715 20.4134 8.4204 20.9751 8.89093 21.3793C9.36146 21.7835 9.95838 22.0036 10.5743 22.0001Z" fill="#6E8C99"/>
<path d="M2.16298 9.55786C2.16298 9.615 2.17404 9.67158 2.19554 9.72437C2.21704 9.77716 2.24855 9.82513 2.28827 9.86553C2.32799 9.90594 2.37515 9.93799 2.42705 9.95985C2.47895 9.98172 2.53458 9.99297 2.59076 9.99297C2.64693 9.99297 2.70256 9.98172 2.75446 9.95985C2.80636 9.93799 2.85352 9.90594 2.89324 9.86553C2.93297 9.82513 2.96448 9.77716 2.98598 9.72437C3.00747 9.67158 3.01854 9.615 3.01854 9.55786C3.0162 8.14471 3.38245 6.75622 4.07992 5.53405C4.7774 4.31187 5.78114 3.29976 6.98874 2.60097C7.03922 2.57105 7.08281 2.53045 7.11656 2.48193C7.1503 2.4334 7.17342 2.37808 7.18436 2.3197C7.19529 2.26131 7.19378 2.20122 7.17994 2.14348C7.16609 2.08573 7.14023 2.03168 7.10409 1.98497C7.04389 1.90923 6.95969 1.85709 6.86589 1.83747C6.77209 1.81786 6.6745 1.83197 6.5898 1.87742C5.23766 2.63033 4.11177 3.74237 3.33217 5.09498C2.55256 6.44758 2.14847 7.99003 2.16298 9.55786Z" fill="#6E8C99"/>
<path d="M5.83989 0.933392C5.95398 0.868561 6.03808 0.760286 6.07368 0.632387C6.10929 0.504487 6.09348 0.367439 6.02974 0.251392C5.96601 0.135345 5.85955 0.049805 5.73381 0.0135896C5.60806 -0.0226257 5.47332 -0.00654979 5.35923 0.0582809C3.7229 0.968107 2.3601 2.31271 1.41624 3.94864C0.472383 5.58456 -0.0171255 7.45043 -5.66895e-05 9.34717C-5.66895e-05 9.4872 0.0546347 9.6215 0.151986 9.72052C0.249337 9.81954 0.381374 9.87517 0.519049 9.87517C0.656725 9.87517 0.788761 9.81954 0.886113 9.72052C0.983464 9.6215 1.03816 9.4872 1.03816 9.34717C1.03574 7.63815 1.47887 5.95904 2.32239 4.481C3.16591 3.00295 4.37965 1.77882 5.83989 0.933392Z" fill="#6E8C99"/>
<path d="M18.9867 7.75526C19.8349 5.67233 18.8625 3.28436 16.8146 2.42158C14.7668 1.5588 12.419 2.54793 11.5708 4.63086C10.7226 6.71379 11.695 9.10176 13.7429 9.96454C15.7907 10.8273 18.1385 9.83819 18.9867 7.75526Z" fill="#6E8C99"/>
</g>
<defs>
<clipPath id="clip0_54798_34253">
<rect width="20" height="22" fill="white"/>
</clipPath>
</defs>
</svg>
